<svg width="818" height="726" viewBox="0 0 818 726" fill="none" xmlns="http://www.w3.org/2000/svg">
<path opacity="0.11" d="M904.807 15.7708C1179.25 6.86798 1350.72 309.891 1201.78 540.572L1185.22 566.218C1148.28 623.426 1129.35 690.397 1130.88 758.476L1131.8 799.192C1137.89 1070.62 839.315 1239.58 609.767 1094.6L575.333 1072.85C517.76 1036.48 450.602 1018.23 382.543 1020.43L352.031 1021.42C77.5881 1030.33 -93.8849 727.303 55.0594 496.621L71.6183 470.975C108.555 413.768 127.483 346.796 125.956 278.718L125.042 238.001C118.95 -33.4304 417.523 -202.386 647.071 -57.4019L681.505 -35.6534C739.078 0.710261 806.236 18.9683 874.295 16.7606L904.807 15.7708Z" fill="#FF7400"/>
</svg>
