<svg width="25" height="24" viewBox="0 0 25 24" fill="none" xmlns="http://www.w3.org/2000/svg">
<path d="M12.7656 17C13.049 17 13.2866 16.904 13.4786 16.712C13.67 16.5207 13.7656 16.2833 13.7656 16V13H16.7906C17.074 13 17.3073 12.904 17.4906 12.712C17.674 12.5207 17.7656 12.2833 17.7656 12C17.7656 11.7167 17.6696 11.479 17.4776 11.287C17.2863 11.0957 17.049 11 16.7656 11H13.7656V7.975C13.7656 7.69167 13.67 7.45833 13.4786 7.275C13.2866 7.09167 13.049 7 12.7656 7C12.4823 7 12.245 7.09567 12.0536 7.287C11.8616 7.479 11.7656 7.71667 11.7656 8V11H8.74062C8.45729 11 8.22396 11.0957 8.04063 11.287C7.85729 11.479 7.76562 11.7167 7.76562 12C7.76562 12.2833 7.86129 12.5207 8.05263 12.712C8.24463 12.904 8.48229 13 8.76562 13H11.7656V16.025C11.7656 16.3083 11.8616 16.5417 12.0536 16.725C12.245 16.9083 12.4823 17 12.7656 17ZM12.7656 22C11.3823 22 10.0823 21.7373 8.86563 21.212C7.64896 20.6873 6.59063 19.975 5.69063 19.075C4.79063 18.175 4.07829 17.1167 3.55363 15.9C3.02829 14.6833 2.76562 13.3833 2.76562 12C2.76562 10.6167 3.02829 9.31667 3.55363 8.1C4.07829 6.88333 4.79063 5.825 5.69063 4.925C6.59063 4.025 7.64896 3.31233 8.86563 2.787C10.0823 2.26233 11.3823 2 12.7656 2C14.149 2 15.449 2.26233 16.6656 2.787C17.8823 3.31233 18.9406 4.025 19.8406 4.925C20.7406 5.825 21.453 6.88333 21.9776 8.1C22.503 9.31667 22.7656 10.6167 22.7656 12C22.7656 13.3833 22.503 14.6833 21.9776 15.9C21.453 17.1167 20.7406 18.175 19.8406 19.075C18.9406 19.975 17.8823 20.6873 16.6656 21.212C15.449 21.7373 14.149 22 12.7656 22Z" fill="#106840"/>
<path d="M12.7656 17C13.049 17 13.2866 16.904 13.4786 16.712C13.67 16.5207 13.7656 16.2833 13.7656 16V13H16.7906C17.074 13 17.3073 12.904 17.4906 12.712C17.674 12.5207 17.7656 12.2833 17.7656 12C17.7656 11.7167 17.6696 11.479 17.4776 11.287C17.2863 11.0957 17.049 11 16.7656 11H13.7656V7.975C13.7656 7.69167 13.67 7.45833 13.4786 7.275C13.2866 7.09167 13.049 7 12.7656 7C12.4823 7 12.245 7.09567 12.0536 7.287C11.8616 7.479 11.7656 7.71667 11.7656 8V11H8.74062C8.45729 11 8.22396 11.0957 8.04063 11.287C7.85729 11.479 7.76562 11.7167 7.76562 12C7.76562 12.2833 7.86129 12.5207 8.05263 12.712C8.24463 12.904 8.48229 13 8.76562 13H11.7656V16.025C11.7656 16.3083 11.8616 16.5417 12.0536 16.725C12.245 16.9083 12.4823 17 12.7656 17ZM12.7656 22C11.3823 22 10.0823 21.7373 8.86563 21.212C7.64896 20.6873 6.59063 19.975 5.69063 19.075C4.79063 18.175 4.07829 17.1167 3.55363 15.9C3.02829 14.6833 2.76562 13.3833 2.76562 12C2.76562 10.6167 3.02829 9.31667 3.55363 8.1C4.07829 6.88333 4.79063 5.825 5.69063 4.925C6.59063 4.025 7.64896 3.31233 8.86563 2.787C10.0823 2.26233 11.3823 2 12.7656 2C14.149 2 15.449 2.26233 16.6656 2.787C17.8823 3.31233 18.9406 4.025 19.8406 4.925C20.7406 5.825 21.453 6.88333 21.9776 8.1C22.503 9.31667 22.7656 10.6167 22.7656 12C22.7656 13.3833 22.503 14.6833 21.9776 15.9C21.453 17.1167 20.7406 18.175 19.8406 19.075C18.9406 19.975 17.8823 20.6873 16.6656 21.212C15.449 21.7373 14.149 22 12.7656 22Z" fill="black" fillOpacity="0.2"/>
<path d="M12.7656 17C13.049 17 13.2866 16.904 13.4786 16.712C13.67 16.5207 13.7656 16.2833 13.7656 16V13H16.7906C17.074 13 17.3073 12.904 17.4906 12.712C17.674 12.5207 17.7656 12.2833 17.7656 12C17.7656 11.7167 17.6696 11.479 17.4776 11.287C17.2863 11.0957 17.049 11 16.7656 11H13.7656V7.975C13.7656 7.69167 13.67 7.45833 13.4786 7.275C13.2866 7.09167 13.049 7 12.7656 7C12.4823 7 12.245 7.09567 12.0536 7.287C11.8616 7.479 11.7656 7.71667 11.7656 8V11H8.74062C8.45729 11 8.22396 11.0957 8.04063 11.287C7.85729 11.479 7.76562 11.7167 7.76562 12C7.76562 12.2833 7.86129 12.5207 8.05263 12.712C8.24463 12.904 8.48229 13 8.76562 13H11.7656V16.025C11.7656 16.3083 11.8616 16.5417 12.0536 16.725C12.245 16.9083 12.4823 17 12.7656 17ZM12.7656 22C11.3823 22 10.0823 21.7373 8.86563 21.212C7.64896 20.6873 6.59063 19.975 5.69063 19.075C4.79063 18.175 4.07829 17.1167 3.55363 15.9C3.02829 14.6833 2.76562 13.3833 2.76562 12C2.76562 10.6167 3.02829 9.31667 3.55363 8.1C4.07829 6.88333 4.79063 5.825 5.69063 4.925C6.59063 4.025 7.64896 3.31233 8.86563 2.787C10.0823 2.26233 11.3823 2 12.7656 2C14.149 2 15.449 2.26233 16.6656 2.787C17.8823 3.31233 18.9406 4.025 19.8406 4.925C20.7406 5.825 21.453 6.88333 21.9776 8.1C22.503 9.31667 22.7656 10.6167 22.7656 12C22.7656 13.3833 22.503 14.6833 21.9776 15.9C21.453 17.1167 20.7406 18.175 19.8406 19.075C18.9406 19.975 17.8823 20.6873 16.6656 21.212C15.449 21.7373 14.149 22 12.7656 22Z" fill="black" fillOpacity="0.2"/>
<path d="M12.7656 17C13.049 17 13.2866 16.904 13.4786 16.712C13.67 16.5207 13.7656 16.2833 13.7656 16V13H16.7906C17.074 13 17.3073 12.904 17.4906 12.712C17.674 12.5207 17.7656 12.2833 17.7656 12C17.7656 11.7167 17.6696 11.479 17.4776 11.287C17.2863 11.0957 17.049 11 16.7656 11H13.7656V7.975C13.7656 7.69167 13.67 7.45833 13.4786 7.275C13.2866 7.09167 13.049 7 12.7656 7C12.4823 7 12.245 7.09567 12.0536 7.287C11.8616 7.479 11.7656 7.71667 11.7656 8V11H8.74062C8.45729 11 8.22396 11.0957 8.04063 11.287C7.85729 11.479 7.76562 11.7167 7.76562 12C7.76562 12.2833 7.86129 12.5207 8.05263 12.712C8.24463 12.904 8.48229 13 8.76562 13H11.7656V16.025C11.7656 16.3083 11.8616 16.5417 12.0536 16.725C12.245 16.9083 12.4823 17 12.7656 17ZM12.7656 22C11.3823 22 10.0823 21.7373 8.86563 21.212C7.64896 20.6873 6.59063 19.975 5.69063 19.075C4.79063 18.175 4.07829 17.1167 3.55363 15.9C3.02829 14.6833 2.76562 13.3833 2.76562 12C2.76562 10.6167 3.02829 9.31667 3.55363 8.1C4.07829 6.88333 4.79063 5.825 5.69063 4.925C6.59063 4.025 7.64896 3.31233 8.86563 2.787C10.0823 2.26233 11.3823 2 12.7656 2C14.149 2 15.449 2.26233 16.6656 2.787C17.8823 3.31233 18.9406 4.025 19.8406 4.925C20.7406 5.825 21.453 6.88333 21.9776 8.1C22.503 9.31667 22.7656 10.6167 22.7656 12C22.7656 13.3833 22.503 14.6833 21.9776 15.9C21.453 17.1167 20.7406 18.175 19.8406 19.075C18.9406 19.975 17.8823 20.6873 16.6656 21.212C15.449 21.7373 14.149 22 12.7656 22Z" fill="black" fillOpacity="0.2"/>
<path d="M12.7656 17C13.049 17 13.2866 16.904 13.4786 16.712C13.67 16.5207 13.7656 16.2833 13.7656 16V13H16.7906C17.074 13 17.3073 12.904 17.4906 12.712C17.674 12.5207 17.7656 12.2833 17.7656 12C17.7656 11.7167 17.6696 11.479 17.4776 11.287C17.2863 11.0957 17.049 11 16.7656 11H13.7656V7.975C13.7656 7.69167 13.67 7.45833 13.4786 7.275C13.2866 7.09167 13.049 7 12.7656 7C12.4823 7 12.245 7.09567 12.0536 7.287C11.8616 7.479 11.7656 7.71667 11.7656 8V11H8.74062C8.45729 11 8.22396 11.0957 8.04063 11.287C7.85729 11.479 7.76562 11.7167 7.76562 12C7.76562 12.2833 7.86129 12.5207 8.05263 12.712C8.24463 12.904 8.48229 13 8.76562 13H11.7656V16.025C11.7656 16.3083 11.8616 16.5417 12.0536 16.725C12.245 16.9083 12.4823 17 12.7656 17ZM12.7656 22C11.3823 22 10.0823 21.7373 8.86563 21.212C7.64896 20.6873 6.59063 19.975 5.69063 19.075C4.79063 18.175 4.07829 17.1167 3.55363 15.9C3.02829 14.6833 2.76562 13.3833 2.76562 12C2.76562 10.6167 3.02829 9.31667 3.55363 8.1C4.07829 6.88333 4.79063 5.825 5.69063 4.925C6.59063 4.025 7.64896 3.31233 8.86563 2.787C10.0823 2.26233 11.3823 2 12.7656 2C14.149 2 15.449 2.26233 16.6656 2.787C17.8823 3.31233 18.9406 4.025 19.8406 4.925C20.7406 5.825 21.453 6.88333 21.9776 8.1C22.503 9.31667 22.7656 10.6167 22.7656 12C22.7656 13.3833 22.503 14.6833 21.9776 15.9C21.453 17.1167 20.7406 18.175 19.8406 19.075C18.9406 19.975 17.8823 20.6873 16.6656 21.212C15.449 21.7373 14.149 22 12.7656 22Z" fill="black" fillOpacity="0.2"/>
</svg>
