<svg width="508" height="284" viewBox="0 0 508 284" fill="none" xmlns="http://www.w3.org/2000/svg">
<path d="M202.432 260.691C202.432 260.691 203.213 269.113 205.25 270.641C207.288 272.169 210.004 277.908 208.646 280.999C208.205 281.949 207.356 282.527 206.405 282.832C203.552 283.749 200.496 282.187 199.274 279.335C198.594 277.739 197.983 275.599 197.881 272.916C197.576 266.091 195.538 262.627 195.538 262.627L202.432 260.691Z" fill="#F7A491"/>
<path d="M171.057 264.154C171.057 264.154 170.412 272.644 170.921 275.395C171.193 276.855 172.755 279.911 172.042 281.303C171.329 282.696 170.514 283.035 170.514 283.035L152.006 283.341C150.988 283.341 151.667 282.696 152.482 282.05C153.806 281.032 154.893 280.352 159.138 278.213C159.409 278.077 160.428 277.398 160.802 277.16C161.718 276.583 162.635 275.666 163.45 274.715C164.775 273.187 164.91 265.716 164.91 265.716L171.057 264.154Z" fill="#F7A491"/>
<path d="M156.584 151.377C156.584 151.377 154.24 165.164 155.769 174.197C157.297 183.23 164.632 266.938 164.632 266.938L172.782 267.413C172.782 267.413 174.48 232.436 174.174 227.58C173.868 222.724 171.457 214.574 171.457 214.574L172.272 186.354L161.983 149.271L156.584 151.377Z" fill="#355389"/>
<path d="M180.603 148.458C180.603 148.458 187.021 158.544 188.549 166.864C190.077 175.184 187.429 200.822 190.383 211.757C191.979 217.666 198.024 226.801 198.941 234.441C199.857 242.082 203.457 262.118 203.457 262.118L195.307 263.816L176.358 213.829L161.484 168.63L157.681 145.368L180.603 148.458Z" fill="#466EB6"/>
<path d="M198.734 277.84C203.182 278.689 206.137 275.972 207.665 273.935C208.786 276.244 209.499 279.096 208.65 280.998C207.903 282.662 205.933 283.103 204.235 283.171C202.469 283.239 200.771 282.254 199.889 280.658C199.515 279.911 199.074 278.96 198.734 277.84Z" fill="#65B891"/>
<path d="M198.734 277.84C203.182 278.689 206.137 275.972 207.665 273.935C208.786 276.244 209.499 279.096 208.65 280.998C207.903 282.662 205.933 283.103 204.235 283.171C202.469 283.239 200.771 282.254 199.889 280.658C199.515 279.911 199.074 278.96 198.734 277.84Z" fill="black" fill-opacity="0.2"/>
<path d="M160.801 277.196C165.691 278.521 169.325 277.604 171.328 276.755C171.838 278.283 172.551 280.219 172.177 281.339C171.736 282.698 171.09 283.139 170.513 283.139C166.031 283.275 154.145 283.309 150.715 283.377C150.24 283.377 149.968 282.799 150.274 282.426C151.157 281.373 160.461 277.434 160.801 277.196Z" fill="#65B891"/>
<path d="M160.801 277.196C165.691 278.521 169.325 277.604 171.328 276.755C171.838 278.283 172.551 280.219 172.177 281.339C171.736 282.698 171.09 283.139 170.513 283.139C166.031 283.275 154.145 283.309 150.715 283.377C150.24 283.377 149.968 282.799 150.274 282.426C151.157 281.373 160.461 277.434 160.801 277.196Z" fill="black" fill-opacity="0.2"/>
<path d="M155.82 76.0609C157.28 66.6205 165.804 59.8627 174.701 64.4132C176.704 65.4319 179.421 67.5373 180.813 69.3032C184.617 74.1932 185.533 80.2718 189.574 84.9581C193.072 88.9991 202.343 88.252 206.69 91.3762C211.036 94.5004 214.059 100.104 214.059 106.759C214.059 114.23 212.361 122.177 206.588 126.897C200.781 131.617 192.563 132.806 185.364 130.802C178.164 128.799 171.984 123.875 167.535 117.864C163.087 111.853 159.929 105.265 157.721 98.1C155.276 90.1877 154.903 82.1735 155.82 76.0609Z" fill="#184655"/>
<path d="M188.483 88.8607C188.483 88.8607 199.418 69.3006 202.1 65.1576C204.749 61.0147 211.711 44.4769 211.948 43.8317C212.186 43.1865 207.16 35.376 208.281 35.1043C209.401 34.8327 210.658 39.2133 211.846 38.704C213.035 38.1946 216.533 27.6335 217.212 28.1428C218.502 29.1276 215.31 34.6968 216.023 35.0364C216.702 35.376 218.774 28.9239 220.098 29.0937C221.423 29.2974 217.551 35.0364 217.925 35.5458C218.298 36.0552 222.34 30.6218 223.053 31.7764C223.46 32.3877 219.351 36.4966 220.132 36.9041C220.913 37.2777 224.581 34.6289 224.954 35.41C225.328 36.1571 221.592 37.2098 220.472 39.2812C219.351 41.3527 217.449 42.2356 216.634 46.039C215.853 49.8423 214.665 63.6295 210.59 70.5231C206.515 77.4167 197.584 92.6301 197.584 92.6301L188.483 88.8607Z" fill="#F79C8D"/>
<path d="M157.642 112.052L166.438 117.112C166.438 117.112 149.764 139.049 148.813 140.034L141.818 133.819L157.642 112.052Z" fill="#F48C7F"/>
<path d="M164.947 98.9463C164.947 98.9463 158.121 100.237 149.631 121.291L161.313 127.539L169.633 114.635L164.947 98.9463Z" fill="#F47458"/>
<path d="M140.291 127.13C140.291 127.13 141.876 126.99 144.518 127.68C147.758 128.542 147.969 135.12 147.089 137.428C146.243 139.735 146.243 139.735 146.243 139.735C146.243 139.735 139.622 139.023 138.037 136.543C136.487 134.074 135.889 127.637 135.889 127.637L140.291 127.13Z" fill="#F48C7F"/>
<path d="M175.86 96.8063C175.86 96.8063 184.452 96.263 187.848 99.9644C191.243 103.666 180.309 132.87 179.697 137.557C179.086 142.243 184.757 151.615 184.757 151.615C184.757 151.615 161.156 162.652 155.383 158.849C155.383 158.849 156.3 121.189 156.911 117.827C157.523 114.465 162.684 100.813 163.907 99.489C165.129 98.1647 175.86 96.8063 175.86 96.8063Z" fill="#F7CC7F"/>
<path d="M173.003 85.361C173.003 85.361 173.037 85.5987 173.139 86.0401C173.512 88.1116 175.006 94.9373 175.991 96.805C177.18 99.0802 171.882 106.313 166.755 105.43C165.226 105.159 168.045 98.7746 167.909 98.0954C167.637 96.805 167.298 95.0392 166.924 93.2054C166.721 92.1866 166.517 91.1339 166.313 90.1831C165.77 87.4324 165.328 85.1572 165.328 85.1572L173.003 85.361Z" fill="#F7A491"/>
<path d="M173.098 86.0401C173.03 85.5987 172.962 85.361 172.962 85.361L165.288 85.1572C165.288 85.1572 165.729 87.4324 166.273 90.1831C166.476 91.1679 166.68 92.1866 166.884 93.2054C168.072 93.0356 169.295 92.4583 170.551 91.3716C171.91 90.1831 172.793 88.7568 173.336 87.2627C173.234 86.7872 173.166 86.3797 173.098 86.0401Z" fill="#F47458"/>
<path d="M167.836 67.9432C167.836 67.9432 171.469 67.5357 173.711 70.4562C175.986 73.3766 178.431 82.4435 172.794 87.3675C167.157 92.2915 161.587 86.7223 160.772 80.8135C159.923 74.9047 159.618 67.7395 167.836 67.9432Z" fill="#F7A491"/>
<path d="M159.109 80.7103C159.788 82.0007 160.909 82.7478 161.622 82.3403C162.335 81.9328 162.369 80.5405 161.724 79.2161C161.045 77.9257 159.924 77.1786 159.211 77.5861C158.464 78.0276 158.43 79.4198 159.109 80.7103Z" fill="#F7A491"/>
<path d="M167.426 66.9921C167.426 66.9921 172.248 75.5836 175.712 75.9911C179.176 76.3986 179.617 80.949 179.617 80.949C179.617 80.949 178.395 70.4219 174.965 68.3844C171.535 66.3808 167.426 66.9921 167.426 66.9921Z" fill="#184655"/>
<path d="M174.793 78.1622C174.521 79.6903 175.065 81.0826 176.05 81.2864C177.034 81.4901 178.053 80.4034 178.325 78.8753C178.596 77.3472 178.053 75.9549 177.068 75.7511C176.084 75.5474 175.065 76.634 174.793 78.1622Z" fill="#F7A491"/>
<path d="M191.51 82.5107C191.51 82.5107 179.387 95.5168 177.587 100.746C175.787 105.976 179.353 113.481 184.243 113.82C189.167 114.16 200.102 90.7627 200.102 90.7627L191.51 82.5107Z" fill="#FAE0B2"/>
<path d="M417.568 131.449H31.0214C24.5893 131.449 19.375 136.664 19.375 143.096V213.079C19.375 219.511 24.5893 224.725 31.0214 224.725H417.568C424.001 224.725 429.215 219.511 429.215 213.079V143.096C429.215 136.663 424.001 131.449 417.568 131.449Z" fill="#EED5D5"/>
<path d="M89.808 131.447H31.0253C24.5932 131.447 19.3789 136.662 19.3789 143.094V213.077C19.3789 219.509 24.5932 224.723 31.0253 224.723H89.808C96.2401 224.723 101.454 219.509 101.454 213.077V143.094C101.454 136.662 96.2401 131.447 89.808 131.447Z" fill="#D67086"/>
<path d="M135.875 127.7H142.13L144.61 128.088L144.997 134.958C144.997 134.958 142.183 135.367 141.213 135.367C140.242 135.367 137.331 134.396 137.331 134.396L135.875 127.7Z" fill="#F48C7F"/>
<path d="M420.71 268.383C420.107 268.383 419.443 268.141 419.021 267.719L400.557 249.738L389.937 264.099C389.454 264.762 388.73 265.124 387.946 265.124C386.92 265.124 386.075 264.521 385.653 263.495L357.233 192.476C356.871 191.57 357.112 190.605 357.836 190.002C358.259 189.579 358.802 189.338 359.345 189.338C359.646 189.338 359.888 189.398 360.189 189.519L431.873 216.129C432.718 216.43 433.381 217.275 433.562 218.18C433.683 218.965 433.381 219.689 432.778 220.171L418.417 231.395L436.941 249.436C437.847 250.341 437.847 251.85 436.941 252.815L422.339 267.719C421.917 268.141 421.313 268.383 420.71 268.383ZM400.315 243.764C400.919 243.764 401.522 244.006 401.944 244.428L420.65 262.651L431.933 251.065L413.168 232.843C412.685 232.36 412.444 231.696 412.504 230.972C412.564 230.309 412.806 229.765 413.288 229.403L426.442 219.146L363.689 195.855L388.549 257.944L398.264 244.79C398.746 244.126 399.531 243.764 400.315 243.764Z" fill="white"/>
<path d="M437.623 248.712L435.089 246.238L426.762 238.152L419.883 231.455L433.399 220.895C434.304 220.232 434.727 219.145 434.546 218.059C434.365 216.853 433.46 215.706 432.313 215.284L427.908 213.655L423.503 212.025L403.471 204.604L385.007 197.725L372.818 193.199L360.63 188.674C360.268 188.553 359.845 188.433 359.483 188.433C358.638 188.433 357.914 188.734 357.311 189.338C356.285 190.182 355.923 191.51 356.466 192.837L358.337 197.544L359.906 201.526L370.827 228.8L375.171 239.721L379.999 251.789L384.826 263.857C385.369 265.185 386.576 266.09 387.963 266.09C389.05 266.09 390.015 265.547 390.679 264.642L398.04 254.686L400.695 251.125L418.375 268.383C418.978 268.986 419.823 269.348 420.728 269.348C421.633 269.348 422.417 268.986 423.081 268.383L429.236 262.107L437.683 253.418C438.287 252.815 438.588 251.97 438.649 251.125C438.588 250.22 438.226 249.315 437.623 248.712ZM436.296 252.091C431.408 257.099 426.581 262.047 421.693 267.055C421.452 267.357 421.03 267.478 420.668 267.478C420.306 267.478 419.883 267.357 419.642 267.055C413.668 261.202 407.695 255.41 401.721 249.557C401.299 249.134 400.876 248.712 400.393 248.29C396.652 253.358 392.851 258.427 389.11 263.495C388.748 263.978 388.325 264.159 387.843 264.159C387.239 264.159 386.696 263.797 386.455 263.133C383.257 255.108 379.999 247.022 376.801 238.997C371.732 226.266 366.603 213.594 361.535 200.863C360.388 197.966 359.181 195.07 358.035 192.113C357.794 191.45 357.975 190.967 358.397 190.665C358.638 190.424 358.94 190.243 359.302 190.243C359.483 190.243 359.604 190.303 359.785 190.363C367.931 193.38 376.016 196.397 384.162 199.414C397.014 204.181 409.867 208.948 422.659 213.715C425.615 214.801 428.512 215.887 431.468 216.973C432.373 217.335 433.037 218.663 432.072 219.387C427.003 223.309 421.935 227.291 416.926 231.213C422.538 236.644 428.089 242.135 433.701 247.565C434.546 248.41 435.39 249.195 436.235 250.039C436.899 250.582 436.839 251.548 436.296 252.091Z" fill="white"/>
<path d="M413.85 232.177C413.306 231.695 413.246 230.609 413.85 230.126C418.677 226.385 423.504 222.583 428.271 218.842C420.97 216.127 413.729 213.412 406.428 210.757C393.575 205.99 380.723 201.223 367.931 196.456C366 195.732 364.009 195.008 362.078 194.284C364.914 201.404 367.75 208.464 370.586 215.584C375.655 228.316 380.783 240.987 385.852 253.719C386.697 255.77 387.481 257.822 388.326 259.873C391.886 255.046 395.506 250.219 399.066 245.392C399.368 244.969 399.851 244.668 400.333 244.668C400.696 244.668 400.997 244.788 401.299 245.09C407.273 250.943 413.246 256.736 419.22 262.589C419.702 263.071 420.185 263.554 420.668 263.976C424.831 259.692 429.055 255.408 433.219 251.064C427.607 245.573 421.935 240.082 416.323 234.591C415.479 233.807 414.694 232.962 413.85 232.177ZM430.624 251.124L420.668 261.382L420.547 261.261L402.626 243.763C402.023 243.159 401.178 242.797 400.333 242.797C399.247 242.797 398.222 243.34 397.558 244.245L391.162 252.814L388.809 256.012L387.602 252.934L378.792 231.031L372.276 214.8L368.052 204.18L365.336 197.422L367.267 198.146L405.764 212.446L424.469 219.385L424.047 219.687L412.643 228.617C411.979 229.16 411.557 229.945 411.496 230.85C411.436 231.815 411.798 232.781 412.462 233.445L414.996 235.919L420.185 240.987L430.624 251.124Z" fill="white"/>
<path d="M414.857 231.155L431.209 218.363L359.465 191.753L387.885 262.773L400.254 246.119L420.649 266.031L427.95 258.549L435.251 251.067L414.857 231.155Z" fill="#65655E"/>
<path d="M155.073 201.477V194.122H166.879C169.03 194.122 170.664 193.542 171.782 192.38C172.9 191.176 173.46 189.542 173.46 187.477C173.46 185.413 172.9 183.822 171.782 182.703C170.664 181.542 169.03 180.962 166.879 180.962H155.073V175.349H166.234C169.374 175.349 172.169 175.736 174.621 176.51C177.115 177.241 179.051 178.489 180.427 180.252C181.846 182.015 182.556 184.381 182.556 187.348V188.252C182.556 191.047 181.932 193.434 180.685 195.413C179.481 197.348 177.653 198.853 175.201 199.929C172.793 200.961 169.804 201.477 166.234 201.477H155.073ZM147.396 201.477V153.737H156.363V201.477H147.396ZM155.073 179.478V173.865H165.137C167.331 173.865 168.944 173.284 169.976 172.123C171.008 170.962 171.524 169.414 171.524 167.478C171.524 165.543 171.008 163.995 169.976 162.833C168.944 161.672 167.331 161.091 165.137 161.091H155.073V153.737H164.299C169.632 153.737 173.675 154.855 176.427 157.092C179.223 159.328 180.621 162.532 180.621 166.704V167.607C180.621 170.532 179.911 172.876 178.492 174.639C177.115 176.36 175.201 177.607 172.75 178.381C170.298 179.112 167.481 179.478 164.299 179.478H155.073ZM191.812 201.154V154.059H200.973V201.154H191.812ZM199.683 201.154V193.09H220.004V201.154H199.683ZM248.717 202.38C244.459 202.38 240.76 201.627 237.621 200.122C234.524 198.617 231.944 196.66 229.879 194.251C227.858 191.8 226.331 189.176 225.299 186.381C224.309 183.542 223.815 180.811 223.815 178.187V176.768C223.815 173.887 224.331 171.026 225.363 168.188C226.395 165.306 227.944 162.704 230.008 160.382C232.116 158.059 234.718 156.21 237.814 154.834C240.911 153.414 244.545 152.705 248.717 152.705C252.846 152.705 256.459 153.414 259.555 154.834C262.652 156.21 265.232 158.059 267.297 160.382C269.404 162.704 270.974 165.306 272.006 168.188C273.039 171.026 273.555 173.887 273.555 176.768V178.187C273.555 180.811 273.039 183.542 272.006 186.381C271.017 189.176 269.49 191.8 267.426 194.251C265.405 196.66 262.824 198.617 259.684 200.122C256.588 201.627 252.932 202.38 248.717 202.38ZM248.717 193.864C251.126 193.864 253.276 193.434 255.168 192.574C257.104 191.714 258.738 190.531 260.071 189.026C261.448 187.477 262.48 185.736 263.168 183.8C263.899 181.822 264.265 179.736 264.265 177.542C264.265 175.177 263.899 173.005 263.168 171.026C262.48 169.048 261.448 167.328 260.071 165.865C258.738 164.403 257.104 163.263 255.168 162.446C253.233 161.629 251.083 161.22 248.717 161.22C246.309 161.22 244.137 161.629 242.201 162.446C240.266 163.263 238.61 164.403 237.234 165.865C235.9 167.328 234.868 169.048 234.137 171.026C233.449 173.005 233.105 175.177 233.105 177.542C233.105 179.736 233.449 181.822 234.137 183.8C234.868 185.736 235.9 187.477 237.234 189.026C238.61 190.531 240.266 191.714 242.201 192.574C244.137 193.434 246.309 193.864 248.717 193.864ZM304.343 202.38C300.3 202.38 296.73 201.713 293.634 200.38C290.58 199.004 287.999 197.176 285.892 194.896C283.828 192.574 282.258 189.972 281.182 187.09C280.15 184.166 279.634 181.134 279.634 177.994V176.575C279.634 173.607 280.15 170.704 281.182 167.865C282.215 165.027 283.72 162.468 285.698 160.188C287.72 157.909 290.193 156.102 293.117 154.769C296.085 153.393 299.483 152.705 303.311 152.705C307.439 152.705 311.095 153.479 314.278 155.027C317.461 156.532 320.02 158.661 321.955 161.414C323.89 164.124 325.03 167.285 325.374 170.897H316.149C315.848 168.876 315.095 167.156 313.891 165.736C312.687 164.274 311.16 163.156 309.31 162.382C307.504 161.608 305.504 161.22 303.311 161.22C301.117 161.22 299.117 161.608 297.311 162.382C295.547 163.156 294.042 164.253 292.795 165.672C291.548 167.091 290.58 168.79 289.892 170.768C289.247 172.747 288.924 174.94 288.924 177.349C288.924 179.972 289.29 182.316 290.021 184.381C290.752 186.445 291.784 188.209 293.117 189.671C294.451 191.09 296.064 192.187 297.956 192.961C299.848 193.692 301.977 194.058 304.343 194.058C307.482 194.058 310.235 193.413 312.601 192.122C314.966 190.789 316.686 189.069 317.762 186.961L316.149 194.38V182.252H324.6V192.703C322.579 195.757 319.826 198.144 316.342 199.864C312.859 201.541 308.859 202.38 304.343 202.38ZM302.859 184.058V177.22H328.535V184.058H302.859Z" fill="#106840"/>
<path d="M398.444 108.501L408.81 96.9301L423.452 101.966L422.207 105.518L409.98 101.246L399.294 113.157L383.489 104.572L377.379 113.379L374.476 110.964L382.284 99.7047L398.444 108.501Z" fill="#FF7400"/>
<path d="M288.814 107.273C299.223 105.784 306.454 96.139 304.965 85.7298C303.476 75.3206 293.831 68.0894 283.422 69.5784C273.013 71.0674 265.781 80.7127 267.27 91.1219C268.759 101.531 278.405 108.762 288.814 107.273Z" fill="#FF7400"/>
<path d="M288.483 77.1658L290.447 85.0814C290.489 85.208 290.573 85.3136 290.7 85.3558L298.32 88.2265C298.637 88.3532 298.679 88.7754 298.383 88.9653L291.481 93.2926C291.375 93.3559 291.291 93.4825 291.291 93.6303L290.932 101.799C290.911 102.137 290.531 102.306 290.257 102.095L284.03 96.8388C283.924 96.7543 283.797 96.7121 283.65 96.7543L275.797 98.9285C275.481 99.0129 275.185 98.6963 275.312 98.3797L278.373 90.8018C278.415 90.6751 278.415 90.5274 278.33 90.4218L273.834 83.6038C273.644 83.3294 273.876 82.9494 274.193 82.9706L282.32 83.5405C282.446 83.5405 282.573 83.4983 282.658 83.3927L287.745 76.9969C287.977 76.7436 288.399 76.828 288.483 77.1658Z" fill="white"/>
<path d="M338.911 118.211C346.943 118.211 353.455 111.7 353.455 103.668C353.455 95.6354 346.943 89.124 338.911 89.124C330.879 89.124 324.367 95.6354 324.367 103.668C324.367 111.7 330.879 118.211 338.911 118.211Z" fill="#AA4F4F"/>
<path d="M341.282 95.835C339.678 96.1094 337.905 97.4604 337.778 98.959C336.955 97.7137 334.317 97.4815 332.776 98.0303C328.702 99.4445 328.491 104.511 331.066 107.234C332.459 108.69 334.19 109.851 336.026 110.801C337.567 111.603 341.388 113.165 341.388 113.144C341.409 113.144 344.005 109.957 344.976 108.5C346.116 106.769 347.108 104.933 347.615 102.991C348.586 99.3601 345.525 95.1173 341.282 95.835Z" fill="white"/>
<path d="M248.285 199.211C259.628 199.211 268.823 190.015 268.823 178.672C268.823 167.329 259.628 158.134 248.285 158.134C236.941 158.134 227.746 167.329 227.746 178.672C227.746 190.015 236.941 199.211 248.285 199.211Z" fill="#106840"/>
<path d="M263.212 172.36C262.389 170.439 261.228 168.708 259.75 167.21C258.273 165.732 256.542 164.55 254.6 163.748C252.595 162.904 250.484 162.481 248.31 162.481C246.114 162.481 244.004 162.904 242.019 163.748C240.098 164.571 238.368 165.732 236.869 167.21C235.391 168.687 234.209 170.418 233.407 172.36C232.563 174.365 232.141 176.476 232.141 178.65C232.141 180.846 232.563 182.957 233.407 184.941C234.23 186.862 235.391 188.592 236.869 190.091C238.346 191.569 240.077 192.751 242.019 193.553C244.025 194.397 246.135 194.819 248.31 194.819C250.505 194.819 252.616 194.397 254.6 193.553C256.521 192.73 258.252 191.569 259.75 190.091C261.228 188.614 262.41 186.883 263.212 184.941C264.056 182.935 264.479 180.825 264.479 178.65C264.479 176.476 264.056 174.365 263.212 172.36ZM240.415 178.165C240.415 176.898 240.563 175.653 240.837 174.45H247.465V182.154H240.901C240.584 180.846 240.415 179.516 240.415 178.165ZM252.362 167.526C253.523 168.898 254.452 170.376 255.128 171.959C255.254 172.255 255.36 172.55 255.465 172.846H249.112V164.55C249.872 165.078 251.117 166.07 252.362 167.526ZM247.465 164.677V172.825H241.323C241.428 172.55 241.534 172.255 241.639 171.98C242.294 170.418 243.223 168.941 244.383 167.569C245.544 166.218 246.684 165.268 247.465 164.677ZM247.465 183.78V192.519C246.684 191.843 245.566 190.767 244.447 189.331C243.265 187.811 242.336 186.207 241.66 184.54C241.555 184.286 241.471 184.033 241.365 183.78H247.465ZM249.112 192.709V183.78H255.423C255.339 184.033 255.233 184.265 255.149 184.519C254.473 186.165 253.545 187.769 252.384 189.289C251.138 190.893 249.893 192.054 249.112 192.709ZM249.112 182.154V174.45H255.951C256.246 175.653 256.373 176.898 256.373 178.165C256.373 179.516 256.204 180.846 255.888 182.154H249.112ZM257.618 174.45H262.241C262.642 175.801 262.853 177.215 262.853 178.65C262.853 179.833 262.706 181.015 262.431 182.133H257.576C257.872 180.825 258.019 179.495 258.019 178.144C257.998 176.898 257.872 175.653 257.618 174.45ZM258.589 168.371C259.898 169.679 260.911 171.178 261.629 172.825H257.175C257.006 172.318 256.816 171.811 256.605 171.305C255.866 169.574 254.853 167.949 253.587 166.45C252.932 165.669 252.257 165.014 251.666 164.487C254.262 165.12 256.647 166.429 258.589 168.371ZM237.988 168.371C239.993 166.365 242.484 165.014 245.186 164.445C244.573 164.993 243.877 165.669 243.201 166.471C241.914 167.97 240.901 169.595 240.183 171.326C239.972 171.832 239.782 172.318 239.613 172.846H234.948C235.666 171.178 236.7 169.679 237.988 168.371ZM234.357 174.45H239.191C238.938 175.653 238.811 176.898 238.811 178.165C238.811 179.516 238.959 180.846 239.254 182.154H234.167C233.893 181.036 233.745 179.854 233.745 178.672C233.724 177.215 233.935 175.801 234.357 174.45ZM237.988 188.951C236.489 187.453 235.37 185.701 234.653 183.78H239.676C239.824 184.244 239.993 184.709 240.183 185.152C240.901 186.946 241.914 188.698 243.201 190.323C244.025 191.4 244.848 192.265 245.566 192.941C242.695 192.434 240.077 191.041 237.988 188.951ZM258.589 188.951C256.563 190.978 254.051 192.329 251.307 192.899C252.004 192.223 252.806 191.358 253.608 190.323C254.874 188.698 255.888 186.946 256.626 185.152C256.816 184.687 256.985 184.244 257.133 183.78H261.946C261.207 185.701 260.067 187.474 258.589 188.951Z" fill="white"/>
<path d="M60.0333 162.74C49.2992 167.069 49.259 182.426 59.9797 186.888C61.9094 187.692 63.4505 189.193 64.3885 191.069L67.5913 197.488C68.4758 199.257 70.5663 200.048 72.4022 199.311L76.4626 197.676C78.2985 196.939 79.2634 194.915 78.6604 193.026C76.5028 186.138 75.2164 183.753 76.7977 180.108C81.4343 169.454 70.7539 158.412 60.0333 162.74Z" fill="#F7CC7F"/>
<path d="M67.8015 192.206C65.7378 186.35 63.2988 180.226 62.5484 178.511C56.2366 180.293 57.1613 173.017 60.7259 175.094C61.7443 175.683 62.3742 176.662 62.8968 177.76C64.9739 177.09 66.917 176.032 68.5787 174.625C68.1499 173.164 67.7479 172.078 67.9489 171.033C68.2571 169.465 69.9858 168.661 71.0311 169.894C71.4197 170.363 71.6207 171.02 71.5537 171.623C71.3929 172.909 70.2806 173.981 69.289 174.839C70.6961 179.543 72.2372 184.26 73.8854 188.87L73.2958 189.084C71.6743 184.541 70.16 179.905 68.7663 175.281C67.1046 176.635 65.1883 177.68 63.138 178.337C64.0895 180.548 66.4346 186.511 68.3777 192.005L67.8015 192.206ZM59.1982 177.76C59.9084 178.243 60.9135 178.296 62.2804 177.921C61.8113 176.956 61.2485 176.112 60.4043 175.616C58.4879 174.504 58.0189 176.956 59.1982 177.76ZM68.5519 171.14C68.3777 172.011 68.7395 173.003 69.088 174.169C69.8786 173.445 70.8033 172.561 70.9239 171.529C71.0177 170.805 70.5353 169.921 69.8116 169.908C69.7446 169.908 68.6725 170.524 68.5519 171.14Z" fill="#FAE0B2"/>
<path d="M64.2891 190.908C64.3159 190.961 64.3427 191.015 64.3695 191.068L67.5723 197.487C68.4567 199.256 70.5472 200.047 72.3831 199.31L76.4436 197.675C78.2795 196.938 79.2443 194.914 78.6413 193.025C77.6764 189.956 76.8992 187.785 76.457 186.003L64.2891 190.908Z" fill="#96D9C9"/>
<path d="M50.6455 159.508L45.9553 154.175C45.4996 153.652 45.5532 152.875 46.0625 152.419C46.5851 151.963 47.3623 152.017 47.818 152.526L52.5082 157.86C52.9639 158.382 52.9103 159.16 52.401 159.615C51.8784 160.071 51.0878 160.017 50.6455 159.508Z" fill="#FAE0B2"/>
<path d="M46.6463 175.849L39.2491 176.84C38.5657 176.934 37.9358 176.452 37.8554 175.768C37.7616 175.085 38.244 174.455 38.9275 174.374L46.3247 173.383C47.0081 173.289 47.638 173.771 47.7184 174.455C47.7988 175.125 47.3298 175.755 46.6463 175.849Z" fill="#FAE0B2"/>
<path d="M44.4214 199.709C43.8451 199.333 43.6709 198.57 44.0462 197.993C45.4398 195.836 47.0479 193.786 48.8168 191.936C49.2859 191.44 50.0765 191.414 50.5723 191.896C51.0682 192.365 51.095 193.156 50.6125 193.652C48.9508 195.394 47.4366 197.31 46.1367 199.347C45.7749 199.91 44.9976 200.084 44.4214 199.709Z" fill="#FAE0B2"/>
<path d="M68.4888 155.168C67.8054 155.141 67.2693 154.565 67.2961 153.868C67.4301 150.612 67.2291 147.315 66.6797 144.099C66.5725 143.415 67.0281 142.772 67.6982 142.665C68.3816 142.558 69.0114 143.013 69.132 143.684C69.6949 147.074 69.9227 150.531 69.7753 153.962C69.7485 154.672 69.1722 155.195 68.4888 155.168Z" fill="#FAE0B2"/>
<path d="M78.0648 162.835C77.7298 162.232 77.9442 161.481 78.5338 161.133L85.5692 157.166C86.1723 156.831 86.9227 157.046 87.2711 157.635C87.6061 158.238 87.3917 158.989 86.8021 159.337L79.7667 163.304C79.1637 163.639 78.4132 163.438 78.0648 162.835Z" fill="#FAE0B2"/>
<path d="M94.9508 180.147C94.8436 180.174 94.723 180.187 94.6158 180.174C91.8418 180.026 89.0679 179.571 86.3743 178.834C85.7177 178.646 85.3156 177.963 85.5033 177.306C85.6909 176.649 86.3743 176.247 87.0309 176.435C89.5503 177.132 92.1366 177.547 94.7364 177.695C95.4198 177.735 95.9559 178.324 95.9157 179.008C95.8889 179.557 95.4734 180.026 94.9508 180.147Z" fill="#FAE0B2"/>
<path d="M85.7453 80.7783C68.7074 87.7939 63.1951 72.4872 63.6507 72.8516C63.3318 72.4872 60.7807 71.3938 59.1407 70.5738C52.3074 67.2027 52.5351 55.4038 52.6718 47.5682C42.8773 41.6004 40.4173 30.1658 47.114 23.1958C45.064 15.4513 44.6084 10.5313 51.5329 6.6135C56.7718 -2.54322 71.4863 0.554579 78.6386 7.75239C82.2375 11.3969 84.333 16.7269 84.2875 22.0569C92.6698 25.5192 97.0887 34.8125 95.1753 44.1515C106.519 53.4449 103.148 73.6261 85.7453 80.7783Z" fill="#13375B"/>
<path d="M22.9311 107.203C24.2977 105.836 26.7122 104.652 26.5755 104.47C25.9833 103.65 20.061 109.845 20.4255 108.068C20.6533 107.112 24.8899 102.055 26.4388 101.873C27.8966 101.691 37.4178 100.187 37.4178 100.187L59.3757 85.6094C59.3757 85.6094 60.469 68.3438 55.8223 56.727C60.9246 55.1782 61.9268 54.8593 67.1202 55.2237C70.1269 67.0226 73.3158 86.885 69.4435 92.6706C67.8035 95.085 39.2855 104.515 39.2855 104.515C39.2855 104.515 33.1355 106.838 31.9511 106.93C31.0855 106.975 28.6711 106.793 27.4866 106.975C24.7989 107.385 21.5188 111.348 21.291 110.893C21.1088 110.574 21.5188 108.57 22.9311 107.203Z" fill="#F48C7F"/>
<path d="M53.0802 55.3576C55.1302 51.5309 57.2713 48.5242 57.2713 48.5242C59.4124 44.6975 64.9247 42.7842 64.9247 42.7842C64.9247 42.7842 66.7925 42.8297 68.888 42.9208C69.0247 43.2853 69.1614 43.5131 69.298 43.6497C70.118 44.242 74.6736 43.4675 77.6348 45.472C87.5204 53.9909 84.787 95.2189 84.0126 108.248L59.3213 108.339C59.3213 108.339 57.6813 80.5044 51.5768 73.3066C47.2946 68.2954 50.0279 61.0065 53.0802 55.3576Z" fill="#F7CC7F"/>
<path d="M46.2888 200.407C46.0155 199.906 42.5988 191.661 39.7744 187.971C35.7199 182.595 0.505295 134.169 1.96308 122.37C2.60086 117.223 17.862 112.849 19.6387 112.53C29.3421 113.851 19.1376 122.188 26.4265 129.067C21.6887 130.707 18.9098 132.711 19.912 134.033C24.012 139.363 45.7877 182.367 46.7444 182.914C50.9811 185.374 52.6211 184.235 52.6211 184.235C52.6211 184.235 51.6644 208.425 49.66 207.651C47.7011 206.922 49.2955 205.92 46.2888 200.407Z" fill="#F48C7F"/>
<path d="M54.4453 184.372L50.3908 208.744C49.4797 211.888 47.9309 211.842 47.5209 211.432C46.7009 210.566 46.3364 204.052 46.2453 200.362C48.0675 194.713 47.8853 184.099 46.7919 182.914C49.5708 182.96 54.4453 183.871 54.4453 184.372Z" fill="#355389"/>
<path d="M39.9141 124.693C34.4474 115.627 34.7663 116.766 25.2451 112.712C21.4184 114.261 8.70836 122.233 7.06836 123.691L27.3407 138.405C26.6573 136.72 33.7185 128.565 39.9141 124.693Z" fill="#F7A491"/>
<path d="M66.6569 28.8458C66.6569 28.8458 67.9324 40.9181 69.4813 43.6059C70.028 44.5626 63.1035 52.6715 56.8624 54.5393C50.6212 56.4071 58.7757 48.1615 58.5024 45.1093C58.229 42.0115 57.0902 27.4336 57.0902 27.4336L66.6569 28.8458Z" fill="#F7A491"/>
<path d="M57.406 31.5769C57.2237 29.1624 57.0871 27.3857 57.0871 27.3857L66.6082 28.8435C66.6082 28.8435 66.836 30.2558 67.1094 32.2147C63.2827 34.4469 59.8204 33.7636 57.406 31.5769Z" fill="#F47458"/>
<path d="M63.6455 7.16135C63.6455 7.16135 67.4266 8.02692 69.75 11.5803C72.0733 15.1336 73.6678 25.6115 66.0144 30.4859C58.3611 35.3604 52.4388 28.4815 52.3022 21.7392C52.211 14.997 53.6688 5.9769 63.6455 7.16135Z" fill="#F7A491"/>
<path d="M50.587 19.5976C51.2248 21.2376 52.5459 22.2398 53.457 21.8298C54.4137 21.4654 54.6414 19.8254 54.0037 18.1854C53.3659 16.5453 52.0447 15.5431 51.1336 15.9531C50.177 16.3631 49.9036 18.0031 50.587 19.5976Z" fill="#F7A491"/>
<path d="M69.8563 20.9622C69.3096 22.6933 69.8108 24.4245 70.9952 24.8345C72.1797 25.1989 73.5918 24.1056 74.1385 22.3289C74.6852 20.5978 74.1841 18.8666 72.9996 18.4566C71.8152 18.0922 70.4485 19.1855 69.8563 20.9622Z" fill="#F7A491"/>
<path d="M41.0172 109.023C45.2539 108.613 59.2395 107.201 59.2395 107.201L84.0219 103.875C84.0219 103.875 88.3952 114.353 88.5774 120.913C88.8963 132.393 80.1951 136.721 71.1751 136.174C65.7995 135.855 34.0927 134.944 27.4415 138.315C26.2115 128.976 24.7993 118.817 18.5126 112.075C28.626 110.708 35.3227 109.569 41.0172 109.023Z" fill="#184655"/>
<path d="M40.691 195.67C40.0077 194.987 34.5865 157.768 31.3065 142.142C30.532 138.361 28.1176 135.172 24.7465 133.304L7.07083 123.646C0.920799 129.25 29.5298 192.162 32.1721 198.768C33.9943 203.324 35.0877 212.708 35.2243 213.255C36.6821 219.678 34.7688 220.225 36.591 221.591C38.4132 222.958 46.6133 199.451 46.6133 199.451C46.6133 199.451 44.2899 199.406 40.691 195.67Z" fill="#F7A491"/>
<path d="M46.0312 110.662C46.0312 111.619 45.1657 112.348 44.1179 112.348L14.0967 112.439C13.0489 112.439 11.9555 111.528 11.6366 110.389L12.1833 110.753C12.1833 109.797 13.0489 109.068 14.0967 109.068L44.1179 108.977C45.1657 108.931 46.0312 109.705 46.0312 110.662Z" fill="#355389"/>
<path d="M14.3605 111.803C14.5427 111.803 14.7249 111.803 14.9071 111.757C16.456 111.575 17.5038 110.573 17.1849 109.525L5.70489 69.8458C5.386 68.798 3.9282 68.1603 2.33375 68.3425C0.784851 68.5247 -0.262932 69.5269 0.0559578 70.5747L11.5361 110.254C11.8094 111.165 13.0394 111.803 14.3605 111.803Z" fill="#355389"/>
<path d="M23.2406 106.426C24.9717 105.56 27.6139 105.196 27.5684 104.922C27.295 103.966 19.6417 108.84 20.5528 107.337C21.0539 106.471 26.7484 102.143 28.2517 102.462C29.7095 102.736 39.1851 104.239 39.1851 104.239L63.603 95.4011C63.603 95.4011 68.2497 80.1854 67.4297 67.7031C72.7597 67.7942 76.4497 68.7054 81.3242 70.7098C80.5042 82.8277 77.4064 102.736 71.9397 107.018C69.6164 108.84 39.5951 108.931 39.5951 108.931C39.5951 108.931 32.9895 109.25 31.8962 108.931C31.0306 108.703 28.8439 107.792 27.6595 107.61C25.0172 107.2 20.6439 109.933 20.5528 109.432C20.4617 109.068 21.4639 107.291 23.2406 106.426Z" fill="#F7A491"/>
<path d="M65.6883 54.4931C66.0072 50.6664 66.5083 46.7942 70.4261 45.1086C72.8406 44.0609 75.7562 44.0609 77.9428 45.4731C80.5395 47.1587 81.5873 50.6209 81.9062 53.582C82.6807 60.3243 82.9995 67.3854 82.544 74.1732C77.715 72.1688 71.1095 73.2166 65.7795 73.1255C64.6406 67.2032 65.2328 59.5043 65.6883 54.4931Z" fill="#FAE0B2"/>
<path d="M26.8365 102.83C22.6454 103.877 22.8732 103.832 22.7365 103.923C19.7754 105.791 20.0032 106.565 24.5587 104.652C24.6954 104.606 24.7865 104.561 24.9232 104.561L27.0643 104.606C27.8843 104.606 28.2943 103.604 27.6565 103.012C27.4287 102.83 27.1554 102.739 26.8365 102.83Z" fill="#F7A491"/>
<path d="M35.0454 211.933C35.0454 211.933 34.6354 214.712 34.2254 217.263C33.8154 219.768 34.4532 223.868 35.3643 225.098C36.2754 226.328 47.0722 200.999 47.0722 200.999C47.4366 200.225 47.2088 199.314 46.571 198.767C45.5688 197.856 43.701 196.626 40.7399 195.715C40.7399 195.715 41.1955 208.744 35.0454 211.933Z" fill="#466EB6"/>
<path d="M438.808 97.8874C450.757 97.8874 460.444 88.2006 460.444 76.2513C460.444 64.302 450.757 54.6152 438.808 54.6152C426.859 54.6152 417.172 64.302 417.172 76.2513C417.172 88.2006 426.859 97.8874 438.808 97.8874Z" fill="#D67086"/>
<path d="M455.374 75.3203C453.96 72.0274 450.54 70.191 447.184 70.7609H447.163C446.107 71.0353 445.2 71.7108 444.714 72.8507C444.609 73.104 444.229 72.9562 444.334 72.7029C444.862 71.4786 445.812 70.7398 446.91 70.4021C446.171 66.4337 442.962 63.3308 439.078 63.2041C435.258 63.0986 431.859 65.8216 430.698 69.6633C431.015 69.7688 431.31 69.9166 431.585 70.1066C432.725 70.8243 433.548 71.9219 434.097 73.2095C434.202 73.4628 433.822 73.6317 433.717 73.3784C433.548 72.9562 433.337 72.5551 433.084 72.1752C432.155 70.782 430.698 69.8744 429.073 69.7688C427.427 69.6633 425.569 70.4021 424.345 71.5631C422.93 72.8718 422.044 74.7715 422.002 76.7768C421.959 78.7399 422.719 80.6608 424.07 81.9695C425.316 83.1938 426.857 83.8692 428.545 84.1225C429.643 84.2914 430.762 84.4181 431.859 84.5658C435.026 84.9458 438.192 85.3046 441.358 85.6423C442.751 85.7901 444.144 85.9379 445.537 86.1067C446.677 86.2334 447.881 86.4656 449.02 86.3389C452.778 85.9801 455.965 82.6872 456.028 78.5921C456.028 77.4734 455.817 76.3547 455.374 75.3203Z" fill="white"/>
<path d="M505.514 125.911C506.885 117.654 501.302 109.849 493.045 108.478C484.788 107.107 476.982 112.689 475.611 120.946C474.24 129.204 479.823 137.009 488.08 138.38C496.337 139.751 504.143 134.169 505.514 125.911Z" fill="#AA4F4F"/>
<path d="M491.64 132.46C492.675 132.067 493.197 130.91 492.805 129.874C492.412 128.839 491.255 128.317 490.219 128.709C489.183 129.102 488.662 130.259 489.054 131.295C489.447 132.331 490.604 132.852 491.64 132.46Z" fill="white"/>
<path d="M490.643 124.153C488.216 124.258 486.062 125.673 484.965 127.805L486.907 129.472C486.928 129.43 486.949 129.409 486.949 129.367C487.54 127.762 489.039 126.686 490.749 126.601C492.458 126.517 494.041 127.467 494.78 129.029C494.801 129.071 494.822 129.092 494.822 129.113L496.617 127.277C495.35 125.251 493.092 124.047 490.643 124.153Z" fill="white"/>
<path d="M490.449 119.742C486.797 119.911 483.526 121.81 481.562 124.871L483.441 126.496L483.462 126.475C484.961 123.921 487.6 122.338 490.555 122.211C493.425 122.085 496.17 123.394 497.9 125.715C497.943 125.758 497.985 125.821 498.027 125.863L499.737 124.111C497.542 121.198 494.08 119.594 490.449 119.742Z" fill="white"/>
<path d="M490.261 115.478C485.47 115.689 481.016 118.159 478.293 122.085L480.151 123.689C480.172 123.668 480.172 123.647 480.193 123.647C482.472 120.248 486.272 118.116 490.367 117.947C494.441 117.779 498.43 119.552 501.006 122.739C501.027 122.76 501.027 122.76 501.048 122.781L502.758 121.029C499.697 117.314 495.053 115.267 490.261 115.478Z" fill="white"/>
<path d="M480.648 208.594C487.819 201.422 487.819 189.795 480.648 182.623C473.476 175.451 461.848 175.451 454.677 182.623C447.505 189.795 447.505 201.422 454.677 208.594C461.848 215.765 473.476 215.765 480.648 208.594Z" fill="#D67086"/>
<path d="M474.017 199.241C472.813 199.579 471.863 200.402 471.357 201.458L464.243 199.262C464.412 197.911 464.011 196.603 463.209 195.589L468.423 190.228C468.887 190.523 469.415 190.713 469.964 190.819C472.222 191.199 474.375 189.658 474.755 187.399C475.135 185.141 473.594 183.009 471.315 182.629C469.056 182.249 466.903 183.79 466.523 186.048C466.354 187.019 466.544 187.969 467.009 188.75L461.647 194.281C461.162 194.027 460.634 193.837 460.064 193.732C457.32 193.289 454.723 195.125 454.28 197.848C453.837 200.571 455.694 203.167 458.439 203.611C460.528 203.948 462.534 202.956 463.568 201.268L470.914 203.526C470.914 204.159 471.104 204.75 471.399 205.278C472.307 207.03 474.333 207.959 476.296 207.41C478.534 206.777 479.864 204.455 479.23 202.196C478.576 199.917 476.254 198.608 474.017 199.241Z" fill="white"/>
</svg>
