<svg width="21" height="22" viewBox="0 0 21 22" fill="none" xmlns="http://www.w3.org/2000/svg">
<g clip-path="url(#clip0_3484_2651)">
<path d="M19.714 16.5714V21.0714H17.1426V17V16.5714H19.714Z" fill="#808080"/>
<path d="M12.0003 18.5H9.00025V21.0714H3.85742V17H5.14314H7.71457H9.21455H11.786H13.286H15.8574H17.1431V21.0714H12.0003V18.5ZM15.8574 19.7857V18.2857H14.1431V19.7857H15.8574ZM6.85743 19.7857V18.2857H5.14314V19.7857H6.85743Z" fill="#A67C52"/>
<path d="M17.1431 16.5715V17H15.8574V14.4286H13.286V17H11.786V14.4286H9.21455V17H7.71457V14.4286H5.14314V17H3.85742V16.5715V13.1429H17.1431V16.5715Z" fill="#8C6239"/>
<path d="M17.1431 11.8571V13.1428H3.85742V11.8571H5.14314H7.71457H9.21455H11.786H13.286H15.8574H17.1431Z" fill="#C69C6D"/>
<path d="M17.1431 7.78571V11.8571H15.8574V9.28569H13.286V11.8571H11.786V9.28569H9.21455V11.8571H7.71457V9.28569H5.14314V11.8571H3.85742V7.78571H5.14314H7.71457H9.21455H11.786H13.286H15.8574H17.1431Z" fill="#A67C52"/>
<path d="M17.1431 3.92859V7.78574H15.8574V5.21431H13.286V7.78574H11.786V5.21431H9.21455V7.78574H7.71457V5.21431H5.14314V7.78574H3.85742V3.92859H10.286H17.1431Z" fill="#8C6239"/>
<path d="M17.1423 0.928589H10.2852V3.9286H17.1423V0.928589Z" fill="#C69C6D"/>
<path d="M15.8569 18.2857H14.1426V19.7857H15.8569V18.2857Z" fill="#F2F2F2"/>
<path d="M15.8566 14.4286H13.2852V17H15.8566V14.4286Z" fill="#F2F2F2"/>
<path d="M15.8566 9.28571H13.2852V11.8571H15.8566V9.28571Z" fill="#F2F2F2"/>
<path d="M15.8566 5.21429H13.2852V7.78573H15.8566V5.21429Z" fill="#F2F2F2"/>
<path d="M12 18.5H9V21.0714H12V18.5Z" fill="#F2F2F2"/>
<path d="M11.7863 14.4286H9.21484V17H11.7863V14.4286Z" fill="#F2F2F2"/>
<path d="M11.7863 9.28571H9.21484V11.8571H11.7863V9.28571Z" fill="#F2F2F2"/>
<path d="M11.7863 5.21429H9.21484V7.78573H11.7863V5.21429Z" fill="#F2F2F2"/>
<path d="M7.71401 14.4286H5.14258V17H7.71401V14.4286Z" fill="#F2F2F2"/>
<path d="M7.71401 9.28571H5.14258V11.8571H7.71401V9.28571Z" fill="#F2F2F2"/>
<path d="M7.71401 5.21429H5.14258V7.78573H7.71401V5.21429Z" fill="#F2F2F2"/>
<path d="M6.85687 18.2857H5.14258V19.7857H6.85687V18.2857Z" fill="#F2F2F2"/>
<path d="M3.85659 17V21.0714H1.28516V16.5714H3.85659V17Z" fill="#808080"/>
<path d="M20.0357 20.75V16.25H17.4643V4.25V3.92856V0.607117H9.96429V3.60712H3.53571V16.25H0.964277V20.75H0V21.3928H21V20.75H20.0357ZM16.8214 8.10711V11.5357H16.1786V8.96426H12.9643V11.5357H12.1072V8.96426H8.89289V11.5357H8.03574V8.96426H4.82147V11.5357H4.17863V8.10711H16.8214ZM5.46427 7.46427V5.53572H7.39282V7.46427H5.46427ZM9.53572 7.46427V5.53572H11.4643V7.46427H9.53572ZM13.6071 7.46427V5.53572H15.5357V7.46427H13.6071ZM15.5357 9.60713V11.5357H13.6071V9.60713H15.5357ZM11.4643 9.60713V11.5357H9.53572V9.60713H11.4643ZM7.39286 9.60713V11.5357H5.46431V9.60713H7.39286ZM16.8214 12.1786V12.8214H4.17859V12.1786H16.8214ZM10.6071 1.25H16.8214V3.60712H10.6071V1.25ZM16.8214 4.25V7.46427H16.1786V4.89284H12.9643V7.46427H12.1072V4.89284H8.89289V7.46427H8.03574V4.89284H4.82147V7.46427H4.17863V4.25H16.8214ZM4.17859 13.4643H16.8215V16.6786H16.1786V14.1071H12.9643V16.6786H12.1072V14.1071H8.89293V16.6786H8.03578V14.1071H4.82151V16.6786H4.17867V13.4643H4.17859ZM15.5357 14.75V16.6786H13.6071V14.75H15.5357ZM11.4643 14.75V16.6786H9.53572V14.75H11.4643ZM7.39286 14.75V16.6786H5.46431V14.75H7.39286ZM3.53571 20.75H1.60716V16.8928H3.53571V20.75ZM9.32142 20.75V18.8214H10.1786V19.7857H10.8214V18.8214H11.6785V20.75H9.32142ZM12.3214 20.75V18.8214H13.0714V18.1785H7.92857V18.8214H8.67858V20.7499H4.17859V17.3214H16.8215V20.7499H12.3214V20.75ZM19.3928 20.75H17.4643V16.8928H19.3928V20.75Z" fill="black"/>
<path d="M12.2146 2.10718H11.3574V2.75002H12.2146V2.10718Z" fill="black"/>
<path d="M13.4997 2.10718H12.6426V2.75002H13.4997V2.10718Z" fill="black"/>
<path d="M14.7849 2.10718H13.9277V2.75002H14.7849V2.10718Z" fill="black"/>
<path d="M16.072 2.10718H15.2148V2.75002H16.072V2.10718Z" fill="black"/>
<path d="M4.82227 20.1072H7.17939V17.9643H4.82227V20.1072ZM5.4651 18.6071H6.53651V19.4643H5.4651V18.6071Z" fill="black"/>
<path d="M13.8223 20.1072H16.1794V17.9643H13.8223V20.1072ZM14.4651 18.6071H15.5365V19.4643H14.4651V18.6071Z" fill="black"/>
</g>
<defs>
<clipPath id="clip0_3484_2651">
<rect width="21" height="21" fill="white" transform="translate(0 0.5)"/>
</clipPath>
</defs>
</svg>
