<svg width="19" height="19" viewBox="0 0 19 19" fill="none" xmlns="http://www.w3.org/2000/svg">
<path d="M9.48812 0.748047C8.34052 0.748047 7.20415 0.974085 6.1439 1.41325C5.08365 1.85242 4.12028 2.49613 3.3088 3.30761C1.66994 4.94646 0.749241 7.16923 0.749241 9.48693C0.741601 11.5049 1.44031 13.4618 2.72423 15.0186L0.976452 16.7664C0.855193 16.8893 0.773051 17.0454 0.74039 17.2149C0.70773 17.3844 0.726014 17.5598 0.792935 17.719C0.865519 17.8762 0.983185 18.0083 1.131 18.0986C1.27881 18.1888 1.4501 18.2331 1.62313 18.2258H9.48812C11.8058 18.2258 14.0286 17.3051 15.6674 15.6663C17.3063 14.0274 18.227 11.8046 18.227 9.48693C18.227 7.16923 17.3063 4.94646 15.6674 3.30761C14.0286 1.66875 11.8058 0.748047 9.48812 0.748047ZM9.48812 16.478H3.7292L4.54192 15.6653C4.70468 15.5016 4.79604 15.2801 4.79604 15.0492C4.79604 14.8184 4.70468 14.5969 4.54192 14.4331C3.39763 13.2901 2.68506 11.7857 2.52559 10.1762C2.36612 8.56677 2.76962 6.95178 3.66735 5.60645C4.56508 4.26111 5.9015 3.26865 7.44892 2.79817C8.99634 2.32768 10.659 2.40826 12.1537 3.0262C13.6483 3.64413 14.8825 4.76118 15.6459 6.18703C16.4093 7.61288 16.6548 9.25932 16.3404 10.8458C16.026 12.4323 15.1713 13.8608 13.9218 14.8878C12.6724 15.9148 11.1055 16.4768 9.48812 16.478Z" fill="#65B891"/>
<path d="M9.48812 0.748047C8.34052 0.748047 7.20415 0.974085 6.1439 1.41325C5.08365 1.85242 4.12028 2.49613 3.3088 3.30761C1.66994 4.94646 0.749241 7.16923 0.749241 9.48693C0.741601 11.5049 1.44031 13.4618 2.72423 15.0186L0.976452 16.7664C0.855193 16.8893 0.773051 17.0454 0.74039 17.2149C0.70773 17.3844 0.726014 17.5598 0.792935 17.719C0.865519 17.8762 0.983185 18.0083 1.131 18.0986C1.27881 18.1888 1.4501 18.2331 1.62313 18.2258H9.48812C11.8058 18.2258 14.0286 17.3051 15.6674 15.6663C17.3063 14.0274 18.227 11.8046 18.227 9.48693C18.227 7.16923 17.3063 4.94646 15.6674 3.30761C14.0286 1.66875 11.8058 0.748047 9.48812 0.748047ZM9.48812 16.478H3.7292L4.54192 15.6653C4.70468 15.5016 4.79604 15.2801 4.79604 15.0492C4.79604 14.8184 4.70468 14.5969 4.54192 14.4331C3.39763 13.2901 2.68506 11.7857 2.52559 10.1762C2.36612 8.56677 2.76962 6.95178 3.66735 5.60645C4.56508 4.26111 5.9015 3.26865 7.44892 2.79817C8.99634 2.32768 10.659 2.40826 12.1537 3.0262C13.6483 3.64413 14.8825 4.76118 15.6459 6.18703C16.4093 7.61288 16.6548 9.25932 16.3404 10.8458C16.026 12.4323 15.1713 13.8608 13.9218 14.8878C12.6724 15.9148 11.1055 16.4768 9.48812 16.478Z" fill="black" fill-opacity="0.2"/>
</svg>
