<svg width="16" height="16" viewBox="0 0 16 16" fill="none" xmlns="http://www.w3.org/2000/svg">
<path d="M3.33333 12.6663H4.26667L10.0167 6.91634L9.08333 5.98301L3.33333 11.733V12.6663ZM12.8667 5.94967L10.0333 3.14967L10.9667 2.21634C11.2222 1.96079 11.5362 1.83301 11.9087 1.83301C12.2807 1.83301 12.5944 1.96079 12.85 2.21634L13.7833 3.14967C14.0389 3.40523 14.1722 3.71367 14.1833 4.07501C14.1944 4.4359 14.0722 4.74412 13.8167 4.99967L12.8667 5.94967ZM2.66667 13.9997C2.47778 13.9997 2.31956 13.9357 2.192 13.8077C2.064 13.6801 2 13.5219 2 13.333V11.4497C2 11.3608 2.01667 11.2748 2.05 11.1917C2.08333 11.1081 2.13333 11.033 2.2 10.9663L9.06667 4.09967L11.9 6.93301L5.03333 13.7997C4.96667 13.8663 4.89178 13.9163 4.80867 13.9497C4.72511 13.983 4.63889 13.9997 4.55 13.9997H2.66667ZM9.55 6.44967L9.08333 5.98301L10.0167 6.91634L9.55 6.44967Z" fill="#65655E"/>
</svg>
