<svg width="6" height="6" viewBox="0 0 16 16" fill="none" xmlns="http://www.w3.org/2000/svg">
<path d="M1.33301 5.33333C1.33301 5.33333 4.31777 2 7.99967 2C11.6815 2 14.6663 5.33333 14.6663 5.33333" stroke="#65655E" strokeWidth="1.5" strokeLinecap="round"/>
<path d="M14.3623 8.69602C14.565 8.98022 14.6663 9.12235 14.6663 9.33268C14.6663 9.54302 14.565 9.68515 14.3623 9.96935C13.4516 11.2464 11.1258 13.9993 7.99967 13.9993C4.87353 13.9993 2.54774 11.2464 1.63703 9.96935C1.43435 9.68515 1.33301 9.54302 1.33301 9.33268C1.33301 9.12235 1.43435 8.98022 1.63703 8.69602C2.54774 7.41895 4.87353 4.66602 7.99967 4.66602C11.1258 4.66602 13.4516 7.41895 14.3623 8.69602Z" stroke="#65655E" strokeWidth="1.5"/>
<path d="M10 9.33398C10 8.22938 9.1046 7.33398 8 7.33398C6.8954 7.33398 6 8.22938 6 9.33398C6 10.4386 6.8954 11.334 8 11.334C9.1046 11.334 10 10.4386 10 9.33398Z" stroke="#65655E" strokeWidth="1.5"/>
</svg>
