<svg width="24" height="24" viewBox="0 0 24 24" fill="none" xmlns="http://www.w3.org/2000/svg">
<path d="M21 12V20C21 20.2652 20.8946 20.5196 20.7071 20.7071C20.5196 20.8946 20.2652 21 20 21H4C3.73478 21 3.48043 20.8946 3.29289 20.7071C3.10536 20.5196 3 20.2652 3 20V4C3 3.73478 3.10536 3.48043 3.29289 3.29289C3.48043 3.10536 3.73478 3 4 3H12" stroke="#787878" strokeLinecap="round" strokeLinejoin="round"/>
<path d="M16 3H20.44C20.5885 3 20.731 3.059 20.836 3.16402C20.941 3.26904 21 3.41148 21 3.56V8" stroke="#787878" strokeLinecap="round" strokeLinejoin="round"/>
<path d="M20.84 3.16L12 12" stroke="#787878" strokeLinecap="round" strokeLinejoin="round"/>
</svg>
