<svg width="24" height="24" viewBox="0 0 24 24" fill="none" xmlns="http://www.w3.org/2000/svg">
<path d="M8 6L12 2L16 6" stroke="#787878" strokeLinecap="round" strokeLinejoin="round"/>
<path d="M16 10H18C18.2652 10 18.5196 10.1054 18.7071 10.2929C18.8946 10.4804 19 10.7348 19 11V20C19 20.2652 18.8946 20.5196 18.7071 20.7071C18.5196 20.8946 18.2652 21 18 21H6C5.73478 21 5.48043 20.8946 5.29289 20.7071C5.10536 20.5196 5 20.2652 5 20V11C5 10.7348 5.10536 10.4804 5.29289 10.2929C5.48043 10.1054 5.73478 10 6 10H8" stroke="#787878" strokeLinecap="round" strokeLinejoin="round"/>
<path d="M12 2V15" stroke="#787878" strokeLinecap="round" strokeLinejoin="round"/>
</svg>
