<svg width="675" height="469" viewBox="0 0 675 469" fill="none" xmlns="http://www.w3.org/2000/svg">
<g clip-path="url(#clip0_2303_12391)">
<path d="M63.8004 123.218C63.8004 123.218 62.6719 137.857 68.1647 147.184C73.6575 156.511 70.0351 174.206 60.3463 182.242C50.6575 190.279 67.641 195.422 70.7085 194.799C73.776 194.175 65.8454 200.865 65.8454 200.865C65.8454 200.865 64.5984 205.897 67.8592 206.982C71.12 208.067 67.2357 210.099 67.2357 210.099C67.2357 210.099 66.0324 214.32 70.4965 214.463C74.9606 214.607 77.3548 223.273 76.2824 227.856C75.21 232.438 80.4285 236.528 85.1108 236.042C85.1108 236.042 94.8807 236.89 100.074 234.477C105.268 232.064 116.958 232.787 117.563 233.149C118.168 233.511 125.163 245.818 124.197 253.78C123.23 261.742 129.87 268.251 129.87 268.251L181.737 255.226L173.793 244.819C173.443 244.576 154.239 226.636 149.009 222.062C147.494 215.996 136.834 222.145 138.281 188.047C138.281 188.047 139.571 179.842 147.77 164.567C147.77 164.567 153.922 146.932 143.472 141.945C143.472 141.945 134.878 137.034 127.153 148.294C127.153 148.294 125.542 153.404 122.724 162.089C122.724 162.089 118.18 168.426 103.304 159.579C103.304 159.579 77.8909 144.142 75.4781 112.294C75.4781 112.294 75.6402 103.927 76.5629 100.448C77.4857 96.9693 66.399 103.493 63.8004 123.218Z" fill="#DA7559"/>
<path d="M81.2453 208.865L67.6598 199.656C67.1417 199.756 66.6696 200.021 66.3137 200.411C65.9577 200.8 65.7367 201.294 65.6834 201.819C65.4465 203.69 65.6834 206.408 67.8593 206.975C70.0352 207.543 69.2684 208.179 68.0588 209.183C66.8493 210.186 65.7083 213.435 69.5365 214.345C73.3646 215.255 81.2453 208.865 81.2453 208.865Z" fill="#C81101" stroke="url(#paint0_linear_2303_12391)" stroke-width="0.366606" stroke-miterlimit="10"/>
<path d="M124.19 253.78C124.19 253.78 129.178 258.612 172.634 245.051L226.191 281.35L230.424 474.827H59.2925C59.2925 474.827 62.971 376.05 120.736 283.489C120.736 283.489 125.4 287.753 121.459 257.596C121.459 257.596 120.755 254.26 124.19 253.78Z" fill="#D2DBEA"/>
<path d="M195.017 260.052L226.814 281.736L200.429 474.808H104.008C104.008 474.808 177.011 267.378 195.017 260.052Z" fill="#C7006D"/>
<path d="M67.9589 474.677L59.2738 474.808C59.2738 474.808 55.4145 390.527 120.069 284.523C120.069 284.523 122.027 281.238 122.133 283.008C122.239 284.779 119.707 313.727 117.058 322.412C114.408 331.097 99.4444 364.079 98.8396 367.733C98.2349 371.386 77.629 432.73 67.9589 474.677Z" fill="#C7006D"/>
<path d="M115.911 444.084L190.859 361.417L161.262 336.004H205.336L202.399 266.106" stroke="#414042" stroke-width="0.733213" stroke-linejoin="round"/>
<path d="M75.534 445.274L86.4636 358.212L105.168 349.122C105.241 349.083 105.299 349.022 105.333 348.947C105.367 348.872 105.376 348.788 105.358 348.707C105.339 348.627 105.295 348.555 105.231 348.502C105.167 348.45 105.088 348.42 105.006 348.417H94.6748L119.545 288.395" stroke="#414042" stroke-width="0.733213" stroke-linejoin="round"/>
<path d="M79.3188 165.527C79.3188 177.217 76.0206 186.694 71.9493 186.694C69.4055 186.694 67.161 182.997 65.8392 177.342C64.9753 173.453 64.557 169.479 64.5923 165.496C64.5923 157.334 66.2009 150.252 68.5514 146.723C69.5739 145.189 70.7335 144.329 71.9618 144.329C76.0206 144.36 79.3188 153.837 79.3188 165.527Z" stroke="#FFD8B7" stroke-width="1.46643" stroke-miterlimit="10"/>
<path d="M63.7008 126.516C63.7008 126.516 61.7244 107.456 76.426 88.6397C91.1275 69.8231 127.327 56.7925 158.207 64.9974C189.088 73.2024 204.968 83.7355 217.837 108.344C230.705 132.953 235.417 282.655 235.417 282.655C235.417 282.655 228.691 296.968 148.992 226.74C148.992 226.74 123.642 209.762 144.223 171.556C144.223 171.556 153.064 150.981 142.209 145.239C131.354 139.497 125.344 158.955 124.166 163.694C122.987 168.432 71.17 161.094 75.6965 100.018C75.6965 100.031 66.0201 110.006 63.7008 126.516Z" fill="black"/>
<path d="M139.659 172.653C121.865 179.168 122.407 195.354 122.407 195.354C122.407 208.191 133.15 218.591 146.398 218.591C159.647 218.591 170.396 208.191 170.396 195.354C170.396 195.354 171.68 174.206 146.186 173.532" stroke="#EEB869" stroke-width="1.46643" stroke-miterlimit="10" stroke-linecap="round"/>
<path d="M182.753 98.1601C182.753 98.1601 170.851 105.717 167.79 115.692C164.729 125.668 167.79 135.793 169.879 141.423C171.967 147.053 178.246 159.76 171.331 168.282C171.331 168.282 171.169 171.599 162.422 180.284C162.422 180.284 156.873 191.021 173.7 192.049C173.7 192.049 175.509 192.71 173.401 194.462C171.294 196.214 169.723 197.717 169.723 197.717C169.77 199.673 169.989 201.622 170.377 203.54C170.402 203.645 170.446 203.745 170.508 203.833L171.755 205.498C171.755 205.498 170.371 208.696 170.371 209.419C170.371 210.143 170.552 213.216 174.53 213.16C178.507 213.104 180.503 221.184 179.96 226.01C179.418 230.836 181.831 236.865 196.725 234.115C211.62 231.366 212.531 229.234 219.888 231.621C227.245 234.009 228.573 254.416 228.573 254.416L233.28 264.79L267.297 261.05L269.965 254.378L225.935 89.606C225.935 89.606 184.443 94.7684 182.753 98.1601Z" fill="#833930"/>
<path d="M225.698 255.949L317.474 243.362C317.474 243.362 336.515 268.612 338.766 274.567C341.017 280.521 342.949 474.808 342.949 474.808H160.078C160.078 474.808 227.949 281.961 227.949 275.851C227.949 270.24 223.934 261.311 224.557 257.103C224.597 256.813 224.73 256.544 224.936 256.336C225.142 256.128 225.409 255.993 225.698 255.949Z" fill="#D5302E"/>
<path d="M154.285 474.808H176.481L225.917 283.333C225.917 283.333 201.57 318.559 186.856 360.538C172.142 402.516 154.285 474.808 154.285 474.808Z" fill="#F0C40E"/>
<path d="M314.637 238.012L271.773 306.969L225.923 413.122L199.643 474.802H297.835L337.413 271.879L314.637 238.012Z" fill="#F0C40E"/>
<path d="M218.703 440.866L292.043 360.531L262.851 333.267H308.932L305.073 258.961" stroke="#414042" stroke-width="0.733213" stroke-miterlimit="10" stroke-linecap="round"/>
<path d="M289.873 345.811L299.761 368.25V374.765L298.558 344.122" stroke="#414042" stroke-width="0.733213" stroke-miterlimit="10" stroke-linecap="round"/>
<path d="M177.448 442.157L190.104 357.364L206.52 346.765C206.675 346.706 206.8 346.589 206.868 346.438C206.936 346.287 206.941 346.115 206.882 345.961C206.823 345.806 206.706 345.681 206.555 345.613C206.404 345.546 206.232 345.541 206.078 345.599L196.588 346.927L221.141 290.658" stroke="#414042" stroke-width="0.733213" stroke-miterlimit="10" stroke-linecap="round"/>
<path d="M226.79 217.543C241.066 217.543 252.639 206.4 252.639 192.654C252.639 178.908 241.066 167.765 226.79 167.765C212.513 167.765 200.94 178.908 200.94 192.654C200.94 206.4 212.513 217.543 226.79 217.543Z" stroke="#F0C40E" stroke-width="1.46643" stroke-miterlimit="10"/>
<path d="M172.217 106.889C172.217 106.889 172.703 98.4469 177.691 95.6662C177.691 95.6662 193.053 75.7149 215.33 70.6585C237.607 65.6022 259.478 64.9039 271.119 68.944C282.759 72.9841 284.212 72.105 297.055 88.5461C309.899 104.987 342.956 235.836 342.956 235.836C342.956 235.836 322.45 254.173 306.04 255.619C289.63 257.065 274.242 260.925 257.589 244.758C257.589 244.758 250.189 236.198 247.414 229.402C244.64 222.606 238.972 215.062 226.266 211.627C213.559 208.191 199.406 195.784 200.248 166.836C203.023 137.533 211.708 132.258 203.827 109.258C203.821 109.227 187.498 84.0571 172.217 106.889Z" fill="black"/>
<path d="M184.767 206.29C184.767 206.29 175.477 197.293 171.412 196.881C169.28 196.663 166.188 199.176 171.774 205.467C171.774 205.467 168.32 210.598 172.217 212.082C176.113 213.566 184.767 206.29 184.767 206.29Z" fill="#BC1B10" stroke="url(#paint1_linear_2303_12391)" stroke-width="0.733213" stroke-miterlimit="10"/>
<path d="M308.203 86.47C308.203 86.47 290.596 92.499 282.641 118.074C282.641 118.074 279.623 136.891 286.138 145.214C286.138 145.214 291.326 154.622 289.755 161.138C288.183 167.653 282.154 177.18 279.505 178.146C276.855 179.112 275.402 191.657 283.364 191.775C291.326 191.894 288.794 195.03 288.794 195.03C288.794 195.03 284.929 197.567 284.929 198.29C284.929 199.014 282.641 204.924 288.551 205.772C288.551 205.772 286.862 207.705 287.223 209.993C287.585 212.281 287.703 213.254 290.341 214.22C292.978 215.187 294.562 215.785 295.166 222.057C295.771 228.33 296.974 234.003 302.885 235.325C308.796 236.647 324.208 231.946 324.208 231.946C324.208 231.946 331.69 229.651 335.686 231.459C335.686 231.459 340.63 233.031 342.195 245.799C343.76 258.568 348.23 270.283 347.264 278.002C346.298 285.721 344.608 296.083 336.166 315.878L330.86 370.887L430.741 270.508L374.31 86.47C374.31 86.47 321.047 77.336 308.203 86.47Z" fill="#B8624B"/>
<path d="M300.809 207.175C300.809 207.175 285.901 192.991 284.598 202.455C284.598 202.455 283.931 204.681 288.557 205.766C288.557 205.766 285.122 209.133 287.423 212.256C289.723 215.38 298.396 209.264 300.809 207.175Z" fill="#92483A" stroke="url(#paint2_linear_2303_12391)" stroke-width="0.733213" stroke-miterlimit="10"/>
<path d="M345.992 265.152L329.676 266.686C329.676 266.686 334.745 284.735 335.711 290.671C336.677 296.606 307.48 395.028 307.48 395.028L336.914 399.854L420.61 276.562L396.294 258.001L348.766 263.787C348.766 263.787 348.449 283.975 349.334 290.328C350.219 296.681 349.814 309.226 333.448 351.728C333.448 351.728 336.783 321.358 336.023 317.985C335.262 314.612 347.326 288.37 347.002 285.502C346.971 285.502 348.592 275.408 345.992 265.152Z" fill="#EEEEED"/>
<path d="M283.276 474.808H449.582L437.998 289.362C437.998 289.362 425.778 265.882 418.047 272.316C410.316 278.75 321.876 376.231 321.876 376.231L335.711 290.69C335.711 290.69 294.536 386.206 283.276 474.808Z" fill="#983CE7"/>
<path d="M405.191 347.258L413.234 365.594" stroke="url(#paint3_linear_2303_12391)" stroke-width="0.733213" stroke-miterlimit="10"/>
<path d="M422.237 95.3919C419.668 94.7684 403.258 63.2268 374.952 66.1197C374.952 66.1197 334.102 59.3674 300.809 87.0311C300.809 87.0311 286.469 114.053 303.864 135.282C321.259 156.511 340.212 165.521 350.182 165.832C360.151 166.144 361.859 163.906 362.614 161.331C363.368 158.756 363.237 144.497 369.123 143.156C375.008 141.816 381.91 141.828 382.877 150.994C383.843 160.159 377.783 167.329 372.427 170.564C367.072 173.8 364.416 175.004 364.54 182.479C364.665 189.955 365.787 238.754 379.136 250.382C379.136 250.382 389.735 270.857 415.485 274.56C415.485 274.56 423.041 276.811 431.888 282.921C440.735 289.031 487.702 230.487 487.702 230.487L422.237 95.3919Z" fill="#180228"/>
<path d="M367.863 179.711C371.021 179.711 373.581 177.151 373.581 173.994C373.581 170.836 371.021 168.276 367.863 168.276C364.706 168.276 362.146 170.836 362.146 173.994C362.146 177.151 364.706 179.711 367.863 179.711Z" fill="#0DB897"/>
<path d="M365.819 183.028H369.909C370.759 183.028 371.574 183.365 372.175 183.966C372.776 184.567 373.113 185.382 373.113 186.232V213.366H362.614V186.232C362.614 185.382 362.952 184.567 363.553 183.966C364.154 183.365 364.969 183.028 365.819 183.028Z" fill="#0FB49C"/>
<path d="M391.786 102.63C389.75 105.73 388.021 109.021 386.624 112.456C384.928 116.615 383.507 121.609 383.725 126.435C384.211 137.857 387.746 143.967 387.746 143.967C387.746 143.967 395.789 157.958 388.875 167.447C381.96 176.936 379.523 176.799 379.385 181.12C379.248 185.441 378.718 190.179 390.271 191.925C390.271 191.925 388.282 195.36 386.805 196.389C385.327 197.418 385.053 202.811 388.052 204.98C391.051 207.15 386.867 211.215 391.793 212.761C396.718 214.308 397.485 217.469 396.999 226.758C396.999 226.758 400.259 235.443 407.598 233.997C414.936 232.55 413.028 235.319 426.657 230.256C426.657 230.256 435.586 228.205 438.722 231.098C441.858 233.991 445.717 246.18 446.44 261.025C447.163 275.87 521.956 259.217 521.956 259.217L508.925 219.171L427.15 74.8047C427.15 74.8047 410.79 80.5968 391.786 102.63Z" fill="#A23530"/>
<path d="M474.646 214.015C483.375 214.015 490.451 206.938 490.451 198.209C490.451 189.48 483.375 182.404 474.646 182.404C465.917 182.404 458.841 189.48 458.841 198.209C458.841 206.938 465.917 214.015 474.646 214.015Z" fill="#F23F16"/>
<path d="M386.082 112.282C386.082 112.282 382.758 101.826 405.758 79.4558C405.758 79.4558 419.918 66.9115 443.074 62.5721C443.074 62.5721 457.551 60.2403 470.98 52.8396C470.98 52.8396 504.997 40.7753 518.364 45.6011C531.732 50.4268 541.689 56.1378 548.765 62.2479C555.842 68.3579 564.845 73.5079 571.921 80.2601C578.998 87.0124 595.725 104.389 600.875 109.532C606.025 114.676 619.53 143.954 614.386 168.401C609.242 192.847 596.667 206.695 566.117 213.771C535.566 220.848 533.303 219.239 512.074 213.771C512.074 213.771 510.827 219.345 509.823 218.491C473.954 187.791 413.988 116.783 413.988 116.783C413.988 116.783 404.836 111.153 386.082 112.282Z" fill="#E36D0B"/>
<path d="M419.918 98.0479C419.918 98.0479 445.48 105.286 484.086 180.072" stroke="url(#paint4_linear_2303_12391)" stroke-width="0.54991" stroke-miterlimit="10"/>
<path d="M417.262 107.936C417.262 107.936 408.814 100.218 390.359 98.0479" stroke="url(#paint5_linear_2303_12391)" stroke-width="0.54991" stroke-miterlimit="10"/>
<path d="M494.703 187.317C494.703 187.317 507.509 208.89 513.046 214.027" stroke="url(#paint6_linear_2303_12391)" stroke-width="0.54991" stroke-miterlimit="10"/>
<path d="M454.015 59.8911C454.015 59.8911 472.265 76.1015 479.503 87.4301C486.742 98.7587 492.291 138.094 496.393 178.146" stroke="url(#paint7_linear_2303_12391)" stroke-width="0.54991" stroke-miterlimit="10"/>
<path d="M517.623 214.021C517.623 214.021 564.907 203.715 560.805 143.163" stroke="url(#paint8_linear_2303_12391)" stroke-width="0.54991" stroke-miterlimit="10"/>
<path d="M568.043 162.946C568.043 162.946 565.68 191.825 536.925 204.45" stroke="url(#paint9_linear_2303_12391)" stroke-width="0.54991" stroke-miterlimit="10"/>
<path d="M590.962 131.529C590.962 131.529 614.935 182.03 584.615 207.692" stroke="url(#paint10_linear_2303_12391)" stroke-width="0.54991" stroke-miterlimit="10"/>
<path d="M500.714 151.156C500.714 151.156 496.287 104.626 477.265 84.2192" stroke="url(#paint11_linear_2303_12391)" stroke-width="0.54991" stroke-miterlimit="10"/>
<path d="M514.991 44.4726C514.991 44.4726 553.597 65.2343 550.698 90.5662" stroke="url(#paint12_linear_2303_12391)" stroke-width="0.54991" stroke-miterlimit="10"/>
<path d="M552.487 107.936C552.487 107.936 549.626 174.524 532.898 198.652" stroke="url(#paint13_linear_2303_12391)" stroke-width="0.54991" stroke-miterlimit="10"/>
<path d="M425.703 254.946C425.703 254.946 431.496 250.176 444.04 250.388C456.584 250.6 462.214 242.239 516.737 236.447L527.031 234.514C527.031 234.514 537.63 272.958 545.205 277.622C552.78 282.285 599.959 322.175 599.959 322.175C599.959 322.175 606.325 326.353 609.86 330.536C613.395 334.72 611.312 355.787 605.838 364.634C605.838 364.634 621.762 415.46 615.976 474.808H373.113C373.113 474.808 403.271 379.111 408.333 362.221C413.396 345.331 427.873 327.481 429.806 284.536C429.806 284.536 430.529 269.741 425.703 254.946Z" fill="#1564C1"/>
<path d="M578.056 328.809C578.056 328.809 589.515 332.55 592.651 339.184C595.788 345.817 604.497 366.442 604.497 366.442C604.497 366.442 613.787 355.693 610.77 332.238C610.77 332.238 609.354 328.79 601.193 322.886C593.032 316.982 578.056 328.809 578.056 328.809Z" fill="#6F072B"/>
<path d="M584.615 328.447C584.615 328.447 569.334 333.591 549.869 345.973C530.404 358.355 491.811 434.438 480.869 473.356L385.658 474.808C385.658 474.808 409.78 406.781 423.615 384.897C423.615 384.897 452.887 330.536 462.538 322.175C462.538 322.175 474.422 306.089 495.177 294.512C515.933 282.934 545.841 278.033 545.841 278.033L602.515 323.977C602.515 323.977 586.23 327.861 584.615 328.447Z" fill="#C44705"/>
<path d="M529.768 401.943V474.802" stroke="url(#paint14_linear_2303_12391)" stroke-width="1.46643" stroke-miterlimit="10"/>
<path d="M524.138 405.484C524.138 405.484 523.976 416.906 529.749 422.212" stroke="url(#paint15_linear_2303_12391)" stroke-width="1.46643" stroke-miterlimit="10"/>
<path d="M397.89 474.621C397.89 474.621 446.129 352.732 470.899 328.603C495.67 304.475 498.956 297.847 552.949 283.794L560.555 289.96C560.555 289.96 509.337 296.357 479.223 332.064C449.109 367.77 406.226 474.84 406.226 474.84L397.89 474.621Z" fill="#C1741B"/>
<path d="M405.104 474.509C405.104 474.509 450.917 356.192 457.669 351.846C464.421 347.501 482.402 299.474 558.392 288.52" stroke="#F0B269" stroke-width="0.733213" stroke-miterlimit="10"/>
<path d="M419.007 474.808H430.853C430.853 474.808 480.731 354.016 506.294 338.579C506.294 338.579 530.834 308.029 577.127 303.39L567.925 294.306C567.925 294.306 521.226 302.268 498.681 330.86C498.681 330.86 471.18 350.481 419.007 474.808Z" fill="#700926"/>
<path d="M436.159 474.808C436.159 474.808 481.517 371.791 503.551 342.762C503.551 342.762 522.174 310.822 577.121 303.39" stroke="#F0B269" stroke-width="0.733213" stroke-miterlimit="10"/>
<path d="M442.107 474.509C442.107 474.509 495.664 350.4 521.725 331.583C521.725 331.583 544.17 312.624 582.046 307.386" stroke="#F0B269" stroke-width="0.733213" stroke-miterlimit="10"/>
<path d="M467.202 474.808H453.853C453.853 474.808 496.636 351.123 532.661 332.469C532.661 332.469 558.666 312.518 586.193 310.747C613.719 308.976 587.664 310.747 587.664 310.747L594.703 317.624C594.703 317.624 554.857 326.658 544.563 341.135C544.563 341.154 514.992 355.544 467.202 474.808Z" fill="#C1741B"/>
<path d="M459.964 474.808C459.964 474.808 509.181 353.056 534.912 338.891C534.912 338.891 569.353 314.519 590.401 314.157" stroke="#F0B269" stroke-width="0.733213" stroke-miterlimit="10"/>
<path d="M403.146 205.71C403.146 205.71 388.775 197.343 388.613 195.996C388.451 194.649 382.16 199.375 388.613 203.478C388.613 203.478 386.48 210.654 389.81 211.583C393.139 212.512 398.32 208.116 403.146 205.71Z" fill="#680B04" stroke="url(#paint16_linear_2303_12391)" stroke-width="0.733213" stroke-miterlimit="10"/>
<path d="M124.751 163.345L79.3188 163.182" stroke="#FFD8B7" stroke-width="0.733213" stroke-miterlimit="10"/>
</g>
<defs>
<linearGradient id="paint0_linear_2303_12391" x1="65.4527" y1="207.038" x2="81.5072" y2="207.038" gradientUnits="userSpaceOnUse">
<stop stop-color="#DE765B" stop-opacity="0"/>
<stop offset="1" stop-color="#603913"/>
</linearGradient>
<linearGradient id="paint1_linear_2303_12391" x1="168.301" y1="204.575" x2="185.229" y2="204.575" gradientUnits="userSpaceOnUse">
<stop stop-color="#833930" stop-opacity="0"/>
<stop offset="1" stop-color="#603913"/>
</linearGradient>
<linearGradient id="paint2_linear_2303_12391" x1="284.243" y1="206.165" x2="301.27" y2="206.165" gradientUnits="userSpaceOnUse">
<stop stop-color="#92483A" stop-opacity="0.1"/>
<stop offset="1" stop-color="#884838"/>
</linearGradient>
<linearGradient id="paint3_linear_2303_12391" x1="404.904" y1="356.429" x2="413.521" y2="356.429" gradientUnits="userSpaceOnUse">
<stop stop-color="#92483A" stop-opacity="0.1"/>
<stop offset="1" stop-color="#3C2415"/>
</linearGradient>
<linearGradient id="paint4_linear_2303_12391" x1="419.849" y1="139.004" x2="484.298" y2="139.004" gradientUnits="userSpaceOnUse">
<stop stop-color="#92483A" stop-opacity="0.1"/>
<stop offset="1" stop-color="#3C2415"/>
</linearGradient>
<linearGradient id="paint5_linear_2303_12391" x1="390.327" y1="102.961" x2="417.418" y2="102.961" gradientUnits="userSpaceOnUse">
<stop stop-color="#92483A" stop-opacity="0.1"/>
<stop offset="1" stop-color="#3C2415"/>
</linearGradient>
<linearGradient id="paint6_linear_2303_12391" x1="494.504" y1="200.691" x2="513.208" y2="200.691" gradientUnits="userSpaceOnUse">
<stop stop-color="#92483A" stop-opacity="0.1"/>
<stop offset="1" stop-color="#3C2415"/>
</linearGradient>
<linearGradient id="paint7_linear_2303_12391" x1="453.86" y1="118.941" x2="496.624" y2="118.941" gradientUnits="userSpaceOnUse">
<stop stop-color="#92483A" stop-opacity="0.1"/>
<stop offset="1" stop-color="#3C2415"/>
</linearGradient>
<linearGradient id="paint8_linear_2303_12391" x1="517.573" y1="178.695" x2="561.291" y2="178.695" gradientUnits="userSpaceOnUse">
<stop stop-color="#92483A" stop-opacity="0.1"/>
<stop offset="1" stop-color="#3C2415"/>
</linearGradient>
<linearGradient id="paint9_linear_2303_12391" x1="536.832" y1="183.795" x2="568.28" y2="183.795" gradientUnits="userSpaceOnUse">
<stop stop-color="#92483A" stop-opacity="0.1"/>
<stop offset="1" stop-color="#3C2415"/>
</linearGradient>
<linearGradient id="paint10_linear_2303_12391" x1="584.466" y1="169.648" x2="600.196" y2="169.648" gradientUnits="userSpaceOnUse">
<stop stop-color="#92483A" stop-opacity="0.1"/>
<stop offset="1" stop-color="#3C2415"/>
</linearGradient>
<linearGradient id="paint11_linear_2303_12391" x1="477.097" y1="117.6" x2="500.945" y2="117.6" gradientUnits="userSpaceOnUse">
<stop stop-color="#92483A" stop-opacity="0.1"/>
<stop offset="1" stop-color="#3C2415"/>
</linearGradient>
<linearGradient id="paint12_linear_2303_12391" x1="514.86" y1="67.429" x2="551.066" y2="67.429" gradientUnits="userSpaceOnUse">
<stop stop-color="#92483A" stop-opacity="0.1"/>
<stop offset="1" stop-color="#3C2415"/>
</linearGradient>
<linearGradient id="paint13_linear_2303_12391" x1="532.704" y1="153.357" x2="552.718" y2="153.357" gradientUnits="userSpaceOnUse">
<stop stop-color="#92483A" stop-opacity="0.1"/>
<stop offset="1" stop-color="#3C2415"/>
</linearGradient>
<linearGradient id="paint14_linear_2303_12391" x1="529.768" y1="400.755" x2="529.768" y2="465.013" gradientUnits="userSpaceOnUse">
<stop stop-color="#92483A" stop-opacity="0.1"/>
<stop offset="1" stop-color="#3C2415"/>
</linearGradient>
<linearGradient id="paint15_linear_2303_12391" x1="523.514" y1="414.076" x2="530.186" y2="414.076" gradientUnits="userSpaceOnUse">
<stop stop-color="#92483A" stop-opacity="0.1"/>
<stop offset="1" stop-color="#3C2415"/>
</linearGradient>
<linearGradient id="paint16_linear_2303_12391" x1="385.396" y1="203.74" x2="403.801" y2="203.74" gradientUnits="userSpaceOnUse">
<stop stop-color="#92483A" stop-opacity="0.1"/>
<stop offset="1" stop-color="#3C2415"/>
</linearGradient>
<clipPath id="clip0_2303_12391">
<rect width="674.104" height="468.813" fill="white" transform="scale(1.0004)"/>
</clipPath>
</defs>
</svg>
