<svg width="20" height="20" viewBox="0 0 20 20" fill="none" xmlns="http://www.w3.org/2000/svg">
<path d="M14.4083 7.74169C14.3312 7.66444 14.2396 7.60315 14.1388 7.56133C14.038 7.51951 13.9299 7.49799 13.8208 7.49799C13.7116 7.49799 13.6036 7.51951 13.5028 7.56133C13.4019 7.60315 13.3104 7.66444 13.2333 7.74169L9.99994 10.975L6.76661 7.74169C6.68946 7.66454 6.59786 7.60334 6.49706 7.56158C6.39626 7.51983 6.28822 7.49834 6.17911 7.49834C6.07 7.49834 5.96196 7.51983 5.86115 7.56158C5.76035 7.60334 5.66876 7.66454 5.59161 7.74169C5.51445 7.81884 5.45326 7.91043 5.4115 8.01124C5.36975 8.11204 5.34826 8.22008 5.34826 8.32919C5.34826 8.4383 5.36975 8.54634 5.4115 8.64714C5.45326 8.74795 5.51445 8.83954 5.59161 8.91669L9.41661 12.7417C9.4937 12.8189 9.58528 12.8802 9.68609 12.9221C9.7869 12.9639 9.89497 12.9854 10.0041 12.9854C10.1132 12.9854 10.2213 12.9639 10.3221 12.9221C10.4229 12.8802 10.5145 12.8189 10.5916 12.7417L14.4166 8.91669C14.7333 8.60002 14.7333 8.06669 14.4083 7.74169Z" fill="black"/>
</svg>
