<svg width="87" height="84" viewBox="0 0 87 84" fill="none" xmlns="http://www.w3.org/2000/svg">
<path opacity="0.17" d="M31.5201 10.3419C34.2117 13.1864 36.898 16.0255 39.5896 18.8701C42.9449 22.4162 45.7535 22.4596 49.6127 18.9336C55.5162 13.4732 61.3423 8.01292 67.0651 2.42006C69.6172 -0.0889946 71.3667 -0.603318 73.7754 2.35185C77.2888 6.63821 81.2592 10.5653 85.1854 14.4925C87.3036 16.6024 87.0599 18.2986 84.8539 20.3545C78.7915 25.9861 72.797 31.6896 66.8175 37.4207C63.2079 40.8361 63.0785 43.6594 66.2804 47.0784C71.5695 52.6682 76.782 58.3408 82.1931 63.8256C84.4767 66.1454 84.4761 67.9465 81.8843 70.2732C77.6153 74.1032 73.4019 78.0272 69.3791 82.1057C66.7333 84.8082 64.9705 84.4661 62.7032 81.9529C57.8273 76.4956 52.6957 71.2595 47.6511 65.9514C43.6216 61.6928 41.1016 61.7322 36.5021 66.0319C30.7781 71.448 25.0025 76.7978 19.336 82.2746C17.007 84.5516 15.2723 84.6018 13.1943 82.2653C9.41273 78.0269 5.50866 73.9009 1.48214 69.8872C-0.64651 67.7662 -0.43444 66.1418 1.8112 64.0693C7.5973 58.7306 13.2899 53.2814 18.9715 47.8322C23.6441 43.4109 23.755 40.7202 19.6379 36.3456C14.605 31.0265 9.67716 25.608 4.49757 20.4381C2.16971 18.1183 2.11369 16.3392 4.67351 13.9904C9.12022 9.95042 13.431 5.7668 17.7628 1.60529C19.8012 -0.323494 21.4579 -0.760429 23.4144 1.66999C25.9565 4.81297 28.8286 7.49728 31.5201 10.3419Z" fill="#106840"/>
</svg>
