<svg width="257" height="250" viewBox="0 0 257 250" fill="none" xmlns="http://www.w3.org/2000/svg">
<rect width="250" height="250" rx="125" fill="#E8F5FB"/>
<path d="M95.5835 215.09L95.1231 214.507C93.918 213.343 94.1738 211.84 94.1682 210.431C94.134 202.859 94.1682 195.341 94.1682 187.793C94.1984 186.821 94.1623 185.848 94.0601 184.881C93.9124 183.751 93.5486 182.668 92.281 182.638C90.8485 182.604 90.4563 183.768 90.3028 185.003C90.2171 185.971 90.1886 186.943 90.2176 187.915C90.2176 194.589 90.2517 201.264 90.1834 207.938C90.1834 209.685 90.263 211.549 88.0405 212.137L87.1026 211.595C86.1419 210.349 86.2783 208.864 86.2783 207.42C86.2783 201.13 86.2783 194.84 86.2783 188.55C86.2783 185.888 86.0055 185.76 83.7545 187.041C82.8507 187.554 81.9753 188.136 81.0658 188.655C76.5184 191.235 74.023 190.035 72.9486 184.788C72.4825 182.516 72.2438 180.204 71.9482 177.909C71.4477 175.048 71.3539 172.127 71.6697 169.237C66.9176 171.858 63.3933 175.306 60.2158 179.22C58.5105 181.357 57.4703 184.048 55.2704 185.807C54.9969 185.898 54.7047 185.912 54.4238 185.849C54.143 185.785 53.8839 185.646 53.6731 185.446C52.8148 184.03 53.3719 182.796 54.1506 181.596C58.6981 174.112 64.6836 168.259 72.528 164.503C75.2224 163.21 76.7401 160.426 80.0085 158.929C75.3133 156.419 71.6924 153.542 68.7877 149.908C67.7759 149.978 67.8384 150.857 67.5031 151.358C66.082 153.46 64.2005 154.532 61.6937 154.066C59.1869 153.6 58.1183 151.661 57.6522 149.372C57.2673 147.37 57.3158 145.307 57.7943 143.327C58.1978 141.539 58.6014 139.745 59.1528 137.992C59.3522 137.401 59.4124 136.77 59.3285 136.15C59.2445 135.531 59.0187 134.94 58.6696 134.427C56.0605 130.17 56.3959 127.165 59.9429 123.944C61.2333 122.779 61.1139 121.859 60.608 120.45C57.9364 113.018 56.4357 105.377 59.8633 97.8645C65.3203 85.8962 74.7562 79.0588 87.4891 77.4339C95.7427 76.3798 103.684 77.9406 110.795 82.6755C123.59 91.1727 129.343 104.009 123.249 120.24C122.652 121.83 122.362 122.82 123.988 124.125C127.08 126.6 127.581 130.257 125.489 133.694C124.983 134.441 124.659 135.302 124.545 136.204C124.431 137.106 124.531 138.023 124.835 138.877C125.666 141.352 126.16 143.933 126.302 146.547C126.444 150.502 124.88 153.326 122.243 154.06C119.605 154.794 117.383 153.414 115.308 149.564C112.635 152.82 109.457 155.602 105.901 157.799C104.707 158.539 104.923 159.098 105.969 159.907C108.582 161.969 111.315 163.866 114.154 165.586C127.689 173.559 135.186 185.702 137.039 201.549C137.352 204.263 137.454 206.994 134.64 208.648C133.992 210.978 134.464 213.36 134.333 215.713C134.265 216.93 134.447 218.2 133.555 219.207C132.509 219.929 131.849 219.277 131.281 218.497C129.786 216.208 130.616 213.634 130.468 211.188C130.286 208.148 130.167 207.885 127.205 207.88C120.384 207.88 120.828 207.379 120.788 214.135C120.788 215.655 121.049 217.245 120.083 218.613C119.856 219.627 119.156 219.86 118.258 219.778C117.082 219.149 116.894 218.031 116.877 216.825C116.794 212.015 116.794 207.206 116.877 202.399C116.882 201.82 116.985 201.247 117.184 200.704C117.468 199.942 117.923 199.313 118.776 199.283C119.16 199.257 119.541 199.381 119.841 199.629C120.141 199.877 120.339 200.232 120.396 200.623C120.793 203.803 122.908 203.919 125.324 203.826C127.572 203.713 129.826 203.741 132.071 203.908C133.725 204.333 133.424 203.092 133.384 202.19C133.203 198.996 132.586 195.844 131.554 192.825C128.211 182.51 122.107 174.438 112.483 168.894C113.461 172.243 112.762 175.335 112.443 178.439C112.006 180.816 111.875 183.25 111.346 185.591C110.34 189.837 107.691 191.048 103.957 189.086C102.78 188.462 101.683 187.699 100.546 187.053C98.5166 185.888 98.187 186.092 98.1472 188.556C98.0903 192.225 98.1472 195.9 98.1472 199.569C98.1472 203.913 98.2495 208.264 98.0846 212.609C97.9823 213.989 98.1699 216.068 95.5835 215.09Z" fill="#46423D"/>
<path d="M141.127 33.4397C144.06 31.0344 147.38 30.254 151.137 30.2656C181.707 30.3355 212.277 30.452 242.842 30.2074C251.164 30.1375 257.019 35.979 256.962 44.5868C256.808 68.5642 256.916 92.5416 256.894 116.519C256.894 125.727 251.829 130.881 242.893 130.904C233.957 130.927 225.158 130.968 216.296 131.003C215.601 131.518 214.753 131.769 213.897 131.714C209.214 131.131 205.439 132.576 202.017 136.14C197.061 141.3 191.598 145.953 186.385 150.857C185.46 151.826 184.469 152.725 183.418 153.548C181.406 154.957 179.297 156.046 176.83 154.794C174.363 153.542 173.095 151.3 173.005 148.475C172.868 144.218 173.005 139.96 172.953 135.703C172.953 131.941 172.789 131.778 169.128 131.766C162.989 131.766 156.85 131.807 150.716 131.766C142.042 131.679 136.21 125.942 136.165 117.055C136.045 92.7687 136.091 68.4827 136.165 44.1966C136.165 41.2846 136.733 38.4192 138.364 35.9091C139.069 34.8317 139.785 33.76 141.127 33.4397Z" fill="#47423D"/>
<path d="M132.987 204.665C129.332 204.665 125.671 204.607 122.022 204.793C120.152 204.887 119.748 204.124 119.936 202.464C119.999 201.795 119.986 201.12 119.896 200.455C119.895 200.309 119.863 200.165 119.804 200.033C119.744 199.9 119.658 199.783 119.55 199.687C119.442 199.592 119.316 199.521 119.18 199.48C119.043 199.438 118.9 199.427 118.759 199.447C118.521 199.436 118.288 199.519 118.109 199.68C117.93 199.84 117.819 200.066 117.798 200.309C117.906 206.791 117.003 213.296 118.242 219.749C110.539 219.087 102.935 217.523 95.5784 215.09C97.5963 215.428 97.3519 213.966 97.3519 212.732C97.3519 204.446 97.3519 196.158 97.3519 187.869V184.485C99.9155 185.365 101.899 187.007 104.037 188.259C107.697 190.373 109.88 189.372 110.665 185.097C111.119 182.656 111.489 180.199 111.898 177.747C115.797 181.346 120.612 183.751 124.131 187.869C127.752 192.109 130.838 196.657 132.754 201.969C133.066 202.825 133.737 203.699 132.987 204.665Z" fill="#DAECF5"/>
<path d="M141.127 33.4401L139.211 35.7114C136.272 36.1133 133.368 35.4552 130.491 35.1756C120.765 34.238 111.273 35.4552 101.933 37.9944C85.4573 42.3649 70.596 51.5952 59.1931 64.5402C46.9775 78.2906 39.298 94.4231 36.939 112.879C33.7785 137.509 39.099 160.135 53.6452 180.275C54.0493 180.816 54.3925 181.402 54.6684 182.022C54.3216 183.187 53.1677 184.083 53.6963 185.516C43.1122 172.057 36.2 156.85 33.9491 139.786C31.2831 119.629 33.9491 100.119 43.5214 82.0122C57.357 55.8042 78.7641 39.8581 107.032 33.5158C113.454 32.0077 120.044 31.3925 126.626 31.6871C131.475 31.955 136.375 32.1705 141.127 33.4401Z" fill="#DAECF5"/>
<path d="M72.4032 177.263C72.8125 179.715 73.2104 182.173 73.6367 184.625C74.4723 189.482 76.5471 190.478 80.6739 188.014C82.6179 186.849 84.5506 185.685 87.1085 184.147V211.596C73.8982 205.661 63.0241 196.581 53.645 185.469L55.3503 185.504C55.4443 185.517 55.5373 185.537 55.6288 185.562C57.3 186.034 57.8457 188.76 59.6079 188.311C61.1256 187.927 61.9953 185.982 63.3481 184.898C65.3661 183.314 67.2476 181.526 69.4986 180.292C70.7946 179.564 71.5449 178.399 72.4032 177.263Z" fill="#DAECF5"/>
<path d="M214.011 130.998H216.285C215.762 146.251 211.334 160.345 203.876 173.437C196.052 187.285 184.84 198.803 171.345 206.855C161.352 212.871 150.688 217.006 139.143 218.684C137.29 218.981 135.419 219.148 133.544 219.184C134.044 215.329 133.032 211.392 134.112 207.536C135.431 209.365 134.76 211.468 134.806 213.436C134.851 215.498 135.596 216.179 137.591 215.871C154.451 213.261 169.423 206.366 182.361 194.992C200.84 178.684 210.998 157.945 213.3 133.112C213.374 132.389 213.426 131.592 214.011 130.998Z" fill="#DAECF6"/>
<path d="M88.0239 212.126C89.3711 211.38 89.2063 210.082 89.2006 208.824C89.2006 200.99 89.3029 193.157 89.1324 185.33C89.0812 182.878 90.1612 181.375 92.128 181.323C94.0948 181.27 95.2203 182.726 95.1862 185.207C95.0384 194.968 95.1236 204.735 95.1236 214.502C92.5145 214.508 90.3943 212.906 88.0239 212.126Z" fill="#DAECF5"/>
<path d="M120.072 218.585C120.032 215.515 120.072 212.446 119.936 209.383C119.879 207.816 120.362 206.989 121.982 207.14C122.077 207.146 122.171 207.146 122.266 207.14C131.969 206.704 131.969 206.704 131.27 218.474L120.072 218.585Z" fill="#D0865F"/>
<path d="M214.011 130.998C213.766 141.527 211.294 151.562 207.4 161.236C202.849 172.7 195.984 183.048 187.255 191.602C173.72 204.799 157.776 213.43 139.109 216.302C134.129 217.07 134.123 217.053 134.123 211.916C134.123 210.464 134.123 209.014 134.123 207.566C135.925 207.216 136.59 206.296 136.477 204.252C135.499 186.914 127.626 173.938 112.762 165.709C109.596 163.961 107.458 160.811 103.832 159.768C102.644 159.424 103.394 158.155 104.372 157.671C108.87 155.389 112.737 151.984 115.615 147.771C115.791 147.94 115.882 147.98 115.899 148.044C117.105 152.441 118.628 153.927 121.521 153.501C124.415 153.076 125.813 150.56 125.574 146.274C125.346 143.288 124.717 140.348 123.704 137.538C123.244 136.163 123.426 135.325 124.352 134.207C127.103 130.899 126.575 126.338 122.993 124.207C121.197 123.135 121.629 122.343 122.181 120.905C125.131 113.13 126.501 105.226 122.823 97.3116C118.276 87.5156 110.482 81.3597 100.387 78.966C84.4368 75.1804 69.2825 81.4238 61.2449 96.4846C57.0612 104.318 58.4766 112.402 61.3131 120.293C61.9952 122.192 62.4499 123.205 60.3013 124.55C57.1067 126.577 56.6406 131.033 59.1644 133.939C60.4661 135.389 60.3695 136.466 59.8977 138.062C58.9427 141.096 58.1071 144.166 58.1924 147.38C58.2606 150.98 59.6248 153.1 62.1714 153.501C64.9624 153.938 66.6279 152.465 67.6795 148.644C67.7534 148.382 67.8784 148.132 68.066 147.66C71.1263 152.153 75.2969 155.733 80.1509 158.033C80.7193 158.289 81.1854 158.562 81.0831 159.267C80.9921 159.879 80.3555 159.745 80.0088 159.989C70.9139 166.512 60.4945 171.48 54.6681 181.981C52.906 181.684 52.3944 179.954 51.6327 178.789C43.6235 167.007 38.1268 154.031 36.2396 139.821C33.5509 119.553 36.3419 100.014 46.1473 81.9304C57.5444 60.9058 74.4836 46.4915 96.6695 38.699C103.866 36.1713 111.335 35.0065 118.969 34.3135C125.523 33.7311 131.861 34.6105 138.296 35.123C138.62 35.1521 138.927 35.4666 139.245 35.653C137.574 38.6698 137.028 41.9138 137.034 45.3791C137.091 68.8905 137.062 92.4078 137.068 115.925C137.068 125.888 141.947 130.867 151.705 130.864C158.225 130.864 164.739 130.951 171.253 130.817C173.283 130.776 174.039 131.178 173.948 133.461C173.749 138.19 173.948 142.943 173.868 147.683C173.828 150.386 174.402 152.756 176.943 154.008C179.672 155.359 181.798 154.008 183.799 152.133C190.205 146.117 196.793 140.298 203.017 134.078C205.541 131.557 208.093 130.357 211.504 130.834C212.336 130.932 213.173 130.986 214.011 130.998Z" fill="#E8F5FB"/>
<path d="M103.769 112.891C105.162 117.457 107.817 120.06 111.978 120.998C112.25 121.056 112.677 121.073 112.756 121.248C114.462 124.83 117.679 125.255 121.004 125.785C122.96 126.094 124.307 128.924 123.602 130.858C123.318 131.632 123.335 133.962 121.476 131.836C120.805 131.079 120.066 131.696 119.714 132.488C118.941 134.236 117.884 135.727 117.44 137.689C114.422 150.397 103.798 158.475 90.7751 158.236C78.9631 158.021 68.7541 149.11 66.1052 136.606C65.73 134.818 64.3999 133.647 63.7576 132.046C63.7005 131.908 63.6106 131.788 63.4961 131.695C63.3816 131.603 63.2463 131.541 63.1025 131.516C62.9587 131.491 62.8111 131.504 62.6733 131.552C62.5355 131.601 62.4119 131.685 62.3138 131.795C60.2845 134.166 60.3641 131.516 60.1139 130.706C59.4546 128.592 61.0405 125.837 63.1892 125.692C69.5385 125.255 71.7497 120.899 72.8923 115.424C73.1708 114.108 73.2561 112.745 73.5232 111.429C73.6721 110.714 74.0197 110.059 74.524 109.542C75.0283 109.026 75.6679 108.669 76.3654 108.517C77.8206 108.197 79.0029 109.309 79.685 110.712C80.7707 112.937 80.3103 115.086 79.1166 117.055C78.1389 118.674 78.6505 119.507 80.1739 120.159C84.2325 121.906 88.1774 122.529 91.7528 119.058C91.9337 118.835 92.158 118.653 92.4115 118.523C92.665 118.394 92.9421 118.32 93.225 118.307C97.4655 118.412 100.791 116.443 103.769 112.891Z" fill="#D18660"/>
<path d="M117.44 122.291C117.275 122.291 116.986 122.407 116.946 122.343C115.172 119.431 112.018 118.849 109.363 117.305C106.868 115.878 105.952 113.118 105.657 110.177C105.572 109.332 105.554 108.01 104.412 107.847C103.15 107.637 103.178 108.977 102.707 109.769C100.734 113.263 98.2046 115.977 93.8618 115.843C93.1655 115.784 92.4653 115.893 91.8183 116.164C91.1713 116.434 90.5957 116.857 90.1386 117.398C88.3651 119.379 84.9034 119.763 82.5216 118.662C81.4871 118.185 81.4701 117.497 81.8282 116.566C83.0901 113.193 82.732 110.194 79.9637 107.643C78.3039 106.112 80.0944 105.756 80.9585 105.349C86.6769 102.67 92.5033 101.615 98.6821 103.805C107.277 106.851 113.859 112.093 117.31 120.957C117.503 121.376 117.776 121.801 117.44 122.291Z" fill="#72503E"/>
<path d="M132.987 204.665C129.627 194.019 123.011 186.028 113.745 180.332C112.694 179.686 111.869 179.098 111.903 177.747C112.119 174.404 112.75 171.055 111.432 167.263C125.233 175.417 132.896 187.065 134.095 202.935C134.146 203.599 134.874 205.154 132.987 204.665Z" fill="#FEFEFE"/>
<path d="M90.383 179.4C86.3244 181.887 82.4591 184.269 78.5824 186.622C77.5194 187.269 76.4394 187.286 76.2234 185.789C75.4958 180.658 73.8701 175.603 74.5693 170.332C75.0013 167.1 76.7634 164.637 79.4009 162.837C80.2195 162.255 81.3052 161.998 81.0153 163.448C79.7193 169.913 84.5168 172.924 87.9217 176.739C88.6834 177.583 89.4565 178.399 90.383 179.4Z" fill="#F06294"/>
<path d="M110.176 172.82C109.607 176.827 109.039 181.026 108.368 185.213C108.095 186.96 107.146 187.49 105.571 186.512C102.189 184.421 98.8071 182.319 95.3908 180.28C94.254 179.61 94.2028 179.046 95.1407 178.131C96.505 176.797 97.6759 175.219 99.1197 174.002C102.144 171.358 104.162 168.382 103.389 164.025C103.07 162.232 103.957 161.987 105.264 162.971C108.476 165.336 109.92 168.656 110.176 172.82Z" fill="#F06294"/>
<path d="M72.4035 177.263C72.3467 178.428 72.2898 179.401 71.0393 180.135C66.9362 182.473 63.2545 185.515 60.1538 189.127C59.5001 189.901 59.1932 190.111 58.4997 189.179C57.539 187.886 56.4079 186.722 55.3506 185.504C59.2533 178.014 65.2322 171.874 72.5343 167.858C71.9488 171.282 72.1932 174.27 72.4035 177.263Z" fill="#FEFEFE"/>
<path d="M100.694 168.65C98.1868 171.381 95.6346 174.072 93.196 176.868C92.3604 177.817 91.8716 177.566 91.1894 176.815C88.6997 174.066 86.1816 171.346 83.6805 168.615C82.8619 163.414 83.112 163.146 88.0005 163.956C90.7075 164.412 93.4711 164.385 96.1689 163.874C101.131 162.925 101.467 163.298 100.694 168.65Z" fill="#D18660"/>
<path d="M93.3786 98.9246C93.6287 100.252 92.9352 100.13 92.4009 100.148C87.6021 100.282 82.8985 101.55 78.6562 103.852C78.1699 104.168 77.5857 104.288 77.018 104.187C76.4503 104.085 75.9399 103.771 75.5867 103.304C74.8818 102.349 76.1551 101.872 76.6098 101.248C79.6964 97.1424 83.7039 94.1605 87.9785 91.5281C89.4052 90.6545 90.3488 90.7127 90.957 92.5182C91.7301 94.807 92.651 97.0259 93.3786 98.9246Z" fill="#66686A"/>
<path d="M73.4829 95.4127C74.4151 91.5222 75.9158 87.1717 78.3714 83.4735C79.6447 81.5632 82.6972 81.3244 85.1301 81.0391C86.4147 80.8876 85.9827 82.1573 85.7781 82.728C83.5441 88.8024 80.9294 94.6206 75.5918 98.6392C75.245 98.8954 74.9381 99.5011 74.4549 98.9362C73.7842 98.1033 73.5398 97.0725 73.4829 95.4127Z" fill="#FEE400"/>
<path d="M75.2119 105.908C73.9386 107.038 72.9836 107.946 71.9604 108.767C70.6587 109.816 69.6867 112.361 68.3509 111.988C65.8248 111.226 63.4951 109.899 61.5297 108.103C60.1257 106.851 61.183 104.673 61.5297 102.926C62.1721 99.1926 62.2232 99.1926 65.3553 100.818C68.4873 102.442 71.6933 104.091 75.2119 105.908Z" fill="#FEE400"/>
<path d="M100.694 168.65C100.626 163.734 100.603 163.659 96.0043 164.753C92.8718 165.443 89.6254 165.375 86.5229 164.555C84.1298 163.973 83.2601 164.707 83.6808 167.165C83.7205 167.647 83.7205 168.132 83.6808 168.615C82.3961 165.883 83.7547 163.134 83.641 160.391C83.6012 159.506 84.3458 159.733 84.8915 159.85C89.7847 160.968 94.8684 160.869 99.7162 159.558C100.478 159.343 101.132 159.471 101.092 160.397C100.967 163.146 101.723 165.947 100.694 168.65Z" fill="#BC704A"/>
<path d="M103.32 102.798L97.6355 101.086C97.3562 101.038 97.0916 100.924 96.8627 100.753C96.6338 100.582 96.4469 100.359 96.3167 100.102C95.0377 96.9042 93.7872 93.6952 92.5082 90.5036C92.3491 90.1018 92.3093 89.6824 92.7185 89.5368C94.2192 89.0127 95.7255 88.273 97.266 88.174C98.7098 88.0867 98.5449 89.8455 98.9201 90.8123C100.438 94.6911 101.808 98.6106 103.32 102.798Z" fill="#FDE400"/>
<path d="M62.8986 136.071C64.3879 140.147 65.4565 143.77 65.4622 147.625C65.4622 149.373 65.2007 151.312 62.7906 151.207C60.5965 151.114 60.4714 149.32 60.4259 147.637C60.3179 143.729 61.4775 140.112 62.8986 136.071Z" fill="#EE6246"/>
<path d="M120.811 135.971C122.306 140.316 123.511 144.055 123.318 148.074C123.238 149.681 122.84 151.236 120.799 151.23C118.759 151.224 118.367 149.629 118.293 148.05C118.105 144.038 119.395 140.299 120.811 135.971Z" fill="#EE6246"/>
<path d="M74.1937 85.4424C74.2676 87.44 73.307 88.3544 72.46 89.3794C70.4591 91.8138 68.5662 94.3822 67.3782 97.3233C66.6677 99.0705 65.9458 98.5347 64.826 98.0455C63.4845 97.4631 63.5186 96.8399 64.2575 95.6693C66.8906 91.6321 70.2654 88.1586 74.1937 85.4424Z" fill="#656769"/>
<path d="M112.006 108.855C107.311 106.048 104.469 101.977 103.69 95.6226C107.669 99.6178 110.585 103.59 112.609 108.237C112.802 108.849 112.546 108.994 112.006 108.855Z" fill="#656769"/>
<path d="M114.171 89.327C112.864 89.8453 111.744 89.9851 110.965 89.327C108.617 87.2547 105.993 85.5349 103.172 84.2194C103.039 84.1661 102.917 84.0861 102.813 83.984C102.71 83.882 102.628 83.7599 102.571 83.6249C102.515 83.4899 102.485 83.3447 102.484 83.1978C102.482 83.0509 102.51 82.9052 102.564 82.7692C102.797 82.1868 103.297 82.3848 103.752 82.5479C107.698 83.9348 111.268 86.2577 114.171 89.327Z" fill="#656768"/>
<path d="M103.667 91.4702C107.151 91.7498 110.835 90.8179 112.58 95.3548C109.112 95.116 105.616 95.5761 103.667 91.4702Z" fill="#F6DD0A"/>
<path d="M117.173 98.9017C116.236 96.5776 115.008 94.3887 113.518 92.3905C116.929 92.1342 118.287 93.8931 118.134 98.3135C117.952 98.7386 117.827 99.2686 117.173 98.9017Z" fill="#ECD418"/>
<path d="M70.3516 114.492C70.2834 117.777 69.1124 120.468 66.1509 122.809C66.5772 119.122 68.1972 116.665 70.3516 114.492Z" fill="#704F3E"/>
<path d="M71.0049 95.751C71.4142 97.4574 71.6472 98.9658 72.5681 100.218C72.8466 100.597 73.0399 101.097 72.642 101.505C72.2441 101.913 71.795 101.505 71.3801 101.371C68.5777 100.323 68.464 99.3153 71.0049 95.751Z" fill="#646667"/>
<path d="M97.1526 85.6463L92.7643 87.0091C92.0936 87.2188 91.2693 87.7895 91.059 86.5141C90.9226 85.5764 90.8089 84.4757 92.23 84.464C93.7761 84.4582 95.3734 84.2078 97.1526 85.6463Z" fill="#F3DB0F"/>
<path d="M117.264 107.195C114.063 105.174 114.092 102.699 114.99 99.6238C116.235 101.966 117.008 104.541 117.264 107.195Z" fill="#E9D219"/>
<path d="M120.424 117.521C120.424 115.442 120.452 113.363 120.424 111.283C120.424 110.701 120.202 110.084 121.066 110.049C121.93 110.014 122.203 110.474 122.243 111.295C122.27 113.512 121.635 115.684 120.424 117.521Z" fill="#656769"/>
<path d="M119.129 103.852C120.476 105.203 122.801 103.695 122.75 106.397C122.75 107.416 122.369 107.678 121.436 107.719C119.015 107.818 119.492 105.989 119.129 103.852Z" fill="#EFD715"/>
<path d="M112.194 102.297L108.783 97.5502C112.348 97.393 112.905 98.1618 112.194 102.297Z" fill="#616364"/>
<path d="M99.2104 82.781C97.778 82.5423 96.6013 82.3151 95.4133 82.1986C94.7767 82.1229 94.3446 81.954 94.4299 81.1911C94.5152 80.4282 95.1291 80.4165 95.6748 80.4864C96.8685 80.6495 98.0565 80.8533 99.2388 81.0688C99.9494 81.1911 100.529 81.5522 100.342 82.3792C100.154 83.2062 99.4662 82.781 99.2104 82.781Z" fill="#ECD416"/>
<path d="M85.4773 90.1772C85.4773 88.529 86.1651 87.7078 86.563 86.7643C86.8358 86.1353 87.2394 85.5995 88.0239 85.7043C88.5923 85.7742 88.7742 86.2285 88.7799 86.7235C88.7799 87.3991 89.4563 88.2145 88.4275 88.7095C87.5009 89.1405 86.6142 89.6006 85.4773 90.1772Z" fill="#646667"/>
<path d="M106.606 88.9307C104.815 89.1054 103.28 89.1928 101.774 89.4374C100.768 89.6004 100.723 88.9365 100.569 88.2726C100.359 87.3931 100.956 87.3931 101.53 87.3407C103.326 87.2068 105.008 87.4223 106.606 88.9307Z" fill="#646667"/>
<path d="M63.132 117.964C61.9326 116.339 61.8531 114.702 61.6143 113.153C61.5347 112.64 61.1084 111.615 62.1827 111.604C62.3716 111.583 62.5626 111.607 62.7404 111.676C62.9181 111.745 63.0777 111.855 63.206 111.999C63.3344 112.142 63.4281 112.314 63.4794 112.502C63.5307 112.689 63.5383 112.886 63.5015 113.077C63.3082 114.58 63.2571 116.082 63.132 117.964Z" fill="#646667"/>
<path d="M90.1269 82.1809C89.3197 82.0295 88.2397 82.3789 88.3875 81.1617C88.5182 80.0959 89.5243 80.4279 90.2292 80.4163C90.934 80.4046 92.0141 80.1367 91.9913 81.2316C91.9572 82.5537 90.6896 81.8839 90.1269 82.1809Z" fill="#646668"/>
<path d="M120.749 98.5115C121.51 99.8277 122.124 100.899 121.761 102.175C121.67 102.513 121.039 102.454 120.789 102.14C119.976 101.109 119.538 100.008 120.749 98.5115Z" fill="#626465"/>
<path d="M117.122 112.326C116.883 111.819 116.621 111.324 116.405 110.812C116.189 110.299 115.837 109.705 116.701 109.525C117.406 109.379 117.628 109.932 117.707 110.538C117.878 111.254 118.503 112.14 117.122 112.326Z" fill="#606162"/>
<path d="M117.122 112.326C117.798 111.895 117.645 111.161 117.69 110.538C118.662 111.592 117.997 112.868 118.333 114.19C117.372 113.753 117.514 112.862 117.122 112.326Z" fill="#5E5E5F"/>
<path d="M112.005 108.855L112.608 108.237C112.898 108.46 113.132 108.751 113.29 109.085C113.449 109.42 113.526 109.788 113.517 110.159C112.619 110.153 112.369 109.431 112.005 108.855Z" fill="#5D5D5D"/>
<path d="M117.172 98.9015L118.139 98.3191C118.252 98.9481 118.542 99.845 118.002 100.101C117.462 100.357 117.309 99.4548 117.172 98.9015Z" fill="#8C8031"/>
<path d="M197.003 32.6598C212.396 32.6598 227.791 32.6598 243.188 32.6598C250.532 32.6598 254.591 36.7366 254.597 44.2787C254.627 68.4715 254.627 92.6644 254.597 116.857C254.597 124.37 250.447 128.563 243.194 128.569C231.479 128.569 219.769 128.604 208.059 128.569C207.321 128.538 206.583 128.663 205.894 128.937C205.204 129.21 204.577 129.626 204.052 130.159C196.816 136.95 189.5 143.683 182.247 150.444C181.059 151.545 179.928 152.867 178.057 152.063C176.187 151.26 176.074 149.483 176.085 147.672C176.119 142.349 175.949 137.02 176.159 131.708C176.261 129.041 175.352 128.476 172.93 128.523C165.472 128.68 158.009 128.598 150.545 128.575C143.503 128.575 139.279 124.242 139.273 117.02C139.273 92.7265 139.273 68.4347 139.273 44.1447C139.273 36.8356 143.372 32.6715 150.54 32.6657C166.024 32.6501 181.512 32.6482 197.003 32.6598Z" fill="white"/>
<path d="M91.7756 147.829C88.6378 148.027 85.9207 146.845 83.4935 144.853C82.8114 144.27 82.1123 143.595 82.8285 142.675C83.4594 141.859 84.1927 142.413 84.8009 142.884C89.5701 146.618 94.3108 146.484 99.0117 142.809C99.6427 142.319 100.393 141.906 100.973 142.756C101.553 143.607 100.973 144.23 100.359 144.736C97.8862 146.792 95.0952 148.033 91.7756 147.829Z" fill="#4A433D"/>
<path d="M76.4275 139.611C73.9605 139.611 72.6076 138.377 72.6019 136.344C72.5845 135.884 72.6558 135.425 72.812 134.994C72.9681 134.562 73.2059 134.166 73.5117 133.829C73.8175 133.492 74.1853 133.22 74.594 133.029C75.0027 132.838 75.4442 132.731 75.8932 132.716C76.3444 132.679 76.798 132.739 77.2253 132.892C77.6527 133.045 78.0444 133.287 78.3757 133.603C78.707 133.919 78.9707 134.302 79.15 134.727C79.3293 135.153 79.4204 135.612 79.4174 136.076C79.4579 136.511 79.4117 136.951 79.2817 137.367C79.1517 137.784 78.9406 138.169 78.661 138.499C78.3815 138.83 78.0394 139.099 77.6555 139.29C77.2716 139.481 76.8538 139.59 76.4275 139.611Z" fill="#BD714B"/>
<path d="M110.909 135.919C110.84 138.248 109.908 139.535 107.839 139.599C105.77 139.663 104.332 138.371 104.338 136.326C104.315 135.864 104.384 135.403 104.54 134.969C104.696 134.535 104.936 134.138 105.246 133.801C105.555 133.465 105.928 133.196 106.341 133.01C106.755 132.824 107.2 132.726 107.652 132.721C109.8 132.646 110.772 134.136 110.909 135.919Z" fill="#BD714B"/>
<path d="M85.9605 126.792C85.9605 127.293 85.8752 127.753 85.3352 127.957C85.1129 128.044 84.8687 128.054 84.6405 127.985C84.4122 127.915 84.2128 127.77 84.0733 127.573C81.845 124.538 79.6793 124.736 77.5136 127.648C77.3663 127.842 77.1567 127.975 76.9223 128.024C76.6879 128.073 76.4441 128.035 76.2346 127.916C75.7344 127.678 75.6662 127.188 75.7173 126.693C75.8424 125.039 78.7812 122.908 80.8901 122.937C82.9989 122.966 85.932 125.156 85.9605 126.792Z" fill="#4B443E"/>
<path d="M102.706 122.926C104.741 123.193 106.537 123.892 107.674 125.773C108.095 126.467 108.362 127.27 107.6 127.835C106.964 128.301 106.463 127.835 105.895 127.323C102.979 124.649 102.95 124.655 99.7672 127.451C99.2954 127.864 98.835 128.202 98.2836 127.882C97.5674 127.468 97.647 126.717 97.9653 126.135C98.4246 125.231 99.1008 124.463 99.9302 123.901C100.76 123.34 101.715 123.004 102.706 122.926Z" fill="#4B443E"/>
<path d="M211.1 106.181C209.048 106.181 207.303 105.442 205.866 103.965C204.429 102.487 203.711 100.692 203.711 98.5811C203.711 98.2855 203.731 97.979 203.772 97.6615C203.813 97.3456 203.875 97.061 203.957 96.8077L186.592 86.4206C185.894 87.054 185.114 87.5497 184.251 87.9077C183.389 88.2675 182.486 88.4474 181.542 88.4474C179.489 88.4474 177.745 87.7084 176.308 86.2306C174.871 84.7528 174.152 82.9582 174.152 80.847C174.152 78.7359 174.871 76.9413 176.308 75.4635C177.745 73.9857 179.489 73.2467 181.542 73.2467C182.486 73.2467 183.389 73.4258 184.251 73.7838C185.114 74.1436 185.894 74.6401 186.592 75.2735L203.957 64.8864C203.875 64.6331 203.813 64.3485 203.772 64.0326C203.731 63.7151 203.711 63.4086 203.711 63.113C203.711 61.0018 204.429 59.2073 205.866 57.7295C207.303 56.2516 209.048 55.5127 211.1 55.5127C213.153 55.5127 214.898 56.2516 216.335 57.7295C217.772 59.2073 218.49 61.0018 218.49 63.113C218.49 65.2242 217.772 67.0187 216.335 68.4966C214.898 69.9744 213.153 70.7133 211.1 70.7133C210.156 70.7133 209.253 70.5334 208.391 70.1737C207.529 69.8156 206.749 69.3199 206.051 68.6866L188.685 79.0736C188.767 79.327 188.829 79.6116 188.87 79.9274C188.911 80.2449 188.932 80.5515 188.932 80.847C188.932 81.1426 188.911 81.4483 188.87 81.7642C188.829 82.0817 188.767 82.3671 188.685 82.6205L206.051 93.0075C206.749 92.3742 207.529 91.8776 208.391 91.5179C209.253 91.1598 210.156 90.9808 211.1 90.9808C213.153 90.9808 214.898 91.7197 216.335 93.1975C217.772 94.6754 218.49 96.4699 218.49 98.5811C218.49 100.692 217.772 102.487 216.335 103.965C214.898 105.442 213.153 106.181 211.1 106.181Z" fill="#65B891"/>
<path d="M211.1 106.181C209.048 106.181 207.303 105.442 205.866 103.965C204.429 102.487 203.711 100.692 203.711 98.5811C203.711 98.2855 203.731 97.979 203.772 97.6615C203.813 97.3456 203.875 97.061 203.957 96.8077L186.592 86.4206C185.894 87.054 185.114 87.5497 184.251 87.9077C183.389 88.2675 182.486 88.4474 181.542 88.4474C179.489 88.4474 177.745 87.7084 176.308 86.2306C174.871 84.7528 174.152 82.9582 174.152 80.847C174.152 78.7359 174.871 76.9413 176.308 75.4635C177.745 73.9857 179.489 73.2467 181.542 73.2467C182.486 73.2467 183.389 73.4258 184.251 73.7838C185.114 74.1436 185.894 74.6401 186.592 75.2735L203.957 64.8864C203.875 64.6331 203.813 64.3485 203.772 64.0326C203.731 63.7151 203.711 63.4086 203.711 63.113C203.711 61.0018 204.429 59.2073 205.866 57.7295C207.303 56.2516 209.048 55.5127 211.1 55.5127C213.153 55.5127 214.898 56.2516 216.335 57.7295C217.772 59.2073 218.49 61.0018 218.49 63.113C218.49 65.2242 217.772 67.0187 216.335 68.4966C214.898 69.9744 213.153 70.7133 211.1 70.7133C210.156 70.7133 209.253 70.5334 208.391 70.1737C207.529 69.8156 206.749 69.3199 206.051 68.6866L188.685 79.0736C188.767 79.327 188.829 79.6116 188.87 79.9274C188.911 80.2449 188.932 80.5515 188.932 80.847C188.932 81.1426 188.911 81.4483 188.87 81.7642C188.829 82.0817 188.767 82.3671 188.685 82.6205L206.051 93.0075C206.749 92.3742 207.529 91.8776 208.391 91.5179C209.253 91.1598 210.156 90.9808 211.1 90.9808C213.153 90.9808 214.898 91.7197 216.335 93.1975C217.772 94.6754 218.49 96.4699 218.49 98.5811C218.49 100.692 217.772 102.487 216.335 103.965C214.898 105.442 213.153 106.181 211.1 106.181Z" fill="black" fillOpacity="0.2"/>
<path d="M235.909 66.418C235.091 65.7831 235.46 64.8047 235.267 63.9952C233.658 57.3267 227.172 52.0152 220.391 51.9395C215.201 51.8813 210.011 51.8289 204.827 51.9686C196.221 52.2074 188.866 48.9751 182.147 43.815C182.035 42.0809 182.179 40.3395 182.573 38.6492C182.926 36.669 183.903 36.4186 185.313 37.5426C195.136 45.3642 206.493 45.7544 218.146 44.7119C221.257 44.4028 224.398 44.7335 227.383 45.6845C235.676 48.4044 239.558 57.944 235.909 66.418Z" fill="#65B891"/>
<path d="M235.909 66.418C235.091 65.7831 235.46 64.8047 235.267 63.9952C233.658 57.3267 227.172 52.0152 220.391 51.9395C215.201 51.8813 210.011 51.8289 204.827 51.9686C196.221 52.2074 188.866 48.9751 182.147 43.815C182.035 42.0809 182.179 40.3395 182.573 38.6492C182.926 36.669 183.903 36.4186 185.313 37.5426C195.136 45.3642 206.493 45.7544 218.146 44.7119C221.257 44.4028 224.398 44.7335 227.383 45.6845C235.676 48.4044 239.558 57.944 235.909 66.418Z" fill="black" fillOpacity="0.2"/>
</svg>
