<svg width="24" height="24" viewBox="0 0 24 24" fill="none" xmlns="http://www.w3.org/2000/svg">
<path d="M16.56 5.44L15.11 6.89C15.9912 7.42057 16.7203 8.16984 17.2266 9.06515C17.733 9.96046 17.9994 10.9714 18 12C18 13.5913 17.3679 15.1174 16.2426 16.2426C15.1174 17.3679 13.5913 18 12 18C10.4087 18 8.88258 17.3679 7.75736 16.2426C6.63214 15.1174 6 13.5913 6 12C6 9.83 7.16 7.94 8.88 6.88L7.44 5.44C6.3779 6.17279 5.50984 7.15277 4.91058 8.29555C4.31132 9.43832 3.99882 10.7096 4 12C4 14.1217 4.84286 16.1566 6.34315 17.6569C7.84344 19.1571 9.87827 20 12 20C14.1217 20 16.1566 19.1571 17.6569 17.6569C19.1571 16.1566 20 14.1217 20 12C20 9.28 18.64 6.88 16.56 5.44ZM13 3H11V13H13" fill="black"/>
</svg>
