<svg width="388" height="336" viewBox="0 0 388 336" fill="none" xmlns="http://www.w3.org/2000/svg">
<g clip-path="url(#clip0_5736_25843)">
<path d="M214.85 296.4C298.024 296.4 365.45 236.093 365.45 161.7C365.45 87.3072 298.024 27 214.85 27C131.676 27 64.25 87.3072 64.25 161.7C64.25 236.093 131.676 296.4 214.85 296.4Z" fill="#F5F5FF"/>
<path d="M275.249 318.2H268.049C236.549 318.2 210.949 292.6 210.949 261.1V217.1C210.949 185.6 236.549 160 268.049 160H275.249C306.749 160 332.349 185.6 332.349 217.1V261.1C332.349 292.6 306.749 318.2 275.249 318.2Z" fill="#545FAC"/>
<path d="M275.249 318.2H268.049C236.549 318.2 210.949 292.6 210.949 261.1V217.1C210.949 185.6 236.549 160 268.049 160H275.249C306.749 160 332.349 185.6 332.349 217.1V261.1C332.349 292.6 306.749 318.2 275.249 318.2Z" fill="#545FAC"/>
<path d="M265.851 318.2H250.051C220.251 318.2 196.051 294 196.051 264.2V213.9C196.051 184.1 220.251 159.9 250.051 159.9H265.851C295.651 159.9 319.851 184.1 319.851 213.9V264.2C319.851 294 295.651 318.2 265.851 318.2Z" fill="#3F4781"/>
<path d="M209.849 116C209.849 116 192.749 168.4 187.449 190.2" stroke="black" stroke-miterlimit="10" stroke-linecap="round"/>
<path d="M282.35 96.8002C282.35 96.8002 272.25 88.0002 271.85 87.8002C271.35 87.6002 265.55 82.5002 258.75 83.3002L272.75 115C272.75 115 267.45 119.4 268.55 122.1C269.55 124.8 273.35 120.4 275.25 119.6C277.15 118.8 280.35 115.1 281.25 113.4C282.15 111.8 282.35 96.8002 282.35 96.8002Z" fill="#BA6F4C"/>
<path d="M266.449 94C266.449 94 270.049 102.2 274.949 104.2" stroke="black" stroke-miterlimit="10" stroke-linecap="round"/>
<path d="M260.85 91.6001C260.85 91.6001 297.35 139.9 298.55 169.3C298.55 169.3 266.45 222.7 192.25 182.4L205.55 117.2L260.85 91.6001Z" fill="black"/>
<path d="M265.65 98.1001C265.65 98.1001 287.25 128.7 302.55 159.3" stroke="black" stroke-miterlimit="10" stroke-linecap="round"/>
<path d="M266.15 159.6C266.15 159.6 312.05 150.8 333.55 153.1C333.55 153.1 346.85 168.1 351.85 177.8L313.15 202.1C313.15 202.1 317.65 262 302.05 300.5H156.25C156.25 300.5 164.75 218 171.85 204.2C176.25 195.7 180.15 186.2 201.05 178.6C221.85 170.9 225.45 163.9 225.45 163.9L266.15 159.6Z" fill="#106840"/>
<path d="M264.65 160.5C264.65 160.5 269.85 159.9 271.15 167.9" stroke="black" stroke-miterlimit="10" stroke-linecap="round"/>
<path d="M225.251 171C225.251 171 219.351 176.3 224.151 184.5" stroke="black" stroke-miterlimit="10" stroke-linecap="round"/>
<path d="M186.35 210.2L195.75 222.9" stroke="black" stroke-miterlimit="10" stroke-linecap="round"/>
<path d="M240.15 182.3C229.95 182.3 227.15 168.1 227.15 157.9L227.45 135.9H264.35V163.5C264.45 173.6 250.35 182.3 240.15 182.3Z" fill="#BA6F4C"/>
<path d="M260.95 135.8H227.45L227.15 157.8C227.15 164 228.15 171.8 231.35 176.9C249.95 173.8 258.15 155.5 260.95 135.8Z" fill="black"/>
<path d="M281.251 113.4L345.751 181.8C345.751 181.8 359.051 177 366.951 166.8C374.851 156.6 358.251 138.9 336.251 124.8C314.251 110.7 281.151 95.6001 281.151 95.6001C281.151 95.6001 280.451 100.4 281.251 113.4Z" fill="#BA6F4C"/>
<path d="M297.85 226.5C297.85 226.5 294.35 262.4 262.15 260.5" stroke="black" stroke-miterlimit="10" stroke-linecap="round"/>
<path d="M213.15 152.6C214.25 154.1 214.75 156.5 214.35 159.1C213.75 163.2 211.05 166.2 208.35 165.8C205.65 165.4 203.95 161.7 204.55 157.6C204.95 155.2 206.05 153.1 207.45 151.9" stroke="#FF7400" stroke-miterlimit="10" stroke-linecap="round"/>
<path d="M196.85 109.4C196.85 109.4 195.95 168.4 229.15 172.4C258.05 175.9 262.55 127.5 260.45 109.1C258.35 90.7001 250.15 81.0001 227.65 81.4001C194.25 82.0001 196.85 109.4 196.85 109.4Z" fill="#BA6F4C"/>
<path d="M256.95 120.7L257.85 125.3C257.85 125.3 276.65 127.8 281.45 124.8C281.45 124.8 270.75 96.1001 263.45 87.4001C256.15 78.7001 245.75 70.6001 222.85 73.9001C199.95 77.1001 194.35 99.1001 194.35 99.1001C194.35 99.1001 188.85 114.2 199.05 131.7C199.05 131.7 199.15 111.7 203.55 105.9C203.55 105.9 224.75 129.7 256.95 120.7Z" fill="black"/>
<path d="M266.045 138.057C267.479 131.361 264.921 125.135 260.331 124.151C255.741 123.168 250.857 127.799 249.422 134.495C247.987 141.192 250.545 147.417 255.136 148.401C259.726 149.384 264.61 144.753 266.045 138.057Z" fill="#BA6F4C"/>
<path d="M261.351 132.3C261.351 132.3 256.951 128.5 255.051 136C255.051 136 257.651 138.7 256.151 141.1C256.151 141.1 258.551 141.6 259.651 139.1" stroke="black" stroke-miterlimit="10" stroke-linecap="round" stroke-linejoin="round"/>
<path d="M259.65 135.2C259.65 135.2 259.35 133.6 257.65 131.8" stroke="black" stroke-miterlimit="10" stroke-linecap="round" stroke-linejoin="round"/>
<path d="M231.751 139.9C231.851 141.6 231.051 142.9 230.051 143C229.051 143 228.251 141.7 228.151 140.1C228.051 138.4 228.851 137.1 229.851 137C230.851 136.9 231.651 138.2 231.751 139.9Z" fill="black"/>
<path d="M210.151 142.8C210.251 144.5 209.451 145.8 208.451 145.9C207.451 145.9 206.651 144.6 206.551 143C206.451 141.3 207.251 140 208.251 139.9C209.251 139.8 210.051 141.1 210.151 142.8Z" fill="black"/>
<path d="M207.351 134.3C207.351 134.3 206.551 137.7 203.551 136.7" stroke="black" stroke-miterlimit="10" stroke-linecap="round"/>
<path d="M231.651 131.9C231.651 131.9 227.151 133.4 224.551 130.4" stroke="black" stroke-miterlimit="10" stroke-linecap="round"/>
<path d="M214.051 148C214.051 148 213.251 150.9 214.751 151.3C216.251 151.7 218.251 152.3 220.051 151.1C221.951 149.9 223.751 150.5 222.051 148" stroke="black" stroke-miterlimit="10" stroke-linecap="round"/>
<path d="M259.35 119.1C221.65 136.8 203.25 106.4 203.25 106.4C203.25 106.4 201.95 108.3 210.55 119.7" stroke="black" stroke-miterlimit="10" stroke-linecap="round"/>
<path d="M263.949 143.7C265.449 144.7 266.649 146.7 267.149 149.1C267.949 152.9 266.449 156.5 263.949 157C261.449 157.5 258.749 154.8 257.949 151C257.449 148.7 257.849 146.5 258.649 145.1" stroke="#FF7400" stroke-miterlimit="10" stroke-linecap="round"/>
<path d="M234.551 163.1C234.551 163.1 235.251 159.3 238.551 159.3" stroke="black" stroke-miterlimit="10" stroke-linecap="round"/>
<path d="M318.65 152.7C318.65 152.7 315.75 185.9 345.75 181.8L318.65 152.7Z" fill="#BA6F4C"/>
<path d="M318.65 152.7C318.65 152.7 327.65 165.2 337.15 166.9" stroke="black" stroke-miterlimit="10" stroke-linecap="round"/>
<path d="M299.05 300.9C299.05 300.9 311.95 258.5 310.55 202C310.55 202 309.95 201.7 308.05 200.7C305.35 199.2 301.25 196.4 297.25 191.7" stroke="black" stroke-miterlimit="10" stroke-linecap="round"/>
<path d="M338.451 182.5C338.451 182.5 316.151 199.1 310.551 202" stroke="black" stroke-miterlimit="10" stroke-linecap="round"/>
<path d="M270.75 161.6C270.75 161.6 276.35 185.8 246.35 191.5C220.45 196.3 220.35 172.8 220.35 172.8" stroke="black" stroke-miterlimit="10" stroke-linecap="round"/>
<path d="M254.75 177.8C254.75 177.8 258.25 179.5 258.15 187.4" stroke="black" stroke-miterlimit="10" stroke-linecap="round"/>
<path d="M260.65 172.7C260.65 172.7 264.25 175 264.15 183.3" stroke="black" stroke-miterlimit="10" stroke-linecap="round"/>
<path d="M264.65 166C264.65 166 268.75 168.3 268.55 177.4" stroke="black" stroke-miterlimit="10" stroke-linecap="round"/>
<path d="M229.45 173.8C229.45 173.8 225.05 179.6 228.65 188.6" stroke="black" stroke-miterlimit="10" stroke-linecap="round"/>
<path d="M233.25 179.2C233.25 179.2 230.95 184.2 235.15 191.5" stroke="black" stroke-miterlimit="10" stroke-linecap="round"/>
<path d="M240.249 182.7C240.249 182.7 239.949 188.5 241.449 191.8" stroke="black" stroke-miterlimit="10" stroke-linecap="round"/>
<path d="M248.15 181.4C248.15 181.4 250.15 184.6 249.75 190.5" stroke="black" stroke-miterlimit="10" stroke-linecap="round"/>
<path d="M262.65 184.6C262.65 184.6 252.15 198.5 233.65 198.5" stroke="black" stroke-miterlimit="10" stroke-linecap="round"/>
<path d="M343.85 328H0.25L44.15 300.6H387.75L343.85 328Z" fill="#C6D3F7"/>
<path d="M92.9497 288.9C89.1497 286.2 84.1497 284.9 78.9497 284.8C72.1497 284.7 62.8497 286.1 59.7497 286.5C57.8497 286.7 57.8497 283.8 52.1497 291.4C49.8497 294.4 49.2497 295.1 48.9497 296.2C48.6497 297.2 49.4497 309 52.3497 309.9C52.4497 309.9 52.5497 309.9 52.6497 309.9C52.8497 310.9 53.5497 312.4 54.2497 313.3C54.7497 313.9 57.3497 315.1 58.1497 310.7C58.1497 310.7 58.7497 314.3 60.8497 315.6C62.9497 316.9 63.8497 314.5 64.1497 312.5C64.4497 314.2 65.7497 317.1 67.4497 316.4C70.9497 315.1 69.1497 304.9 69.1497 304.9L73.2497 297.5L79.0497 298.9C79.0497 298.9 91.1497 304.3 95.8497 297.2C98.1497 293.9 95.9497 291 92.9497 288.9Z" fill="#BA6F4C"/>
<path d="M57.6496 289.2L51.8496 297.5L53.1496 309.4" stroke="black" stroke-miterlimit="10" stroke-linecap="round"/>
<path d="M61.9492 291L57.4492 300.2L58.2492 310.6" stroke="black" stroke-miterlimit="10" stroke-linecap="round"/>
<path d="M68.2496 292.7L63.8496 301.5L64.1496 310.9" stroke="black" stroke-miterlimit="10" stroke-linecap="round"/>
<path d="M85.1498 298.6C85.1498 298.6 78.6498 305.4 80.4498 308.3C82.2498 311.2 98.0498 298 94.8498 296.4C90.2498 294.1 85.1498 298.6 85.1498 298.6Z" fill="#BA6F4C"/>
<path d="M81.8496 295.9C81.8496 295.9 84.5496 297.5 83.4496 300.6" stroke="black" stroke-miterlimit="10" stroke-linecap="round"/>
<path d="M232.25 303.1L263.45 303.8C264.35 303.8 265.15 304.6 265.15 305.5V308C265.15 308.7 264.75 309.3 264.15 309.6L240.25 320.3L233.35 320.6L232.25 303.1Z" fill="#8796FF"/>
<path d="M264.05 305.4L240.15 316.1L233.25 316.4V320.6L240.15 320.3L264.05 309.6C264.65 309.3 265.05 308.7 265.05 308V305.5C265.05 305.2 264.95 304.9 264.85 304.6C264.65 305 264.35 305.3 264.05 305.4Z" fill="#E1E7F7"/>
<path d="M236.249 320.7H93.0494C90.7494 320.7 88.8494 319 88.3494 316.7L69.3494 226.9C68.8494 223.9 73.5494 220 76.5494 220H219.749C222.049 220 223.949 221.7 224.449 224L240.949 315C241.449 317.9 239.249 320.7 236.249 320.7Z" fill="white"/>
<path d="M213.049 226.3L220.249 220C220.049 220 219.849 219.9 219.649 219.9H76.5494C73.5494 219.9 68.8494 223.8 69.3494 226.8L71.8494 238.7L128.049 240.3L213.049 226.3Z" fill="#8796FF"/>
<path d="M240.95 314.9L224.75 225.8C223.45 226.5 221.35 228 220.45 230.9C219.35 234.4 220.05 293.3 220.55 320.7H236.25C239.25 320.7 241.45 317.9 240.95 314.9Z" fill="#E1E7F7"/>
<path d="M233.25 320.7H90.1499C87.8499 320.7 85.9499 319.1 85.4499 316.8L68.9499 228.2C68.4499 225.3 70.6499 222.6 73.6499 222.6H216.85C219.15 222.6 221.05 224.2 221.55 226.5L238.05 315.1C238.55 318 236.25 320.7 233.25 320.7Z" fill="#65B891"/>
<path d="M153.343 290.97C159.126 288.214 160.809 279.674 157.103 271.897C153.397 264.12 145.704 260.049 139.921 262.805C134.137 265.561 132.454 274.1 136.16 281.878C139.867 289.655 147.56 293.726 153.343 290.97Z" fill="#65655E"/>
<path d="M343.85 328H0.25V335.1H343.85V328Z" fill="#B5FFE1"/>
<path d="M343.85 335.1L387.75 307.7V300.6L343.85 328V335.1Z" fill="#8AA5EB"/>
<path d="M214.949 180.2C214.949 180.2 223.149 211.5 240.549 212.1" stroke="black" stroke-miterlimit="10" stroke-linecap="round"/>
<path d="M359.449 255.8C359.449 255.8 356.449 254.7 360.249 247.2C363.849 240.1 367.849 233.5 376.549 228.1C376.549 228.1 375.749 242.7 370.249 248.3C364.949 253.9 359.449 255.8 359.449 255.8Z" fill="#106840"/>
<path d="M382.75 256.8C382.75 256.8 373.65 262.9 356.85 263.5C356.85 263.5 357.55 261.3 364.65 257.8C371.65 254.2 384.35 254.5 382.75 256.8Z" fill="#106840"/>
<path d="M382.748 256.8C382.748 256.8 370.548 254.8 356.848 263.5C356.848 263.5 355.448 264.5 354.248 267.3" stroke="black" stroke-miterlimit="10" stroke-linecap="round"/>
<path d="M376.249 269.3C376.249 269.3 367.249 280.7 350.449 281.3C350.449 281.3 352.649 273.9 359.749 270.3C366.749 266.9 377.949 267 376.249 269.3Z" fill="#106840"/>
<path d="M376.248 269.3C376.248 269.3 364.648 268.1 350.448 281.3C350.448 281.3 348.748 282.9 347.648 285.7" stroke="black" stroke-miterlimit="10" stroke-linecap="round"/>
<path d="M351.749 267C351.749 267 349.649 268.8 345.049 266.4C340.449 264 337.749 255.6 334.049 255.6C334.049 255.6 343.349 255.2 351.749 267Z" fill="#106840"/>
<path d="M344.748 295.9C347.848 284 352.548 270.1 359.548 255.8C359.548 255.8 361.248 251.9 367.348 241.1C373.548 230.3 376.648 228.1 376.648 228.1" stroke="black" stroke-miterlimit="10" stroke-linecap="round"/>
<path d="M335.248 255.7C335.248 255.7 344.248 256.3 351.848 267C353.648 269.6 352.348 272.8 351.248 275.2" stroke="black" stroke-miterlimit="10" stroke-linecap="round"/>
<path d="M333.449 289.7L337.849 313.7C337.849 315.2 342.449 316.4 348.249 316.4C353.949 316.4 358.649 315.2 358.649 313.7L363.049 289.7H333.449Z" fill="#FF7400"/>
<path d="M362.849 289.7C362.849 291.2 356.249 292.4 348.149 292.4C340.049 292.4 333.449 291.2 333.449 289.7C333.449 288.2 340.049 287 348.149 287C356.249 287.1 362.849 288.3 362.849 289.7Z" fill="black"/>
<path d="M306.15 7.59009e-05C288.55 0.500076 273.95 14.6001 272.95 32.2001C272.35 42.5001 276.35 51.9001 283.15 58.6001C284.15 59.6001 284.65 61.0001 284.35 62.4001L281.85 77.4001L297.45 68.3001C298.35 67.8001 299.35 67.6001 300.35 67.8001C304.15 68.6001 308.15 68.7001 312.35 68.1001C327.75 65.8001 339.75 53.0001 341.15 37.5001C343.05 16.8001 326.55 -0.499924 306.15 7.59009e-05Z" fill="#D3DDF7"/>
<path d="M291.05 33.3812C290.956 34.3901 290.702 35.3172 290.288 36.1624C289.876 36.9943 289.334 37.707 288.662 38.3005C288.004 38.8952 287.246 39.34 286.389 39.6348C285.532 39.9164 284.613 40.0113 283.63 39.9195C282.661 39.829 281.782 39.5661 280.992 39.1308C280.204 38.6822 279.535 38.1042 278.985 37.3966C278.448 36.6903 278.054 35.8902 277.803 34.9963C277.566 34.0904 277.495 33.1329 277.589 32.124C277.683 31.115 277.93 30.194 278.329 29.3608C278.743 28.5156 279.279 27.7957 279.937 27.201C280.608 26.6075 281.372 26.17 282.229 25.8884C283.087 25.5936 284 25.4914 284.969 25.5819C285.952 25.6737 286.837 25.9438 287.625 26.3924C288.415 26.8277 289.078 27.3985 289.615 28.1048C290.165 28.8124 290.565 29.6197 290.815 30.5269C291.066 31.4208 291.144 32.3722 291.05 33.3812ZM288.9 33.1803C288.991 32.1979 288.875 31.2965 288.55 30.4761C288.238 29.6568 287.758 28.9893 287.11 28.4735C286.461 27.9576 285.686 27.6576 284.783 27.5733C283.894 27.4902 283.083 27.6421 282.35 28.029C281.618 28.4159 281.022 28.983 280.564 29.7303C280.107 30.4643 279.832 31.3292 279.739 32.3248C279.648 33.3072 279.758 34.208 280.07 35.0272C280.381 35.8465 280.861 36.514 281.51 37.0298C282.158 37.5457 282.927 37.8451 283.816 37.9282C284.719 38.0125 285.536 37.8612 286.269 37.4743C287.001 37.0874 287.597 36.5203 288.055 35.773C288.526 35.0269 288.808 34.1627 288.9 33.1803ZM306.199 34.796C306.105 35.8049 305.851 36.732 305.437 37.5772C305.025 38.4091 304.483 39.1218 303.811 39.7153C303.153 40.31 302.395 40.7547 301.537 41.0496C300.681 41.3312 299.761 41.4261 298.779 41.3343C297.81 41.2438 296.931 40.9809 296.141 40.5456C295.353 40.097 294.683 39.519 294.134 38.8114C293.597 38.1051 293.203 37.305 292.952 36.4111C292.715 35.5052 292.644 34.5477 292.738 33.5388C292.832 32.5298 293.079 31.6088 293.478 30.7756C293.892 29.9304 294.428 29.2105 295.086 28.6158C295.757 28.0223 296.521 27.5848 297.378 27.3032C298.235 27.0084 299.149 26.9062 300.118 26.9967C301.1 27.0885 301.986 27.3586 302.774 27.8072C303.564 28.2425 304.227 28.8133 304.764 29.5196C305.314 30.2272 305.714 31.0345 305.964 31.9417C306.215 32.8356 306.293 33.787 306.199 34.796ZM304.049 34.5951C304.14 33.6127 304.024 32.7113 303.698 31.8909C303.387 31.0716 302.907 30.4041 302.258 29.8883C301.61 29.3724 300.835 29.0724 299.932 28.9881C299.043 28.905 298.232 29.0569 297.499 29.4438C296.767 29.8307 296.171 30.3978 295.713 31.1451C295.256 31.8791 294.981 32.744 294.888 33.7396C294.797 34.722 294.907 35.6228 295.219 36.442C295.53 37.2613 296.01 37.9288 296.659 38.4446C297.307 38.9605 298.076 39.2599 298.965 39.343C299.868 39.4273 300.685 39.276 301.418 38.8891C302.15 38.5022 302.746 37.9351 303.204 37.1878C303.675 36.4417 303.957 35.5775 304.049 34.5951ZM314.91 28.579C315.613 28.6447 316.246 28.898 316.807 29.3388C317.37 29.7663 317.8 30.322 318.098 31.006C318.396 31.69 318.507 32.4369 318.431 33.2467C318.355 34.0565 318.107 34.7766 317.687 35.4069C317.268 36.0239 316.741 36.5036 316.106 36.8461C315.473 37.1753 314.804 37.3071 314.101 37.2413L310.258 36.8824L310.447 36.5787L310.019 41.1587C309.992 41.4508 309.876 41.6877 309.671 41.8695C309.481 42.0392 309.24 42.1105 308.948 42.0832C308.67 42.0572 308.446 41.9425 308.277 41.7393C308.123 41.5241 308.06 41.2704 308.087 40.9783L309.199 29.0702C309.227 28.7781 309.349 28.5484 309.565 28.3812C309.783 28.2006 310.031 28.1234 310.31 28.1494L314.91 28.579ZM314.279 35.3297C314.625 35.3619 314.947 35.2782 315.247 35.0785C315.56 34.8801 315.82 34.6031 316.028 34.2475C316.248 33.8932 316.379 33.4969 316.42 33.0589C316.461 32.6208 316.405 32.2138 316.253 31.838C316.114 31.4635 315.908 31.1563 315.636 30.9167C315.378 30.6649 315.076 30.523 314.731 30.4907L310.848 30.1281L311.075 29.848L310.571 35.2445L310.416 34.9689L314.279 35.3297ZM324.215 43.7099C323.259 43.6206 322.422 43.4085 321.703 43.0735C320.985 42.7386 320.315 42.2342 319.695 41.5603C319.559 41.4404 319.458 41.3038 319.392 41.1503C319.341 40.9848 319.322 40.8224 319.337 40.6631C319.361 40.4108 319.475 40.1938 319.679 40.0121C319.884 39.8303 320.125 39.7524 320.404 39.7784C320.616 39.7983 320.809 39.8899 320.981 40.0533C321.442 40.565 321.934 40.9658 322.456 41.2556C322.991 41.5466 323.63 41.7269 324.374 41.7963C324.905 41.8459 325.397 41.8049 325.851 41.6732C326.319 41.5428 326.699 41.3439 326.992 41.0767C327.285 40.8094 327.449 40.4833 327.485 40.0983C327.53 39.6204 327.427 39.2157 327.176 38.8843C326.941 38.5409 326.573 38.2455 326.074 37.998C325.589 37.7385 324.996 37.5022 324.292 37.2892C323.64 37.1078 323.058 36.886 322.547 36.624C322.049 36.3633 321.629 36.0562 321.287 35.7029C320.946 35.3363 320.697 34.918 320.54 34.448C320.383 33.9781 320.333 33.4444 320.388 32.847C320.464 32.0372 320.742 31.36 321.221 30.8156C321.7 30.2711 322.32 29.8737 323.08 29.6233C323.84 29.3728 324.678 29.2904 325.594 29.376C326.43 29.4541 327.201 29.66 327.906 29.9937C328.613 30.3141 329.171 30.7144 329.582 31.1947C329.875 31.5032 330.006 31.8168 329.976 32.1354C329.954 32.3744 329.833 32.5908 329.614 32.7846C329.41 32.9664 329.181 33.0455 328.929 33.0219C328.743 33.0046 328.589 32.9366 328.466 32.818C328.275 32.5725 328.008 32.3467 327.666 32.1406C327.325 31.9213 326.954 31.7326 326.553 31.5747C326.166 31.4181 325.787 31.3224 325.415 31.2876C324.818 31.2319 324.299 31.2704 323.858 31.4033C323.418 31.5229 323.072 31.7183 322.819 31.9892C322.567 32.247 322.423 32.5683 322.387 32.9533C322.345 33.4047 322.436 33.7882 322.661 34.1038C322.9 34.4206 323.242 34.6937 323.69 34.9229C324.138 35.1389 324.654 35.3478 325.238 35.5496C325.953 35.7771 326.587 36.0171 327.139 36.2696C327.705 36.5232 328.172 36.828 328.541 37.1838C328.91 37.5263 329.18 37.9398 329.349 38.4243C329.518 38.9088 329.57 39.4962 329.505 40.1865C329.431 40.9831 329.14 41.659 328.633 42.2142C328.126 42.7695 327.485 43.1783 326.711 43.4408C325.95 43.7045 325.118 43.7942 324.215 43.7099ZM332.773 40.0297C332.388 39.9938 332.202 39.7622 332.216 39.3349L332.488 31.4661C332.494 31.1185 332.608 30.8345 332.829 30.6141C333.051 30.3938 333.334 30.2997 333.679 30.3319C334.011 30.3629 334.265 30.5072 334.442 30.7648C334.632 31.0236 334.691 31.3237 334.619 31.6651L333.45 39.4502C333.384 39.8725 333.158 40.0657 332.773 40.0297ZM332.278 44.262C331.946 44.231 331.696 44.1139 331.527 43.9107C331.372 43.7087 331.31 43.4418 331.341 43.1099L331.374 42.7514C331.407 42.4063 331.517 42.1555 331.706 41.999C331.909 41.8305 332.176 41.7617 332.508 41.7927L332.707 41.8113C333.053 41.8436 333.303 41.9607 333.458 42.1626C333.615 42.3513 333.677 42.6183 333.644 42.9634L333.611 43.3219C333.58 43.6538 333.469 43.9046 333.28 44.0743C333.09 44.2441 332.822 44.3128 332.477 44.2806L332.278 44.262Z" fill="black"/>
<path d="M264.45 163.4C264.45 173.6 250.35 182.2 240.25 182.2" stroke="black" stroke-miterlimit="10" stroke-linecap="round"/>
</g>
<defs>
<clipPath id="clip0_5736_25843">
<rect width="387.5" height="335.1" fill="white" transform="translate(0.25)"/>
</clipPath>
</defs>
</svg>
