<svg width="25" height="24" viewBox="0 0 25 24" fill="none" xmlns="http://www.w3.org/2000/svg">
<g clip-path="url(#clip0_624_1651)">
<path d="M12.0156 15H7.51562C6.91889 15 6.34659 15.2371 5.92463 15.659C5.50268 16.081 5.26562 16.6533 5.26562 17.25V18.75H6.76562V17.25C6.76562 17.0511 6.84464 16.8603 6.9853 16.7197C7.12595 16.579 7.31671 16.5 7.51562 16.5H12.0156C12.2145 16.5 12.4053 16.579 12.546 16.7197C12.6866 16.8603 12.7656 17.0511 12.7656 17.25V18.75H14.2656V17.25C14.2656 16.6533 14.0286 16.081 13.6066 15.659C13.1847 15.2371 12.6124 15 12.0156 15ZM9.76562 14.25C10.359 14.25 10.939 14.0741 11.4323 13.7444C11.9257 13.4148 12.3102 12.9462 12.5373 12.3981C12.7643 11.8499 12.8237 11.2467 12.708 10.6647C12.5922 10.0828 12.3065 9.54824 11.8869 9.12868C11.4674 8.70912 10.9328 8.4234 10.3509 8.30765C9.76895 8.19189 9.16575 8.2513 8.61757 8.47836C8.0694 8.70543 7.60086 9.08994 7.27122 9.58329C6.94157 10.0766 6.76562 10.6567 6.76562 11.25C6.76562 12.0457 7.0817 12.8087 7.6443 13.3713C8.20691 13.9339 8.96998 14.25 9.76562 14.25ZM9.76562 9.75C10.0623 9.75 10.3523 9.83798 10.599 10.0028C10.8457 10.1676 11.0379 10.4019 11.1514 10.676C11.265 10.9501 11.2947 11.2517 11.2368 11.5426C11.1789 11.8336 11.0361 12.1009 10.8263 12.3107C10.6165 12.5204 10.3492 12.6633 10.0583 12.7212C9.76729 12.7791 9.46569 12.7494 9.1916 12.6358C8.91751 12.5223 8.68324 12.33 8.51842 12.0834C8.3536 11.8367 8.26562 11.5467 8.26562 11.25C8.26562 10.8522 8.42366 10.4706 8.70497 10.1893C8.98627 9.90804 9.3678 9.75 9.76562 9.75Z" fill="#106840"/>
<path d="M12.0156 15H7.51562C6.91889 15 6.34659 15.2371 5.92463 15.659C5.50268 16.081 5.26562 16.6533 5.26562 17.25V18.75H6.76562V17.25C6.76562 17.0511 6.84464 16.8603 6.9853 16.7197C7.12595 16.579 7.31671 16.5 7.51562 16.5H12.0156C12.2145 16.5 12.4053 16.579 12.546 16.7197C12.6866 16.8603 12.7656 17.0511 12.7656 17.25V18.75H14.2656V17.25C14.2656 16.6533 14.0286 16.081 13.6066 15.659C13.1847 15.2371 12.6124 15 12.0156 15ZM9.76562 14.25C10.359 14.25 10.939 14.0741 11.4323 13.7444C11.9257 13.4148 12.3102 12.9462 12.5373 12.3981C12.7643 11.8499 12.8237 11.2467 12.708 10.6647C12.5922 10.0828 12.3065 9.54824 11.8869 9.12868C11.4674 8.70912 10.9328 8.4234 10.3509 8.30765C9.76895 8.19189 9.16575 8.2513 8.61757 8.47836C8.0694 8.70543 7.60086 9.08994 7.27122 9.58329C6.94157 10.0766 6.76562 10.6567 6.76562 11.25C6.76562 12.0457 7.0817 12.8087 7.6443 13.3713C8.20691 13.9339 8.96998 14.25 9.76562 14.25ZM9.76562 9.75C10.0623 9.75 10.3523 9.83798 10.599 10.0028C10.8457 10.1676 11.0379 10.4019 11.1514 10.676C11.265 10.9501 11.2947 11.2517 11.2368 11.5426C11.1789 11.8336 11.0361 12.1009 10.8263 12.3107C10.6165 12.5204 10.3492 12.6633 10.0583 12.7212C9.76729 12.7791 9.46569 12.7494 9.1916 12.6358C8.91751 12.5223 8.68324 12.33 8.51842 12.0834C8.3536 11.8367 8.26562 11.5467 8.26562 11.25C8.26562 10.8522 8.42366 10.4706 8.70497 10.1893C8.98627 9.90804 9.3678 9.75 9.76562 9.75Z" fill="black" fillOpacity="0.2"/>
<path d="M12.0156 15H7.51562C6.91889 15 6.34659 15.2371 5.92463 15.659C5.50268 16.081 5.26562 16.6533 5.26562 17.25V18.75H6.76562V17.25C6.76562 17.0511 6.84464 16.8603 6.9853 16.7197C7.12595 16.579 7.31671 16.5 7.51562 16.5H12.0156C12.2145 16.5 12.4053 16.579 12.546 16.7197C12.6866 16.8603 12.7656 17.0511 12.7656 17.25V18.75H14.2656V17.25C14.2656 16.6533 14.0286 16.081 13.6066 15.659C13.1847 15.2371 12.6124 15 12.0156 15ZM9.76562 14.25C10.359 14.25 10.939 14.0741 11.4323 13.7444C11.9257 13.4148 12.3102 12.9462 12.5373 12.3981C12.7643 11.8499 12.8237 11.2467 12.708 10.6647C12.5922 10.0828 12.3065 9.54824 11.8869 9.12868C11.4674 8.70912 10.9328 8.4234 10.3509 8.30765C9.76895 8.19189 9.16575 8.2513 8.61757 8.47836C8.0694 8.70543 7.60086 9.08994 7.27122 9.58329C6.94157 10.0766 6.76562 10.6567 6.76562 11.25C6.76562 12.0457 7.0817 12.8087 7.6443 13.3713C8.20691 13.9339 8.96998 14.25 9.76562 14.25ZM9.76562 9.75C10.0623 9.75 10.3523 9.83798 10.599 10.0028C10.8457 10.1676 11.0379 10.4019 11.1514 10.676C11.265 10.9501 11.2947 11.2517 11.2368 11.5426C11.1789 11.8336 11.0361 12.1009 10.8263 12.3107C10.6165 12.5204 10.3492 12.6633 10.0583 12.7212C9.76729 12.7791 9.46569 12.7494 9.1916 12.6358C8.91751 12.5223 8.68324 12.33 8.51842 12.0834C8.3536 11.8367 8.26562 11.5467 8.26562 11.25C8.26562 10.8522 8.42366 10.4706 8.70497 10.1893C8.98627 9.90804 9.3678 9.75 9.76562 9.75Z" fill="black" fillOpacity="0.2"/>
<path d="M12.0156 15H7.51562C6.91889 15 6.34659 15.2371 5.92463 15.659C5.50268 16.081 5.26562 16.6533 5.26562 17.25V18.75H6.76562V17.25C6.76562 17.0511 6.84464 16.8603 6.9853 16.7197C7.12595 16.579 7.31671 16.5 7.51562 16.5H12.0156C12.2145 16.5 12.4053 16.579 12.546 16.7197C12.6866 16.8603 12.7656 17.0511 12.7656 17.25V18.75H14.2656V17.25C14.2656 16.6533 14.0286 16.081 13.6066 15.659C13.1847 15.2371 12.6124 15 12.0156 15ZM9.76562 14.25C10.359 14.25 10.939 14.0741 11.4323 13.7444C11.9257 13.4148 12.3102 12.9462 12.5373 12.3981C12.7643 11.8499 12.8237 11.2467 12.708 10.6647C12.5922 10.0828 12.3065 9.54824 11.8869 9.12868C11.4674 8.70912 10.9328 8.4234 10.3509 8.30765C9.76895 8.19189 9.16575 8.2513 8.61757 8.47836C8.0694 8.70543 7.60086 9.08994 7.27122 9.58329C6.94157 10.0766 6.76562 10.6567 6.76562 11.25C6.76562 12.0457 7.0817 12.8087 7.6443 13.3713C8.20691 13.9339 8.96998 14.25 9.76562 14.25ZM9.76562 9.75C10.0623 9.75 10.3523 9.83798 10.599 10.0028C10.8457 10.1676 11.0379 10.4019 11.1514 10.676C11.265 10.9501 11.2947 11.2517 11.2368 11.5426C11.1789 11.8336 11.0361 12.1009 10.8263 12.3107C10.6165 12.5204 10.3492 12.6633 10.0583 12.7212C9.76729 12.7791 9.46569 12.7494 9.1916 12.6358C8.91751 12.5223 8.68324 12.33 8.51842 12.0834C8.3536 11.8367 8.26562 11.5467 8.26562 11.25C8.26562 10.8522 8.42366 10.4706 8.70497 10.1893C8.98627 9.90804 9.3678 9.75 9.76562 9.75Z" fill="black" fillOpacity="0.2"/>
<path d="M12.0156 15H7.51562C6.91889 15 6.34659 15.2371 5.92463 15.659C5.50268 16.081 5.26562 16.6533 5.26562 17.25V18.75H6.76562V17.25C6.76562 17.0511 6.84464 16.8603 6.9853 16.7197C7.12595 16.579 7.31671 16.5 7.51562 16.5H12.0156C12.2145 16.5 12.4053 16.579 12.546 16.7197C12.6866 16.8603 12.7656 17.0511 12.7656 17.25V18.75H14.2656V17.25C14.2656 16.6533 14.0286 16.081 13.6066 15.659C13.1847 15.2371 12.6124 15 12.0156 15ZM9.76562 14.25C10.359 14.25 10.939 14.0741 11.4323 13.7444C11.9257 13.4148 12.3102 12.9462 12.5373 12.3981C12.7643 11.8499 12.8237 11.2467 12.708 10.6647C12.5922 10.0828 12.3065 9.54824 11.8869 9.12868C11.4674 8.70912 10.9328 8.4234 10.3509 8.30765C9.76895 8.19189 9.16575 8.2513 8.61757 8.47836C8.0694 8.70543 7.60086 9.08994 7.27122 9.58329C6.94157 10.0766 6.76562 10.6567 6.76562 11.25C6.76562 12.0457 7.0817 12.8087 7.6443 13.3713C8.20691 13.9339 8.96998 14.25 9.76562 14.25ZM9.76562 9.75C10.0623 9.75 10.3523 9.83798 10.599 10.0028C10.8457 10.1676 11.0379 10.4019 11.1514 10.676C11.265 10.9501 11.2947 11.2517 11.2368 11.5426C11.1789 11.8336 11.0361 12.1009 10.8263 12.3107C10.6165 12.5204 10.3492 12.6633 10.0583 12.7212C9.76729 12.7791 9.46569 12.7494 9.1916 12.6358C8.91751 12.5223 8.68324 12.33 8.51842 12.0834C8.3536 11.8367 8.26562 11.5467 8.26562 11.25C8.26562 10.8522 8.42366 10.4706 8.70497 10.1893C8.98627 9.90804 9.3678 9.75 9.76562 9.75Z" fill="black" fillOpacity="0.2"/>
<path d="M21.7656 14.25V21H3.76562V6H12.7656V4.5H3.76562C3.3678 4.5 2.98627 4.65804 2.70496 4.93934C2.42366 5.22064 2.26563 5.60218 2.26562 6V21C2.26563 21.3978 2.42366 21.7794 2.70496 22.0607C2.98627 22.342 3.3678 22.5 3.76562 22.5H21.7656C22.1635 22.5 22.545 22.342 22.8263 22.0607C23.1076 21.7794 23.2656 21.3978 23.2656 21V14.25H21.7656Z" fill="#106840"/>
<path d="M21.7656 14.25V21H3.76562V6H12.7656V4.5H3.76562C3.3678 4.5 2.98627 4.65804 2.70496 4.93934C2.42366 5.22064 2.26563 5.60218 2.26562 6V21C2.26563 21.3978 2.42366 21.7794 2.70496 22.0607C2.98627 22.342 3.3678 22.5 3.76562 22.5H21.7656C22.1635 22.5 22.545 22.342 22.8263 22.0607C23.1076 21.7794 23.2656 21.3978 23.2656 21V14.25H21.7656Z" fill="black" fillOpacity="0.2"/>
<path d="M21.7656 14.25V21H3.76562V6H12.7656V4.5H3.76562C3.3678 4.5 2.98627 4.65804 2.70496 4.93934C2.42366 5.22064 2.26563 5.60218 2.26562 6V21C2.26563 21.3978 2.42366 21.7794 2.70496 22.0607C2.98627 22.342 3.3678 22.5 3.76562 22.5H21.7656C22.1635 22.5 22.545 22.342 22.8263 22.0607C23.1076 21.7794 23.2656 21.3978 23.2656 21V14.25H21.7656Z" fill="black" fillOpacity="0.2"/>
<path d="M21.7656 14.25V21H3.76562V6H12.7656V4.5H3.76562C3.3678 4.5 2.98627 4.65804 2.70496 4.93934C2.42366 5.22064 2.26563 5.60218 2.26562 6V21C2.26563 21.3978 2.42366 21.7794 2.70496 22.0607C2.98627 22.342 3.3678 22.5 3.76562 22.5H21.7656C22.1635 22.5 22.545 22.342 22.8263 22.0607C23.1076 21.7794 23.2656 21.3978 23.2656 21V14.25H21.7656Z" fill="black" fillOpacity="0.2"/>
<path d="M21.7656 14.25V21H3.76562V6H12.7656V4.5H3.76562C3.3678 4.5 2.98627 4.65804 2.70496 4.93934C2.42366 5.22064 2.26563 5.60218 2.26562 6V21C2.26563 21.3978 2.42366 21.7794 2.70496 22.0607C2.98627 22.342 3.3678 22.5 3.76562 22.5H21.7656C22.1635 22.5 22.545 22.342 22.8263 22.0607C23.1076 21.7794 23.2656 21.3978 23.2656 21V14.25H21.7656Z" fill="black" fillOpacity="0.2"/>
<path d="M15.7656 14.25H20.2656V15.75H15.7656V14.25ZM17.2656 17.25H20.2656V18.75H17.2656V17.25ZM24.7656 7.5V6H23.1899C23.0931 5.53052 22.9067 5.08411 22.6409 4.68525L23.7584 3.56775L22.6979 2.50725L21.5804 3.62475C21.1815 3.35888 20.7351 3.17248 20.2656 3.07575V1.5H18.7656V3.07575C18.2961 3.17248 17.8497 3.35888 17.4509 3.62475L16.3334 2.50725L15.2729 3.56775L16.3904 4.68525C16.1245 5.08411 15.9381 5.53052 15.8414 6H14.2656V7.5H15.8414C15.9381 7.96948 16.1245 8.41589 16.3904 8.81475L15.2729 9.93225L16.3334 10.9928L17.4509 9.87525C17.8497 10.1411 18.2961 10.3275 18.7656 10.4242V12H20.2656V10.4242C20.7351 10.3275 21.1815 10.1411 21.5804 9.87525L22.6979 10.9928L23.7584 9.93225L22.6409 8.81475C22.9067 8.41589 23.0931 7.96948 23.1899 7.5H24.7656ZM19.5156 9C19.0706 9 18.6356 8.86804 18.2656 8.62081C17.8956 8.37357 17.6072 8.02217 17.4369 7.61104C17.2666 7.1999 17.222 6.7475 17.3089 6.31105C17.3957 5.87459 17.61 5.47368 17.9246 5.15901C18.2393 4.84434 18.6402 4.63005 19.0767 4.54323C19.5131 4.45642 19.9655 4.50097 20.3767 4.67127C20.7878 4.84157 21.1392 5.12996 21.3864 5.49997C21.6337 5.86998 21.7656 6.30499 21.7656 6.75C21.765 7.34655 21.5278 7.9185 21.106 8.34033C20.6841 8.76216 20.1122 8.9994 19.5156 9Z" fill="#106840"/>
<path d="M15.7656 14.25H20.2656V15.75H15.7656V14.25ZM17.2656 17.25H20.2656V18.75H17.2656V17.25ZM24.7656 7.5V6H23.1899C23.0931 5.53052 22.9067 5.08411 22.6409 4.68525L23.7584 3.56775L22.6979 2.50725L21.5804 3.62475C21.1815 3.35888 20.7351 3.17248 20.2656 3.07575V1.5H18.7656V3.07575C18.2961 3.17248 17.8497 3.35888 17.4509 3.62475L16.3334 2.50725L15.2729 3.56775L16.3904 4.68525C16.1245 5.08411 15.9381 5.53052 15.8414 6H14.2656V7.5H15.8414C15.9381 7.96948 16.1245 8.41589 16.3904 8.81475L15.2729 9.93225L16.3334 10.9928L17.4509 9.87525C17.8497 10.1411 18.2961 10.3275 18.7656 10.4242V12H20.2656V10.4242C20.7351 10.3275 21.1815 10.1411 21.5804 9.87525L22.6979 10.9928L23.7584 9.93225L22.6409 8.81475C22.9067 8.41589 23.0931 7.96948 23.1899 7.5H24.7656ZM19.5156 9C19.0706 9 18.6356 8.86804 18.2656 8.62081C17.8956 8.37357 17.6072 8.02217 17.4369 7.61104C17.2666 7.1999 17.222 6.7475 17.3089 6.31105C17.3957 5.87459 17.61 5.47368 17.9246 5.15901C18.2393 4.84434 18.6402 4.63005 19.0767 4.54323C19.5131 4.45642 19.9655 4.50097 20.3767 4.67127C20.7878 4.84157 21.1392 5.12996 21.3864 5.49997C21.6337 5.86998 21.7656 6.30499 21.7656 6.75C21.765 7.34655 21.5278 7.9185 21.106 8.34033C20.6841 8.76216 20.1122 8.9994 19.5156 9Z" fill="black" fillOpacity="0.2"/>
<path d="M15.7656 14.25H20.2656V15.75H15.7656V14.25ZM17.2656 17.25H20.2656V18.75H17.2656V17.25ZM24.7656 7.5V6H23.1899C23.0931 5.53052 22.9067 5.08411 22.6409 4.68525L23.7584 3.56775L22.6979 2.50725L21.5804 3.62475C21.1815 3.35888 20.7351 3.17248 20.2656 3.07575V1.5H18.7656V3.07575C18.2961 3.17248 17.8497 3.35888 17.4509 3.62475L16.3334 2.50725L15.2729 3.56775L16.3904 4.68525C16.1245 5.08411 15.9381 5.53052 15.8414 6H14.2656V7.5H15.8414C15.9381 7.96948 16.1245 8.41589 16.3904 8.81475L15.2729 9.93225L16.3334 10.9928L17.4509 9.87525C17.8497 10.1411 18.2961 10.3275 18.7656 10.4242V12H20.2656V10.4242C20.7351 10.3275 21.1815 10.1411 21.5804 9.87525L22.6979 10.9928L23.7584 9.93225L22.6409 8.81475C22.9067 8.41589 23.0931 7.96948 23.1899 7.5H24.7656ZM19.5156 9C19.0706 9 18.6356 8.86804 18.2656 8.62081C17.8956 8.37357 17.6072 8.02217 17.4369 7.61104C17.2666 7.1999 17.222 6.7475 17.3089 6.31105C17.3957 5.87459 17.61 5.47368 17.9246 5.15901C18.2393 4.84434 18.6402 4.63005 19.0767 4.54323C19.5131 4.45642 19.9655 4.50097 20.3767 4.67127C20.7878 4.84157 21.1392 5.12996 21.3864 5.49997C21.6337 5.86998 21.7656 6.30499 21.7656 6.75C21.765 7.34655 21.5278 7.9185 21.106 8.34033C20.6841 8.76216 20.1122 8.9994 19.5156 9Z" fill="black" fillOpacity="0.2"/>
<path d="M15.7656 14.25H20.2656V15.75H15.7656V14.25ZM17.2656 17.25H20.2656V18.75H17.2656V17.25ZM24.7656 7.5V6H23.1899C23.0931 5.53052 22.9067 5.08411 22.6409 4.68525L23.7584 3.56775L22.6979 2.50725L21.5804 3.62475C21.1815 3.35888 20.7351 3.17248 20.2656 3.07575V1.5H18.7656V3.07575C18.2961 3.17248 17.8497 3.35888 17.4509 3.62475L16.3334 2.50725L15.2729 3.56775L16.3904 4.68525C16.1245 5.08411 15.9381 5.53052 15.8414 6H14.2656V7.5H15.8414C15.9381 7.96948 16.1245 8.41589 16.3904 8.81475L15.2729 9.93225L16.3334 10.9928L17.4509 9.87525C17.8497 10.1411 18.2961 10.3275 18.7656 10.4242V12H20.2656V10.4242C20.7351 10.3275 21.1815 10.1411 21.5804 9.87525L22.6979 10.9928L23.7584 9.93225L22.6409 8.81475C22.9067 8.41589 23.0931 7.96948 23.1899 7.5H24.7656ZM19.5156 9C19.0706 9 18.6356 8.86804 18.2656 8.62081C17.8956 8.37357 17.6072 8.02217 17.4369 7.61104C17.2666 7.1999 17.222 6.7475 17.3089 6.31105C17.3957 5.87459 17.61 5.47368 17.9246 5.15901C18.2393 4.84434 18.6402 4.63005 19.0767 4.54323C19.5131 4.45642 19.9655 4.50097 20.3767 4.67127C20.7878 4.84157 21.1392 5.12996 21.3864 5.49997C21.6337 5.86998 21.7656 6.30499 21.7656 6.75C21.765 7.34655 21.5278 7.9185 21.106 8.34033C20.6841 8.76216 20.1122 8.9994 19.5156 9Z" fill="black" fillOpacity="0.2"/>
<path d="M15.7656 14.25H20.2656V15.75H15.7656V14.25ZM17.2656 17.25H20.2656V18.75H17.2656V17.25ZM24.7656 7.5V6H23.1899C23.0931 5.53052 22.9067 5.08411 22.6409 4.68525L23.7584 3.56775L22.6979 2.50725L21.5804 3.62475C21.1815 3.35888 20.7351 3.17248 20.2656 3.07575V1.5H18.7656V3.07575C18.2961 3.17248 17.8497 3.35888 17.4509 3.62475L16.3334 2.50725L15.2729 3.56775L16.3904 4.68525C16.1245 5.08411 15.9381 5.53052 15.8414 6H14.2656V7.5H15.8414C15.9381 7.96948 16.1245 8.41589 16.3904 8.81475L15.2729 9.93225L16.3334 10.9928L17.4509 9.87525C17.8497 10.1411 18.2961 10.3275 18.7656 10.4242V12H20.2656V10.4242C20.7351 10.3275 21.1815 10.1411 21.5804 9.87525L22.6979 10.9928L23.7584 9.93225L22.6409 8.81475C22.9067 8.41589 23.0931 7.96948 23.1899 7.5H24.7656ZM19.5156 9C19.0706 9 18.6356 8.86804 18.2656 8.62081C17.8956 8.37357 17.6072 8.02217 17.4369 7.61104C17.2666 7.1999 17.222 6.7475 17.3089 6.31105C17.3957 5.87459 17.61 5.47368 17.9246 5.15901C18.2393 4.84434 18.6402 4.63005 19.0767 4.54323C19.5131 4.45642 19.9655 4.50097 20.3767 4.67127C20.7878 4.84157 21.1392 5.12996 21.3864 5.49997C21.6337 5.86998 21.7656 6.30499 21.7656 6.75C21.765 7.34655 21.5278 7.9185 21.106 8.34033C20.6841 8.76216 20.1122 8.9994 19.5156 9Z" fill="black" fillOpacity="0.2"/>
</g>
<defs>
<clipPath id="clip0_624_1651">
<rect width="24" height="24" fill="white" transform="translate(0.765625)"/>
</clipPath>
</defs>
</svg>
