<svg width="675" height="345" viewBox="0 0 675 345" fill="none" xmlns="http://www.w3.org/2000/svg">
<path d="M23.1067 261.352C23.1067 261.352 20.3941 267.7 35.225 272.128C50.0559 276.556 58.3056 277.721 58.3056 277.721C58.3056 277.721 61.475 279.026 59.9835 281.31C58.492 283.593 53.71 287.229 55.2574 290.37C56.8048 293.512 60.9064 294.052 66.4435 292.375C71.9806 290.697 84.1548 287.443 85.2827 287.154C86.4107 286.865 88.0793 287.201 87.3335 288.925C86.5878 290.65 78.366 301.239 83.6048 304.828C88.8437 308.417 103.451 301.202 105.045 300.438C106.639 299.673 107.441 299.879 108 300.606C108.559 301.333 105.474 304.633 103.274 307.746C101.074 310.86 99.051 314.84 102.258 316.658C105.464 318.475 117.172 317.105 133.952 302.675L141.278 295.479L138.864 285.458C132.404 264.316 123.25 256.924 119.568 256.747C115.886 256.57 115.457 261.016 115.662 264.829C115.867 268.641 116.725 273.069 115.858 273.386C114.991 273.703 114.217 273.451 113.267 271.951C112.316 270.45 103.824 256.56 97.4197 256.784C91.0156 257.008 92.33 270.338 92.0597 272.202C91.7893 274.067 90.1953 273.423 89.3843 272.603C88.5733 271.783 80.0066 262.508 76.2407 258.136C72.4747 253.764 68.7833 251.974 65.735 253.866C62.6868 255.759 64.8029 261.324 64.8868 264.046C64.9707 266.768 61.5589 266.19 61.5589 266.19C61.5589 266.19 53.9151 262.769 39.0376 258.611C24.1601 254.454 23.0694 261.408 23.0694 261.408" fill="#EBEBEB"/>
<path d="M143.329 296.847C132.423 293.752 113.117 287.916 96.5152 282.995C79.9132 278.073 64.8865 273.673 53.9894 270.485L41.0788 266.756L37.5738 265.74L36.6416 265.47C36.5367 265.443 36.4339 265.409 36.334 265.367L36.6509 265.442L37.5831 265.684L41.1067 266.616C44.1643 267.455 48.5641 268.695 54.0453 270.242C64.9611 273.337 79.9971 277.746 96.5898 282.668C113.182 287.59 132.488 293.454 143.385 296.651" fill="#E0E0E0"/>
<path d="M62.1172 285.587C62.3124 285.435 62.5252 285.307 62.7511 285.205C63.1705 284.981 63.7858 284.664 64.5502 284.273C66.0789 283.518 68.2229 282.53 70.6093 281.476L76.715 278.829L78.5794 278.018C78.7988 277.9 79.03 277.807 79.2692 277.738C79.0763 277.896 78.8631 278.028 78.6353 278.13L76.8269 279.062C75.2888 279.798 73.0982 280.759 70.7491 281.803L64.662 284.497L62.7977 285.317C62.5817 285.432 62.3534 285.523 62.1172 285.587Z" fill="#E0E0E0"/>
<path d="M79.2615 276.802C79.1776 276.849 76.959 272.524 74.293 267.145C71.627 261.766 69.5762 257.385 69.5762 257.348C69.5762 257.311 71.888 261.636 74.5447 267.005C77.2014 272.375 79.336 276.765 79.2615 276.802Z" fill="#E0E0E0"/>
<path d="M104.411 285.509C104.323 285.272 104.263 285.025 104.234 284.773C104.141 284.232 104.02 283.552 103.871 282.741C103.563 281.035 103.134 278.667 102.556 276.085C101.978 273.503 101.382 271.172 100.934 269.485C100.729 268.693 100.552 268.031 100.412 267.5C100.323 267.26 100.27 267.009 100.254 266.754C100.365 266.981 100.456 267.218 100.524 267.462C100.683 267.919 100.906 268.59 101.149 269.429C101.652 271.098 102.295 273.419 102.864 276.02C103.433 278.62 103.843 280.988 104.094 282.703C104.225 283.57 104.309 284.269 104.365 284.754C104.403 285.004 104.419 285.257 104.411 285.509Z" fill="#E0E0E0"/>
<path d="M90.6445 296.84C90.7918 296.656 90.9573 296.487 91.1386 296.336L92.5648 295.069C93.7673 294.006 95.4546 292.561 97.3282 290.976C99.2019 289.392 100.908 287.966 102.148 286.95L103.639 285.756C103.814 285.603 104.005 285.469 104.208 285.355C104.208 285.355 104.049 285.551 103.714 285.859L102.297 287.127C101.085 288.189 99.407 289.634 97.5333 291.219C95.6596 292.804 93.9538 294.23 92.7046 295.246L91.2225 296.43C91.0489 296.592 90.8546 296.729 90.6445 296.84Z" fill="#E0E0E0"/>
<path d="M111.869 307.367C112.064 307.137 112.279 306.925 112.512 306.733L114.321 305.102C115.868 303.732 118.049 301.858 120.389 299.807C122.729 297.757 124.938 295.902 126.514 294.578L128.378 293.021C128.601 292.821 128.841 292.64 129.096 292.48C128.903 292.709 128.691 292.921 128.462 293.114L126.644 294.746C125.106 296.116 122.915 297.99 120.576 300.05C118.236 302.11 116.036 303.946 114.451 305.27L112.587 306.827C112.364 307.027 112.123 307.208 111.869 307.367Z" fill="#E0E0E0"/>
<path d="M128.603 292.731C128.498 292.427 128.417 292.116 128.361 291.799L127.811 289.245C127.344 287.092 126.683 284.118 125.862 280.855C125.042 277.593 124.231 274.647 123.625 272.531L122.907 270.014C122.799 269.712 122.724 269.4 122.684 269.082C122.823 269.383 122.938 269.695 123.028 270.014C123.234 270.601 123.513 271.45 123.839 272.503C124.501 274.61 125.35 277.546 126.17 280.818C126.99 284.09 127.615 287.073 128.034 289.208C128.23 290.289 128.389 291.165 128.482 291.78C128.55 292.093 128.591 292.411 128.603 292.731Z" fill="#E0E0E0"/>
<path d="M57.2635 0.143092C58.7658 0.0575465 60.2699 0.275982 61.6858 0.785328C63.1017 1.29467 64.4003 2.08446 65.5039 3.10741C67.7092 5.17998 69.4091 7.73136 70.4724 10.5648C72.6816 15.9435 72.607 22.6831 71.7401 28.3787C65.4386 26.999 60.8896 21.0518 58.7736 17.8917C55.4271 12.8952 52.4068 1.83033 57.2635 0.18038" fill="#EBEBEB"/>
<path d="M81.2858 33.9748C80.2002 32.6894 79.474 31.1396 79.1809 29.4828C78.8879 27.8259 79.0384 26.1211 79.6172 24.5412C80.2231 22.9722 81.1351 21.5393 82.3002 20.3263C83.4653 19.1132 84.8601 18.144 86.4034 17.4753C87.811 16.8321 89.4983 16.422 90.8872 17.1118C91.5178 17.4746 92.0397 17.9997 92.3987 18.6324C92.7577 19.2652 92.9407 19.9826 92.9287 20.71C92.8914 22.1669 92.4702 23.5882 91.7075 24.8302C89.2839 29.1741 86.1145 32.9401 81.2858 33.9748Z" fill="#EBEBEB"/>
<path d="M82.6727 48.4397C82.1351 47.2762 81.7166 46.0613 81.4236 44.8135C81.0631 43.4555 80.8598 42.0605 80.8177 40.656C80.7066 38.9488 80.7066 37.2362 80.8177 35.5291C81.0584 32.3962 82.0669 29.3708 83.754 26.72C84.2983 25.9332 84.9231 25.2053 85.6184 24.548C86.1124 24.1006 86.4107 23.8769 86.4387 23.9142C86.4666 23.9515 85.4133 24.9768 84.1921 26.9717C82.6709 29.6115 81.757 32.5571 81.5168 35.5943C81.3897 37.2722 81.3586 38.956 81.4236 40.6374C81.4375 42.0041 81.5905 43.3659 81.8803 44.7017C82.2329 45.9273 82.4977 47.1764 82.6727 48.4397Z" fill="#E0E0E0"/>
<path d="M60.3047 8.36719C60.7155 8.86995 61.0835 9.40628 61.4047 9.97053C62.0758 11.0239 63.0266 12.562 64.2012 14.4729C66.5223 18.2855 69.6637 23.5989 73.0009 29.5462C76.3381 35.4935 79.1905 40.9747 81.1761 44.9737C82.1735 46.9779 82.9565 48.6092 83.4785 49.7464C83.7801 50.3208 84.0326 50.9195 84.2336 51.5362C83.8744 51.0052 83.5625 50.4438 83.3014 49.8583C82.6582 48.6465 81.8193 47.0618 80.8218 45.1974C78.7245 41.2543 75.8067 35.8197 72.4323 29.8725C69.0578 23.9252 66.0655 18.6864 63.8003 14.7153L61.1903 10.101C60.836 9.55521 60.5392 8.97416 60.3047 8.36719Z" fill="#E0E0E0"/>
<path d="M75.9242 39.4412C73.3579 36.986 70.244 35.177 66.84 34.1639C63.436 33.1508 59.8396 32.9627 56.3485 33.6151C54.5867 33.9693 52.6198 34.8269 52.2283 36.598C51.8368 38.3692 53.4215 39.9259 54.9502 40.8861C58.179 42.8294 61.9111 43.7727 65.6755 43.5968C69.4399 43.4209 73.0678 42.1338 76.1013 39.8979" fill="#EBEBEB"/>
<path d="M60.3672 37.0676C60.691 36.9555 61.0313 36.8988 61.3739 36.8998C62.0265 36.8252 62.9773 36.7786 64.1705 36.7507C67.2562 36.6706 70.3304 37.1572 73.2405 38.1862C74.8396 38.7999 76.3287 39.6688 77.6497 40.759C78.7183 41.6657 79.6591 42.713 80.4462 43.8725C80.9694 44.6426 81.4188 45.4603 81.7886 46.3148C82.0496 46.9207 82.1801 47.247 82.1335 47.247C82.0869 47.247 81.4343 45.9699 80.0734 44.1055C79.2604 43.0281 78.3216 42.0517 77.2768 41.1971C75.9862 40.1781 74.5503 39.358 73.0168 38.7642C70.1709 37.7705 67.1844 37.2387 64.1705 37.1888C62.9014 37.2189 61.6317 37.1785 60.3672 37.0676Z" fill="#E0E0E0"/>
<path d="M278.383 343.453C277.857 342.216 277.586 340.886 277.586 339.542C277.586 338.199 277.857 336.869 278.383 335.632C279.471 333.173 281.103 330.993 283.156 329.256C287.015 325.807 292.664 323.868 297.753 322.898C298.471 328.613 294.817 334.196 292.785 336.881C289.578 341.178 281.17 347.004 278.346 343.406" fill="#EBEBEB"/>
<path d="M299.714 313.159C298.953 314.455 297.862 315.527 296.552 316.265C295.242 317.004 293.76 317.382 292.257 317.363C290.758 317.322 289.282 316.981 287.917 316.362C286.551 315.742 285.323 314.856 284.305 313.755C283.781 313.301 283.363 312.738 283.079 312.105C282.796 311.472 282.654 310.785 282.665 310.092C282.781 309.453 283.067 308.857 283.491 308.365C283.916 307.873 284.464 307.504 285.079 307.295C286.317 306.893 287.639 306.829 288.91 307.109C293.282 307.845 297.374 309.365 299.695 313.149" fill="#EBEBEB"/>
<path d="M311.479 307.684C310.657 308.479 309.758 309.191 308.794 309.809C307.765 310.522 306.654 311.111 305.485 311.561C304.077 312.149 302.632 312.645 301.16 313.044C298.455 313.775 295.611 313.826 292.882 313.193C292.065 312.981 291.272 312.687 290.514 312.317C289.992 312.028 289.713 311.85 289.731 311.813C289.75 311.776 290.934 312.363 292.975 312.792C295.647 313.286 298.394 313.181 301.02 312.484C302.468 312.086 303.893 311.61 305.289 311.058C306.436 310.643 307.536 310.109 308.571 309.464C309.499 308.805 310.47 308.21 311.479 307.684Z" fill="#E0E0E0"/>
<path d="M284.426 338.402C284.728 337.911 285.067 337.443 285.442 337.004C286.132 336.128 287.138 334.87 288.397 333.322C290.923 330.237 294.456 326.014 298.464 321.446C302.473 316.879 306.229 312.842 309.007 309.98C310.396 308.554 311.533 307.408 312.335 306.634C312.729 306.212 313.156 305.823 313.612 305.469C313.284 305.946 312.909 306.389 312.494 306.792L309.306 310.269C306.612 313.196 302.911 317.27 298.902 321.828L288.714 333.592L285.619 337.153C285.26 337.605 284.86 338.023 284.426 338.402Z" fill="#E0E0E0"/>
<path d="M305.923 316.04C304.622 318.925 304.028 322.078 304.19 325.237C304.352 328.397 305.266 331.473 306.855 334.209C307.675 335.598 308.989 337.005 310.584 336.791C312.178 336.576 313.035 334.805 313.38 333.23C314.053 329.938 313.736 326.521 312.47 323.41C311.205 320.298 309.046 317.63 306.268 315.742" fill="#EBEBEB"/>
<path d="M308.53 329.832C308.53 329.832 308.343 329.561 308.092 329.03C307.742 328.282 307.431 327.516 307.16 326.737C306.166 324.168 305.66 321.437 305.668 318.683C305.708 317.158 305.998 315.649 306.526 314.218C306.97 313.056 307.572 311.962 308.315 310.964C308.806 310.293 309.359 309.669 309.965 309.1C310.404 308.699 310.655 308.494 310.683 308.522C310.711 308.55 309.807 309.454 308.651 311.188C307.141 313.404 306.305 316.011 306.246 318.692C306.257 321.379 306.694 324.047 307.542 326.597C307.932 327.655 308.262 328.735 308.53 329.832Z" fill="#E0E0E0"/>
<path d="M1.5846 135.142C-2.33985 112.49 5.5277 87.4704 23.6119 73.2827C41.6961 59.095 69.7825 58.0323 87.2887 72.9191C99.6028 83.3875 105.373 99.3649 112.7 113.767C120.027 128.169 131.157 142.748 147.125 145.237C160.903 147.381 174.755 139.84 188.579 141.648C202.067 143.419 213.375 154.456 217.253 167.498C221.13 180.539 218.241 195.025 211.268 206.723C204.295 218.422 193.557 227.52 181.858 234.39C144.123 256.586 94.0377 255.83 56.9465 232.591C19.8552 209.352 -2.56358 164.543 1.01598 120.889" fill="#FF7400"/>
<g opacity="0.7">
<path d="M1.5807 135.138C-2.34376 112.486 5.5238 87.4665 23.608 73.2788C41.6922 59.0911 69.7786 58.0284 87.2848 72.9152C99.5989 83.3835 105.369 99.361 112.696 113.763C120.023 128.165 131.153 142.744 147.121 145.233C160.899 147.377 174.751 139.836 188.575 141.644C202.064 143.416 213.371 154.453 217.249 167.494C221.126 180.535 218.237 195.021 211.264 206.72C204.291 218.418 193.553 227.516 181.854 234.387C144.12 256.582 94.0338 255.827 56.9426 232.587C19.8513 209.348 -2.56748 164.539 1.01207 120.885" fill="white"/>
</g>
<path d="M220.247 337.864C232.495 329.475 238.266 311.055 230.603 298.349C222.838 286.781 210.794 277.562 197.045 275.623C183.295 273.684 168.017 280.19 161.874 292.682C158.005 300.549 157.996 310.067 161.203 318.223C164.583 326.392 170.536 333.236 178.159 337.715C190.827 345.405 207.998 346.254 220.247 337.864Z" fill="#FF7400"/>
<g opacity="0.7">
<path d="M220.243 337.864C232.491 329.475 238.262 311.055 230.599 298.349C222.834 286.781 210.79 277.562 197.041 275.623C183.291 273.684 168.013 280.19 161.87 292.682C158.001 300.549 157.992 310.067 161.199 318.223C164.579 326.392 170.533 333.236 178.155 337.715C190.823 345.405 207.994 346.254 220.243 337.864Z" fill="white"/>
</g>
<path d="M364.248 178.033C364.524 177.63 364.779 177.213 365.012 176.784C365.584 175.563 365.674 174.171 365.264 172.887C364.979 172.004 364.464 171.212 363.772 170.594L361.349 168.385L355.597 163.193H355.914L352.316 167.154L348.708 171.125V170.809L354.423 176.038L356.855 178.275C357.54 178.906 358.379 179.344 359.288 179.543C360.605 179.826 361.979 179.603 363.138 178.918C363.542 178.648 363.931 178.355 364.304 178.042C364.008 178.445 363.638 178.787 363.213 179.049C362.039 179.818 360.609 180.096 359.233 179.823C358.263 179.634 357.362 179.19 356.622 178.536L354.162 176.318L348.41 171.135L348.242 170.986L348.391 170.818C349.547 169.55 350.759 168.217 351.99 166.847C353.22 165.476 354.441 164.162 355.597 162.885L355.756 162.727L355.914 162.876L361.628 168.105L364.061 170.342C364.783 171.016 365.314 171.868 365.599 172.813C366 174.161 365.86 175.612 365.208 176.858C364.966 177.308 364.64 177.706 364.248 178.033Z" fill="#263238"/>
<path d="M269.988 280.646C269.47 280.793 268.922 280.793 268.404 280.646C267.488 280.502 266.609 280.186 265.812 279.714C265.632 279.619 265.469 279.496 265.327 279.35C265.223 279.243 265.157 279.104 265.142 278.955C265.127 278.806 265.163 278.656 265.244 278.53C265.318 278.422 265.416 278.333 265.531 278.269C265.646 278.206 265.774 278.171 265.905 278.166C266.106 278.157 266.308 278.179 266.502 278.232C266.842 278.313 267.175 278.419 267.499 278.548C268.037 278.785 268.536 279.099 268.982 279.481C269.727 280.142 269.988 280.72 269.914 280.748C269.839 280.776 269.485 280.329 268.721 279.816C268.281 279.5 267.801 279.243 267.294 279.052C266.991 278.939 266.68 278.851 266.362 278.791C266.027 278.707 265.738 278.707 265.654 278.856C265.57 279.005 265.654 278.94 265.654 279.033C265.761 279.141 265.883 279.232 266.017 279.304C266.288 279.472 266.568 279.624 266.856 279.76C267.355 279.992 267.872 280.179 268.404 280.32C268.939 280.389 269.469 280.499 269.988 280.646Z" fill="#263238"/>
<path d="M269.758 280.886C269.449 280.437 269.29 279.902 269.301 279.357C269.269 278.773 269.332 278.188 269.488 277.624C269.583 277.301 269.711 276.988 269.87 276.691C269.95 276.479 270.084 276.292 270.259 276.148C270.434 276.004 270.644 275.909 270.867 275.871C271.009 275.871 271.147 275.911 271.266 275.987C271.385 276.063 271.48 276.172 271.539 276.3C271.621 276.481 271.677 276.672 271.706 276.869C271.757 277.224 271.757 277.585 271.706 277.941C271.628 278.534 271.407 279.1 271.063 279.59C270.457 280.42 269.823 280.625 269.805 280.569C269.786 280.513 270.28 280.187 270.737 279.385C271.006 278.927 271.169 278.414 271.212 277.885C271.26 277.576 271.26 277.261 271.212 276.952C271.156 276.617 271.026 276.347 270.895 276.384C270.765 276.421 270.476 276.645 270.355 276.915C270.203 277.192 270.078 277.482 269.982 277.782C269.818 278.295 269.724 278.828 269.702 279.367C269.665 280.28 269.842 280.858 269.758 280.886Z" fill="#263238"/>
<path d="M281.084 265.679C281.084 265.837 280.319 265.781 279.48 266.033C278.641 266.284 278.036 266.704 277.933 266.592C277.83 266.48 278.334 265.8 279.331 265.52C280.329 265.24 281.177 265.548 281.084 265.679Z" fill="#263238"/>
<path d="M280.412 262.457C279.937 262.709 279.402 262.828 278.865 262.802C278.284 262.832 277.701 262.788 277.131 262.671C276.796 262.605 276.465 262.515 276.143 262.401C275.947 262.347 275.761 262.262 275.593 262.149C275.469 262.066 275.376 261.944 275.331 261.802C275.285 261.659 275.289 261.506 275.341 261.366C275.39 261.242 275.468 261.131 275.569 261.044C275.669 260.956 275.789 260.894 275.919 260.863C276.117 260.832 276.318 260.832 276.516 260.863C276.863 260.866 277.21 260.903 277.55 260.975C278.126 261.089 278.679 261.294 279.191 261.581C280.058 262.084 280.431 262.587 280.384 262.625C280.338 262.662 279.872 262.298 279.023 261.926C278.524 261.686 277.994 261.517 277.448 261.422C277.139 261.374 276.828 261.349 276.516 261.348C276.171 261.348 275.891 261.403 275.835 261.562C275.779 261.72 275.835 261.646 275.91 261.73C276.036 261.813 276.174 261.876 276.32 261.916C276.624 262.031 276.935 262.124 277.252 262.196C277.783 262.329 278.327 262.407 278.874 262.429C279.387 262.401 279.901 262.411 280.412 262.457Z" fill="#263238"/>
<path d="M280.244 262.722C280.244 262.722 279.778 262.284 279.498 261.324C279.332 260.752 279.269 260.156 279.312 259.562C279.34 259.216 279.4 258.873 279.489 258.537C279.527 258.314 279.621 258.104 279.763 257.928C279.905 257.752 280.09 257.615 280.3 257.53C280.438 257.503 280.581 257.514 280.712 257.564C280.844 257.613 280.96 257.698 281.045 257.81C281.164 257.973 281.258 258.152 281.325 258.341C281.456 258.675 281.538 259.027 281.567 259.385C281.616 259.982 281.513 260.582 281.269 261.128C280.85 262.061 280.262 262.396 280.244 262.34C280.225 262.284 280.635 261.865 280.915 260.998C281.082 260.494 281.136 259.959 281.073 259.432C281.035 259.128 280.957 258.83 280.84 258.546C280.719 258.229 280.533 257.996 280.421 258.052C280.309 258.108 280.067 258.397 279.992 258.686C279.904 258.991 279.841 259.303 279.806 259.618C279.749 260.155 279.765 260.698 279.852 261.231C280.048 262.154 280.337 262.676 280.244 262.722Z" fill="#263238"/>
<path d="M196.022 107.761C196.022 107.761 196.395 107.332 197.029 106.512C197.914 105.377 198.633 104.121 199.163 102.783C199.952 100.789 200.323 98.6533 200.254 96.5095C200.177 93.8824 199.391 91.3249 197.979 89.1081C196.518 86.9071 194.904 84.8109 193.151 82.8345C191.726 81.1838 190.494 79.3762 189.478 77.4466C188.792 76.1381 188.332 74.723 188.117 73.2611C188.067 72.8654 188.042 72.4668 188.042 72.0679C188.03 71.9284 188.03 71.788 188.042 71.6484C188.042 71.6484 188.042 72.2264 188.266 73.2331C188.547 74.6538 189.04 76.0239 189.73 77.2974C190.786 79.1781 192.035 80.9433 193.458 82.5642C195.241 84.543 196.876 86.6491 198.352 88.8657C199.8 91.1508 200.599 93.7866 200.664 96.4909C200.713 98.6908 200.297 100.876 199.443 102.904C198.879 104.262 198.102 105.521 197.14 106.633C196.889 106.942 196.615 107.232 196.32 107.5C196.232 107.599 196.132 107.687 196.022 107.761Z" fill="#263238"/>
<path d="M150.26 71.1622C150.26 71.5516 150.144 71.9323 149.928 72.2559C149.711 72.5796 149.404 72.8317 149.044 72.9803C148.684 73.1289 148.288 73.1673 147.906 73.0906C147.524 73.014 147.174 72.8257 146.899 72.5497C146.624 72.2737 146.438 71.9223 146.363 71.5402C146.288 71.158 146.328 70.7623 146.479 70.4031C146.629 70.0438 146.882 69.7373 147.207 69.5223C147.532 69.3073 147.913 69.1935 148.302 69.1953C148.56 69.1953 148.816 69.2463 149.054 69.3452C149.292 69.4442 149.508 69.5892 149.69 69.772C149.872 69.9547 150.016 70.1717 150.114 70.4102C150.211 70.6488 150.261 70.9044 150.26 71.1622Z" fill="#263238"/>
<path d="M170.834 71.9654C170.836 72.3548 170.722 72.736 170.507 73.0607C170.292 73.3853 169.986 73.6389 169.626 73.7892C169.267 73.9395 168.871 73.9798 168.489 73.9049C168.107 73.8301 167.756 73.6435 167.48 73.3688C167.204 73.0941 167.016 72.7437 166.939 72.3619C166.862 71.9801 166.901 71.5841 167.049 71.2242C167.198 70.8642 167.45 70.5565 167.774 70.34C168.097 70.1234 168.478 70.0078 168.867 70.0078C169.387 70.0078 169.886 70.2137 170.255 70.5806C170.623 70.9474 170.832 71.4453 170.834 71.9654Z" fill="#263238"/>
<path d="M213.041 94.0255C213.041 94.4145 212.926 94.7948 212.71 95.1182C212.494 95.4417 212.186 95.6938 211.827 95.8427C211.468 95.9915 211.072 96.0305 210.691 95.9546C210.309 95.8787 209.959 95.6914 209.684 95.4163C209.408 95.1412 209.221 94.7907 209.145 94.4092C209.069 94.0277 209.108 93.6322 209.257 93.2728C209.406 92.9134 209.658 92.6062 209.982 92.3901C210.305 92.174 210.685 92.0586 211.074 92.0586C211.333 92.0586 211.588 92.1095 211.827 92.2083C212.066 92.3072 212.282 92.452 212.465 92.6347C212.648 92.8173 212.793 93.0342 212.891 93.2728C212.99 93.5114 213.041 93.7672 213.041 94.0255Z" fill="#263238"/>
<path d="M222.441 86.3049C223.528 86.3049 224.408 85.4243 224.408 84.338C224.408 83.2517 223.528 82.3711 222.441 82.3711C221.355 82.3711 220.475 83.2517 220.475 84.338C220.475 85.4243 221.355 86.3049 222.441 86.3049Z" fill="#263238"/>
<path d="M188.77 107.123C188.77 107.513 188.654 107.893 188.438 108.217C188.221 108.541 187.913 108.793 187.553 108.941C187.193 109.09 186.797 109.128 186.416 109.052C186.034 108.975 185.683 108.787 185.409 108.511C185.134 108.235 184.947 107.883 184.873 107.501C184.798 107.119 184.838 106.723 184.988 106.364C185.139 106.005 185.392 105.698 185.717 105.483C186.042 105.268 186.423 105.154 186.812 105.156C187.332 105.159 187.83 105.367 188.197 105.736C188.564 106.104 188.77 106.603 188.77 107.123Z" fill="#263238"/>
<path d="M195.912 118.274C195.914 118.664 195.8 119.045 195.585 119.37C195.369 119.695 195.062 119.949 194.702 120.099C194.343 120.249 193.946 120.288 193.564 120.213C193.182 120.137 192.83 119.95 192.555 119.674C192.279 119.398 192.091 119.047 192.016 118.665C191.94 118.282 191.98 117.886 192.13 117.526C192.28 117.167 192.534 116.859 192.858 116.644C193.183 116.429 193.565 116.315 193.955 116.316C194.473 116.319 194.97 116.526 195.336 116.892C195.703 117.259 195.91 117.756 195.912 118.274Z" fill="#263238"/>
<path d="M165.139 116.311C165.139 116.7 165.023 117.08 164.807 117.403C164.591 117.727 164.284 117.979 163.925 118.128C163.565 118.277 163.17 118.316 162.788 118.24C162.407 118.164 162.056 117.977 161.781 117.701C161.506 117.426 161.319 117.076 161.243 116.694C161.167 116.313 161.206 115.917 161.355 115.558C161.504 115.199 161.756 114.891 162.079 114.675C162.403 114.459 162.783 114.344 163.172 114.344C163.694 114.344 164.194 114.551 164.563 114.92C164.932 115.289 165.139 115.789 165.139 116.311Z" fill="#263238"/>
<path d="M134.983 98.9864C134.983 99.3754 134.867 99.7557 134.651 100.079C134.435 100.403 134.128 100.655 133.768 100.804C133.409 100.952 133.014 100.991 132.632 100.916C132.25 100.84 131.9 100.652 131.625 100.377C131.35 100.102 131.163 99.7517 131.087 99.3701C131.011 98.9886 131.05 98.5931 131.199 98.2337C131.347 97.8743 131.6 97.5671 131.923 97.351C132.246 97.1349 132.627 97.0195 133.016 97.0195C133.274 97.0195 133.53 97.0704 133.768 97.1693C134.007 97.2681 134.224 97.413 134.407 97.5956C134.589 97.7783 134.734 97.9951 134.833 98.2337C134.932 98.4724 134.983 98.7281 134.983 98.9864Z" fill="#263238"/>
<path d="M126.714 212.3C122.661 212.301 118.619 211.86 114.661 210.986C106.43 209.187 99.9983 206.53 95.0391 202.885C88.9048 205.029 82.4725 206.199 75.9761 206.353C54.8344 206.921 35.7062 200.312 12.234 181.315C11.0533 178.798 9.91602 176.129 8.82227 173.307C31.4089 191.587 55.8691 202.205 75.8549 201.711C80.9901 201.59 86.0867 200.791 91.0121 199.334C85.5589 193.647 82.8183 186.218 82.8556 177.194C82.8556 167.304 87.097 162.82 90.6206 160.797C95.6171 157.945 102.431 158.336 108.416 161.823C115.016 165.673 118.94 172.179 118.912 179.236C118.866 182.129 118.165 184.973 116.862 187.556C115.559 190.14 113.688 192.394 111.389 194.151C107.956 196.785 104.235 199.021 100.297 200.816C111.545 206.985 124.59 209.045 137.192 206.642C157.057 202.699 173.64 195.651 186.495 185.696C196.545 177.955 204.614 167.939 210.039 156.472C215.465 145.005 218.092 132.415 217.704 119.735V119.651C216.567 96.6824 203.143 74.2357 183.521 62.4716C166.49 52.2177 144.677 49.4212 122.109 54.5947C108.071 57.7828 88.9893 65.3427 77.7286 83.2684C65.6103 102.574 68.9009 126.549 78.8938 137.689C86.025 145.631 99.7 142.769 110.681 140.485L114.298 139.74C126.118 137.39 174.032 114.916 174.218 114.851L175.234 118.672C174.47 118.943 127.348 141.884 115.202 144.298C114.055 144.522 112.862 144.773 111.632 145.034C99.5135 147.579 84.3564 150.749 75.4355 140.802C68.9848 133.615 65.3959 123.231 65.34 111.569C65.2658 100.732 68.1921 90.0848 73.7948 80.8075C85.9131 61.5394 106.188 53.4575 121.075 50.0457C144.817 44.6577 167.851 47.6407 185.908 58.4353C206.816 70.973 221.106 94.874 222.337 119.334C222.439 120.593 223.689 138.407 214.162 158.579C208.434 170.661 199.912 181.205 189.301 189.341C175.877 199.744 158.632 207.052 138.031 211.172C134.304 211.914 130.514 212.292 126.714 212.3ZM98.0873 163.547C96.2676 163.512 94.4707 163.956 92.8765 164.834C89.3435 166.857 87.4605 171.135 87.4419 177.213C87.4419 185.901 90.1359 192.631 95.8315 197.628C100.352 195.822 104.605 193.407 108.472 190.45C110.211 189.13 111.629 187.434 112.62 185.489C113.612 183.544 114.15 181.4 114.195 179.217C114.195 173.839 111.156 168.833 106.001 165.84C103.61 164.395 100.881 163.604 98.0873 163.547Z" fill="#FF7400"/>
<path d="M98.7944 205.305C98.1655 205.126 97.5726 204.839 97.0419 204.457C95.7352 203.613 94.4892 202.679 93.3132 201.66C92.1085 200.662 90.9834 199.571 89.9481 198.398C89.4873 197.933 89.1174 197.386 88.8574 196.785C89.3248 197.229 89.7697 197.695 90.1904 198.183C91.0107 199.032 92.2226 200.141 93.6115 201.306C95.0005 202.471 96.2962 203.478 97.2656 204.159C97.7999 204.507 98.3106 204.89 98.7944 205.305Z" fill="#263238"/>
<path d="M103.672 202.579C102.949 202.537 102.24 202.356 101.584 202.047C99.9654 201.384 98.4567 200.479 97.1097 199.363C95.7439 198.274 94.5167 197.021 93.4556 195.634C92.9776 195.078 92.5934 194.449 92.3184 193.77C92.8121 194.283 93.2759 194.825 93.7073 195.392C94.8375 196.694 96.0857 197.889 97.436 198.962C98.7549 200.047 100.201 200.967 101.743 201.702C102.899 202.299 103.691 202.504 103.672 202.579Z" fill="#263238"/>
<path d="M85.0644 186.518C84.9333 186.281 84.8361 186.027 84.7754 185.763C84.5535 185.06 84.373 184.344 84.2347 183.619C83.2842 178.818 83.6317 173.849 85.2415 169.226C85.4775 168.53 85.7545 167.849 86.0711 167.185C86.1684 166.93 86.3036 166.691 86.4719 166.477C86.5372 166.477 86.0897 167.567 85.5398 169.329C84.137 173.938 83.796 178.804 84.5423 183.563C84.8406 185.39 85.1389 186.5 85.0644 186.518Z" fill="white"/>
<path d="M73.4693 203.203C72.7424 203.437 71.9862 203.569 71.2228 203.594C69.3893 203.747 67.5445 203.694 65.7229 203.436C63.9 203.175 62.1116 202.712 60.3909 202.056C59.6803 201.817 59.0059 201.481 58.3867 201.059C59.1183 201.243 59.8375 201.473 60.54 201.748C62.2641 202.307 64.0322 202.718 65.8255 202.979C67.6192 203.23 69.4312 203.326 71.2414 203.268C71.9818 203.196 72.7261 203.175 73.4693 203.203Z" fill="white"/>
<path d="M201.941 172.305C201.568 173.032 201.111 173.714 200.58 174.337C198.183 177.448 195.427 180.264 192.368 182.726C191.754 183.264 191.085 183.735 190.373 184.134C190.92 183.533 191.515 182.978 192.154 182.475C193.272 181.477 194.801 180.07 196.395 178.429C197.989 176.788 199.359 175.232 200.329 174.085C200.82 173.452 201.36 172.857 201.941 172.305Z" fill="white"/>
<path d="M69.0221 124.814C68.829 124.418 68.67 124.007 68.5467 123.584C68.161 122.443 67.8343 121.282 67.5679 120.107C67.1543 118.365 66.843 116.6 66.6357 114.821C66.1396 110.477 66.2557 106.084 66.9806 101.771C67.2755 100.009 67.6739 98.266 68.1738 96.5509C68.5006 95.3916 68.8864 94.2497 69.3297 93.1298C69.4723 92.7101 69.6533 92.3044 69.8704 91.918C69.7853 92.3511 69.6605 92.7755 69.4975 93.1857C69.2272 93.9874 68.873 95.1713 68.4814 96.6348C68.034 98.3494 67.6731 100.085 67.4001 101.836C67.0726 103.998 66.8765 106.177 66.8129 108.362C66.7658 110.539 66.8467 112.718 67.0552 114.887C67.2369 116.649 67.5076 118.4 67.8662 120.135C68.1738 121.626 68.4721 122.82 68.7052 123.631C68.8393 124.017 68.9452 124.413 69.0221 124.814Z" fill="white"/>
<path d="M74.6641 82.9805C74.4252 83.8673 74.0409 84.7083 73.5268 85.4694C73.1403 86.3006 72.6243 87.0652 71.998 87.7346C72.2292 86.8466 72.6107 86.0048 73.126 85.2456C73.5069 84.409 74.027 83.6431 74.6641 82.9805Z" fill="white"/>
<path d="M240.339 121.267L232.061 78.7131C231.993 78.2899 231.841 77.8846 231.613 77.5215C231.385 77.1583 231.087 76.8447 230.735 76.5993C230.384 76.3538 229.986 76.1816 229.567 76.0928C229.148 76.004 228.715 76.0004 228.294 76.0823C227.873 76.1643 227.473 76.3299 227.117 76.5696C226.762 76.8092 226.458 77.1179 226.225 77.4773C225.991 77.8366 225.832 78.2393 225.757 78.6614C225.682 79.0835 225.692 79.5164 225.788 79.9343L226.161 81.8732L209.018 86.0866C207.204 86.5342 205.526 87.4189 204.132 88.6635C202.738 89.9081 201.67 91.4748 201.02 93.2271L190.673 95.7719C189.821 95.9815 189.019 96.3569 188.313 96.8765C187.606 97.3962 187.009 98.05 186.556 98.8006C186.102 99.5512 185.801 100.384 185.669 101.251C185.537 102.118 185.578 103.002 185.788 103.854L186.72 107.629L176.597 110.118C175.929 110.282 175.299 110.576 174.744 110.984C174.19 111.391 173.721 111.903 173.364 112.492C173.007 113.081 172.77 113.734 172.666 114.414C172.562 115.094 172.592 115.789 172.757 116.457C172.921 117.125 173.215 117.755 173.622 118.31C174.029 118.864 174.542 119.333 175.131 119.69C176.319 120.41 177.745 120.629 179.095 120.297L189.219 117.799L189.936 120.726C190.146 121.578 190.521 122.38 191.041 123.086C191.561 123.793 192.215 124.39 192.965 124.843C193.716 125.297 194.548 125.598 195.415 125.73C196.283 125.862 197.167 125.821 198.018 125.611L208.543 123.029V122.945C209.929 124.121 211.575 124.95 213.345 125.363C215.115 125.776 216.958 125.762 218.722 125.322L233.935 121.593L234.112 122.525C234.192 122.937 234.352 123.328 234.583 123.678C234.813 124.027 235.111 124.328 235.458 124.563C235.805 124.797 236.195 124.961 236.606 125.045C237.016 125.129 237.439 125.131 237.85 125.052C238.262 124.972 238.653 124.812 239.003 124.581C239.352 124.35 239.653 124.053 239.888 123.706C240.122 123.359 240.286 122.969 240.37 122.558C240.454 122.148 240.456 121.725 240.376 121.314L240.339 121.267Z" fill="#FF7400"/>
<path d="M240.338 121.271C240.403 121.504 240.431 121.746 240.422 121.988C240.409 122.71 240.153 123.407 239.695 123.965C239.317 124.416 238.826 124.757 238.272 124.954C237.718 125.151 237.121 125.195 236.544 125.083C235.812 124.924 235.156 124.523 234.68 123.946C234.411 123.625 234.208 123.255 234.083 122.855C233.962 122.436 233.906 122.026 233.813 121.588L233.934 121.671L222.748 124.468L219.411 125.298C218.227 125.645 216.999 125.818 215.766 125.81C213.064 125.757 210.465 124.769 208.411 123.014L208.7 122.837V122.911V123.088H208.532C204.98 123.946 201.261 124.953 197.253 125.885C196.186 126.021 195.103 125.906 194.088 125.55C193.073 125.194 192.156 124.607 191.408 123.834C190.641 123.048 190.075 122.089 189.758 121.038C189.469 119.975 189.227 118.912 188.956 117.84L189.208 117.989L180.679 120.096C179.942 120.264 179.252 120.488 178.451 120.609C177.442 120.73 176.419 120.567 175.498 120.138C174.576 119.71 173.792 119.033 173.235 118.184C172.677 117.334 172.367 116.346 172.34 115.33C172.313 114.315 172.57 113.311 173.081 112.434C173.51 111.719 174.09 111.107 174.781 110.642C175.472 110.176 176.257 109.868 177.08 109.74L186.607 107.39L186.44 107.67C186.244 106.896 186.048 106.095 185.843 105.274C185.606 104.444 185.434 103.596 185.33 102.739C185.208 100.963 185.771 99.2078 186.906 97.8357C187.465 97.1624 188.149 96.6024 188.919 96.1858C189.68 95.7936 190.493 95.5111 191.333 95.3468L201.009 92.9698L200.851 93.1096C201.767 90.6695 203.465 88.6013 205.68 87.2276C206.757 86.571 207.93 86.0866 209.157 85.792L212.699 84.9251L226.159 81.6345L226.01 81.8676C225.908 81.3549 225.815 80.8515 225.721 80.3481C225.579 79.8356 225.544 79.2993 225.619 78.7727C225.739 77.997 226.125 77.2872 226.711 76.7647C227.296 76.2423 228.046 75.9397 228.83 75.9089C229.614 75.878 230.385 76.1208 231.01 76.5956C231.635 77.0705 232.075 77.7478 232.256 78.5117C232.974 82.2404 233.654 85.7361 234.288 89.0546C235.565 95.6731 236.665 101.453 237.588 106.235C238.511 111.017 239.201 114.745 239.685 117.327C239.918 118.595 240.095 119.574 240.226 120.255C240.282 120.581 240.319 120.823 240.356 121.01C240.369 121.096 240.369 121.184 240.356 121.271C240.356 121.271 240.357 121.187 240.291 121.019C240.226 120.851 240.207 120.59 240.133 120.264C239.993 119.593 239.797 118.614 239.536 117.346C239.023 114.773 238.268 111.026 237.327 106.272C236.385 101.518 235.239 95.729 233.934 89.1106C233.281 85.8107 232.591 82.2964 231.864 78.5956C231.758 78.1517 231.552 77.7377 231.263 77.385C230.973 77.0323 230.607 76.7501 230.192 76.5597C229.777 76.3694 229.324 76.2758 228.868 76.2862C228.412 76.2965 227.964 76.4105 227.558 76.6194C227.141 76.8393 226.782 77.1536 226.508 77.5372C226.234 77.9208 226.054 78.3631 225.982 78.8287C225.92 79.3123 225.955 79.8035 226.085 80.2735C226.178 80.7769 226.281 81.2803 226.383 81.7837V81.9794L226.197 82.026L212.736 85.3446C210.424 85.9878 207.917 86.2767 205.847 87.6004C203.713 88.9259 202.075 90.9179 201.187 93.2681V93.3799H201.065L191.501 95.7383C190.696 95.8893 189.918 96.1562 189.189 96.5307C188.104 97.1214 187.211 98.0121 186.617 99.0964C186.024 100.181 185.755 101.413 185.843 102.646C185.949 103.481 186.117 104.306 186.346 105.116C186.551 105.927 186.747 106.729 186.934 107.502L186.99 107.726L186.766 107.782L177.239 110.122C176.473 110.234 175.741 110.514 175.096 110.943C174.452 111.372 173.91 111.938 173.51 112.601C173.039 113.407 172.801 114.328 172.825 115.261C172.848 116.194 173.132 117.102 173.643 117.883C174.155 118.664 174.874 119.286 175.72 119.681C176.566 120.075 177.505 120.225 178.432 120.115C179.141 120.012 179.896 119.788 180.613 119.621L189.152 117.533L189.348 117.477L189.404 117.682C189.674 118.754 189.917 119.835 190.196 120.86C190.481 121.868 191.01 122.79 191.734 123.545C192.44 124.284 193.31 124.848 194.273 125.189C195.237 125.531 196.267 125.641 197.281 125.512C201.205 124.645 204.98 123.648 208.523 122.809L208.392 123.023V122.948L208.262 122.417L208.681 122.771C210.671 124.471 213.187 125.43 215.803 125.484C217.01 125.494 218.213 125.331 219.373 124.999L222.72 124.188L233.906 121.476H234.008V121.578C234.092 122.007 234.158 122.445 234.26 122.827C234.427 123.361 234.733 123.839 235.148 124.214C235.563 124.588 236.07 124.844 236.618 124.956C237.165 125.067 237.733 125.03 238.261 124.847C238.789 124.665 239.258 124.344 239.62 123.918C240.073 123.398 240.339 122.742 240.375 122.054C240.377 121.792 240.365 121.531 240.338 121.271Z" fill="#263238"/>
<path d="M234.27 121.5C234.149 121.5 232.144 112.681 229.805 101.756C227.465 90.8311 225.666 81.9382 225.787 81.9102C225.908 81.8823 227.912 90.7193 230.252 101.654C232.592 112.588 234.391 121.472 234.27 121.5Z" fill="#263238"/>
<path d="M208.523 122.906C208.402 122.906 206.659 116.297 204.562 108.075C202.464 99.8532 200.917 93.1602 201.038 93.1602C201.159 93.1602 202.902 99.7693 205.009 107.991C207.116 116.213 208.654 122.878 208.523 122.906Z" fill="#263238"/>
<path d="M189.215 117.756C188.533 116.14 188.039 114.451 187.742 112.722C187.296 111.033 186.954 109.317 186.717 107.586C187.395 109.203 187.889 110.892 188.19 112.62C188.634 114.31 188.977 116.025 189.215 117.756Z" fill="#263238"/>
<path d="M198.408 95.6361C197.553 95.8743 196.684 96.0611 195.807 96.1954C195.005 96.3632 194.054 96.5776 193.01 96.8666C191.887 97.1549 190.804 97.5807 189.785 98.1343C188.754 98.6079 187.943 99.4585 187.52 100.511C187.312 101.43 187.29 102.381 187.454 103.308C187.669 104.921 187.93 105.909 187.865 105.927C187.486 105.114 187.241 104.245 187.138 103.354C186.92 102.385 186.92 101.379 187.138 100.409C187.305 99.8218 187.627 99.2905 188.07 98.8707C188.52 98.4314 189.028 98.0551 189.58 97.7521C190.631 97.172 191.757 96.7392 192.926 96.4657C193.989 96.1954 194.949 96.0183 195.769 95.8878C196.636 95.6991 197.521 95.6146 198.408 95.6361Z" fill="white"/>
<path d="M222.935 84.309C222.654 84.4328 222.36 84.5235 222.058 84.5794L219.616 85.1387L211.543 86.8352C210.077 87.1372 208.657 87.6324 207.321 88.3081C206.241 88.8728 205.289 89.6534 204.524 90.6012C203.85 91.5 203.376 92.5332 203.135 93.6308C203.099 93.3182 203.124 93.0015 203.21 92.6986C203.397 91.8644 203.759 91.0795 204.273 90.3961C205.013 89.3783 205.968 88.5351 207.069 87.9259C208.431 87.2105 209.887 86.6896 211.394 86.3785C214.554 85.698 217.425 85.1946 219.504 84.8124C220.548 84.626 221.369 84.4768 221.975 84.3929C222.289 84.3212 222.612 84.293 222.935 84.309Z" fill="white"/>
<path d="M184.939 109.903C184.399 110.272 183.785 110.517 183.139 110.62C181.974 110.937 180.343 111.068 178.581 111.441C177.768 111.604 176.981 111.877 176.241 112.252C175.646 112.568 175.108 112.981 174.647 113.473C174.249 113.955 173.911 114.484 173.641 115.048C173.67 114.38 173.938 113.746 174.396 113.258C174.852 112.703 175.408 112.238 176.036 111.888C176.802 111.456 177.629 111.142 178.488 110.956C180.287 110.583 181.918 110.499 183.074 110.275C184.23 110.052 184.911 109.837 184.939 109.903Z" fill="white"/>
<path d="M229.906 77.0883C229.906 77.1535 229.57 77.1535 229.076 77.284C228.441 77.448 227.869 77.7987 227.435 78.2908C227.02 78.7986 226.763 79.4181 226.699 80.0712C226.643 80.5746 226.699 80.9009 226.634 80.9195C226.568 80.9381 226.41 80.6305 226.373 80.0619C226.349 79.3072 226.605 78.5704 227.09 77.9925C227.58 77.4224 228.265 77.0565 229.011 76.9671C229.579 76.9018 229.906 77.0323 229.906 77.0883Z" fill="white"/>
<g opacity="0.7">
<path d="M622.411 236.138C621.647 216.516 611.934 197.061 595.658 186.071C579.382 175.08 556.721 173.589 539.942 183.796C529.501 190.154 521.914 200.286 515.603 210.764C512.144 216.497 508.537 222.836 502.329 225.343C494.247 228.615 485.363 224.159 476.815 222.454C466.836 220.444 456.467 222.307 447.811 227.663C439.155 233.019 432.861 241.468 430.206 251.295C422.749 282.225 444.431 304.317 467.624 317.722C493.557 332.702 526.351 332.693 554.54 322.69C573.043 316.165 590.298 305.361 602.901 290.297C615.504 275.233 623.176 255.751 622.411 236.138Z" fill="#FFD5B2"/>
</g>
<path d="M534.334 234.774C532.472 234.778 530.619 234.511 528.834 233.982C511.122 228.678 512.055 215.898 512.782 205.625C513.471 196.052 513.49 190.03 505.595 187.065C495.154 183.15 490.848 186.954 484.341 192.714C476.585 199.566 466.937 208.105 443.54 204.646C431.421 202.847 411.846 196.434 387.889 176.14C379.338 168.953 371.434 161.031 364.268 152.463L367.894 149.555C368.248 150.002 404.034 194.103 444.22 200.051C465.474 203.201 473.863 195.781 481.265 189.228C487.893 183.365 494.166 177.818 507.226 182.703C518.776 187.028 518.048 197.077 517.415 205.942C516.669 216.317 516.016 225.275 530.167 229.507C546.116 234.289 567.081 208.999 579.572 193.945C584.037 188.557 587.151 184.623 589.63 182.647L593.135 185.443C591.588 187.308 587.281 191.969 583.142 196.918C570.418 212.299 551.747 234.774 534.334 234.774Z" fill="#FF7400"/>
<path d="M468.625 198.033C468.625 198.033 468.448 198.201 468.075 198.444C467.548 198.787 467 199.099 466.434 199.376C464.569 200.285 462.595 200.955 460.562 201.371C458.53 201.792 456.453 201.952 454.381 201.846C453.757 201.816 453.135 201.754 452.517 201.659C452.079 201.585 451.837 201.529 451.846 201.492C451.855 201.454 452.825 201.492 454.391 201.492C456.432 201.499 458.469 201.296 460.469 200.886C462.464 200.468 464.41 199.843 466.276 199.021C467.74 198.444 468.588 197.968 468.625 198.033Z" fill="white"/>
<path d="M495.883 184.015C495.376 184.028 494.868 184.009 494.364 183.959C493.156 183.945 491.955 184.138 490.812 184.528C489.672 184.922 488.609 185.512 487.671 186.271C487.3 186.621 486.907 186.948 486.496 187.25C486.711 186.777 487.029 186.36 487.428 186.028C488.346 185.16 489.44 184.499 490.635 184.089C491.832 183.677 493.102 183.521 494.364 183.633C494.894 183.634 495.415 183.765 495.883 184.015Z" fill="white"/>
<path d="M525.583 228.037C524.85 227.951 524.14 227.733 523.485 227.394C521.866 226.65 520.41 225.593 519.201 224.285C517.991 222.976 517.052 221.442 516.438 219.769C516.148 219.09 515.984 218.363 515.953 217.625C516.037 217.625 516.223 218.427 516.736 219.648C518.096 222.859 520.532 225.496 523.625 227.105C524.809 227.711 525.601 227.963 525.583 228.037Z" fill="white"/>
<path d="M590.49 184.344C589.431 185.72 588.255 187.002 586.976 188.175C585.808 189.455 584.526 190.625 583.145 191.671C584.2 190.298 585.373 189.019 586.65 187.849C587.823 186.569 589.109 185.396 590.49 184.344Z" fill="white"/>
<path d="M368.379 153.49C367.423 154.542 366.089 155.171 364.67 155.239C363.25 155.307 361.862 154.809 360.81 153.854L352.635 146.396L359.84 138.473L368.025 145.93C368.545 146.403 368.966 146.974 369.265 147.61C369.564 148.246 369.735 148.935 369.768 149.637C369.801 150.339 369.695 151.04 369.457 151.701C369.219 152.363 368.852 152.97 368.379 153.49Z" fill="#FF7400"/>
<path d="M327.029 108.712L312.925 97.0597C312.661 96.8425 312.443 96.5755 312.282 96.2738C312.121 95.972 312.022 95.6416 311.989 95.3014C311.956 94.9611 311.99 94.6177 312.09 94.2908C312.19 93.9639 312.353 93.6599 312.571 93.3962C312.789 93.1329 313.056 92.9151 313.358 92.7552C313.66 92.5954 313.991 92.4966 314.331 92.4646C314.671 92.4325 315.015 92.4679 315.341 92.5686C315.668 92.6692 315.971 92.8333 316.234 93.0513L330.348 104.722L327.029 108.712Z" fill="#FF7400"/>
<path d="M313.775 125.747L299.662 114.086C299.399 113.868 299.181 113.601 299.021 113.299C298.861 112.997 298.762 112.666 298.73 112.326C298.698 111.985 298.734 111.642 298.834 111.316C298.935 110.989 299.099 110.686 299.317 110.423C299.537 110.154 299.809 109.933 300.116 109.772C300.423 109.61 300.759 109.512 301.105 109.482C301.451 109.453 301.799 109.493 302.129 109.6C302.459 109.707 302.764 109.879 303.027 110.106L317.14 121.776L313.775 125.747Z" fill="#FF7400"/>
<g opacity="0.6">
<path d="M327.033 108.712L312.929 97.0597C312.665 96.8425 312.446 96.5755 312.286 96.2738C312.125 95.972 312.025 95.6416 311.993 95.3014C311.96 94.9611 311.994 94.6177 312.094 94.2908C312.194 93.9639 312.357 93.6599 312.575 93.3962C312.793 93.1329 313.06 92.9151 313.362 92.7552C313.664 92.5954 313.995 92.4966 314.335 92.4646C314.675 92.4325 315.019 92.4679 315.345 92.5686C315.672 92.6692 315.975 92.8333 316.238 93.0513L330.351 104.722L327.033 108.712Z" fill="white"/>
</g>
<g opacity="0.6">
<path d="M313.769 125.755L299.656 114.094C299.393 113.876 299.175 113.608 299.015 113.306C298.855 113.004 298.756 112.674 298.724 112.334C298.692 111.993 298.728 111.65 298.828 111.324C298.929 110.997 299.093 110.693 299.311 110.43C299.531 110.162 299.803 109.941 300.11 109.779C300.417 109.618 300.754 109.519 301.099 109.49C301.445 109.46 301.793 109.5 302.123 109.607C302.453 109.714 302.759 109.887 303.021 110.113L317.134 121.784L313.769 125.755Z" fill="white"/>
</g>
<path d="M327.03 108.713C327.093 108.603 327.168 108.5 327.253 108.406L327.878 107.585L330.236 104.612V104.807L323.618 99.41L319.46 96.0076L317.233 94.1433L316.095 93.2111C315.738 92.9174 315.305 92.7301 314.846 92.6704C314.464 92.6241 314.075 92.6716 313.715 92.8087C313.355 92.9458 313.034 93.1684 312.779 93.4574C312.524 93.7463 312.343 94.093 312.251 94.4674C312.16 94.8419 312.161 95.2329 312.255 95.6068C312.348 95.9524 312.52 96.2716 312.758 96.5389C313.025 96.8117 313.311 97.0641 313.616 97.294L315.359 98.7575L321.409 103.838L325.501 107.324L326.62 108.256C326.758 108.372 326.889 108.497 327.011 108.629C326.877 108.545 326.749 108.452 326.629 108.35L325.501 107.464L321.334 104.118L315.144 99.1584L313.355 97.6948C313.026 97.4429 312.714 97.1688 312.423 96.8745C312.132 96.5473 311.927 96.1534 311.826 95.728C311.707 95.2829 311.699 94.8152 311.804 94.3665C311.909 93.9178 312.123 93.502 312.428 93.1561C312.732 92.8102 313.117 92.5448 313.549 92.3836C313.981 92.2225 314.445 92.1705 314.902 92.2323C315.449 92.2962 315.964 92.5199 316.384 92.8755L317.531 93.8077L319.749 95.672L323.879 99.1117C326.442 101.256 328.67 103.139 330.404 104.602L330.516 104.695L330.423 104.798L327.897 107.734L327.235 108.489C327.175 108.572 327.106 108.647 327.03 108.713Z" fill="#263238"/>
<path d="M313.774 125.751L313.988 125.444C314.165 125.229 314.37 124.959 314.622 124.633L316.98 121.659V121.855L310.353 116.458L306.204 113.046L303.977 111.182L302.83 110.249C302.476 109.956 302.046 109.769 301.59 109.709C301.209 109.663 300.822 109.71 300.462 109.847C300.103 109.984 299.782 110.205 299.528 110.493C299.273 110.781 299.092 111.126 298.999 111.499C298.907 111.873 298.907 112.262 298.999 112.636C299.084 112.998 299.257 113.334 299.502 113.614C299.768 113.885 300.051 114.137 300.35 114.37L302.103 115.824L308.143 120.913C309.84 122.349 311.22 123.533 312.236 124.4C312.692 124.791 313.065 125.108 313.354 125.332C313.495 125.445 313.629 125.567 313.755 125.695C313.614 125.622 313.483 125.531 313.364 125.425L312.245 124.493L308.097 121.296C306.316 119.851 304.219 118.136 301.889 116.253L300.099 114.77C299.768 114.524 299.456 114.253 299.167 113.959C298.874 113.629 298.666 113.232 298.561 112.804C298.441 112.358 298.433 111.889 298.539 111.439C298.644 110.99 298.859 110.573 299.165 110.227C299.47 109.881 299.857 109.616 300.29 109.455C300.723 109.295 301.189 109.244 301.646 109.308C302.191 109.378 302.705 109.601 303.128 109.951L304.266 110.883L306.484 112.748L310.614 116.187L317.139 121.687L317.251 121.78L317.158 121.883L314.631 124.819L313.96 125.574C313.848 125.686 313.774 125.77 313.774 125.751Z" fill="#263238"/>
<path d="M359.096 123.472L359.469 123.015C360.264 122.069 360.678 120.861 360.631 119.626C360.585 118.391 360.08 117.218 359.217 116.334C358.353 115.451 357.191 114.92 355.958 114.845C354.724 114.771 353.507 115.158 352.543 115.931L331.924 98.7227L308.293 126.996L329.425 143.775C328.774 144.8 328.518 146.028 328.705 147.229C328.892 148.429 329.509 149.521 330.441 150.3C331.445 151.126 332.731 151.529 334.027 151.421C335.322 151.313 336.524 150.703 337.377 149.722C340.363 151.972 344.108 152.97 347.818 152.505C351.528 152.041 354.911 150.15 357.251 147.233L360.644 142.992C362.902 140.146 363.998 136.549 363.711 132.927C363.424 129.305 361.775 125.927 359.096 123.472Z" fill="#FF7400"/>
<path d="M359.095 123.465C359.16 123.511 359.22 123.564 359.272 123.624L359.775 124.099C360.045 124.353 360.295 124.627 360.521 124.92L360.987 125.479L361.453 126.159C362.26 127.351 362.874 128.663 363.271 130.047C363.829 131.913 363.997 133.874 363.765 135.807C363.485 138.209 362.603 140.502 361.202 142.473C360.446 143.545 359.561 144.561 358.703 145.67C357.837 146.837 356.883 147.937 355.851 148.96C353.482 151.17 350.438 152.516 347.21 152.782C343.642 153.089 340.085 152.074 337.217 149.93H337.496C336.625 150.921 335.415 151.549 334.103 151.692C333.418 151.763 332.725 151.696 332.066 151.496C331.406 151.296 330.793 150.966 330.263 150.527C329.283 149.715 328.634 148.573 328.439 147.316C328.243 146.059 328.514 144.774 329.2 143.703L329.256 144.001L312.887 130.951L308.105 127.148L307.928 127.008L308.077 126.821L331.726 98.5671L331.857 98.418L332.006 98.5485L352.625 115.803H352.43C353.357 115.078 354.506 114.696 355.683 114.722C356.713 114.729 357.716 115.055 358.554 115.654C359.213 116.129 359.747 116.755 360.113 117.481C360.478 118.206 360.663 119.009 360.652 119.821C360.633 120.826 360.308 121.802 359.719 122.617C359.514 122.891 359.356 123.086 359.244 123.204C359.123 123.326 359.067 123.4 359.057 123.4C359.048 123.4 359.281 123.121 359.663 122.571C360.38 121.505 360.653 120.201 360.423 118.937C360.193 117.673 359.479 116.549 358.433 115.803C357.571 115.195 356.535 114.881 355.48 114.91C354.425 114.939 353.407 115.307 352.579 115.961L352.504 116.027L352.42 115.961L331.717 98.8001H331.996C325.014 107.19 316.979 116.791 308.394 127.092V126.765L313.176 130.559L329.526 143.61L329.685 143.731L329.573 143.899C328.944 144.877 328.692 146.051 328.863 147.201C329.035 148.352 329.618 149.401 330.505 150.154C331.466 150.943 332.696 151.327 333.935 151.224C335.174 151.121 336.324 150.54 337.142 149.604L337.273 149.464L337.431 149.576C340.089 151.565 343.359 152.562 346.674 152.391C349.99 152.221 353.141 150.895 355.581 148.644C356.592 147.633 357.527 146.549 358.377 145.4C359.235 144.3 360.139 143.274 360.875 142.23C362.132 140.493 362.978 138.492 363.348 136.38C363.717 134.267 363.602 132.099 363.01 130.037C362.634 128.665 362.046 127.36 361.267 126.169L360.819 125.479L360.372 124.92C360.148 124.616 359.902 124.329 359.635 124.062L359.169 123.568L359.095 123.465Z" fill="#263238"/>
<path d="M335.452 124.034L320.877 111.98L318.519 114.832L333.094 126.886L335.452 124.034Z" fill="#E0E0E0"/>
<path d="M359.095 123.465C358.872 123.855 358.613 124.223 358.321 124.565C357.799 125.264 357.026 126.252 356.056 127.464C354.117 129.897 351.395 133.206 348.338 136.786L340.526 146.107L338.149 148.904C337.864 149.256 337.552 149.587 337.217 149.892C337.441 149.5 337.7 149.129 337.991 148.783C338.513 148.093 339.286 147.105 340.256 145.893C342.195 143.46 344.917 140.151 347.974 136.525L355.786 127.249L358.163 124.453C358.445 124.098 358.757 123.767 359.095 123.465Z" fill="#263238"/>
<path d="M352.547 115.926C352.293 116.331 352.009 116.718 351.699 117.082C351.13 117.809 350.3 118.853 349.256 120.13C347.168 122.684 344.241 126.17 340.979 129.992C337.716 133.814 334.798 137.207 332.589 139.761L330.063 142.735C329.764 143.108 329.437 143.457 329.084 143.779C329.328 143.369 329.609 142.982 329.923 142.623C330.492 141.896 331.331 140.852 332.365 139.575C334.453 137.021 337.38 133.535 340.652 129.713L349.042 119.934C350.086 118.741 350.906 117.744 351.596 116.988C351.884 116.609 352.202 116.254 352.547 115.926Z" fill="#263238"/>
<path d="M369.859 46.2556L369.682 46.3674L369.151 46.6564L367.1 47.7284L359.456 51.6342L333.784 64.5542L333.607 64.6474L333.495 64.4796L331.258 61.3195L328.07 56.8078L328.368 56.873L304.467 70.6786L297.336 74.7428L295.407 75.8148L294.894 76.0852L294.717 76.1691L294.875 76.0479L295.36 75.7403L297.224 74.5937L304.281 70.4175L328.117 56.4349L328.294 56.3324L328.415 56.5002L331.603 61.0119L333.84 64.1813L333.551 64.1067L359.317 51.3732L367.016 47.6445L369.114 46.6378L369.664 46.3861C369.785 46.2742 369.85 46.2463 369.859 46.2556Z" fill="#263238"/>
<path d="M363.067 79.9223L362.554 80.0621L361.081 80.3791L355.628 81.4884L337.348 85.04H337.115V84.8069C336.984 84.0891 336.854 83.3248 336.714 82.551C336.621 82.0384 336.528 81.5257 336.444 81.0502L336.714 81.2367C329.257 82.5138 322.731 84.0332 318.024 85.301C315.675 85.9255 313.783 86.4475 312.477 86.8204L310.977 87.2306C310.805 87.2927 310.627 87.3334 310.445 87.3518C310.605 87.2645 310.774 87.1957 310.949 87.1467L312.431 86.6526C313.717 86.2331 315.6 85.6552 317.94 85.0027C324.079 83.2967 330.302 81.906 336.584 80.8358H336.807L336.854 81.0596C336.938 81.535 337.031 82.0384 337.115 82.551C337.255 83.3248 337.394 84.0985 337.516 84.8162L337.255 84.6298L355.563 81.1994L361.053 80.2206L362.535 79.9876C362.708 79.9404 362.887 79.9184 363.067 79.9223Z" fill="#263238"/>
<path d="M300.562 47.5708C300.683 47.6267 298.306 52.7537 295.267 59.0179C292.229 65.2821 289.674 70.3158 289.553 70.2599C289.432 70.204 291.809 65.0863 294.848 58.8128C297.887 52.5393 300.45 47.5148 300.562 47.5708Z" fill="#263238"/>
<path d="M328.396 72.7016C328.396 72.8228 322.532 74.6499 315.224 76.7846C307.916 78.9192 301.959 80.5133 301.922 80.4294C301.885 80.3455 307.785 78.4811 315.094 76.3464C322.402 74.2118 328.359 72.5805 328.396 72.7016Z" fill="#263238"/>
<path d="M282.79 31.5156C282.936 31.8187 283.063 32.1299 283.173 32.4478C283.406 33.1376 283.723 34.0418 284.105 35.1697L287.33 44.8457L287.423 45.116H287.125L279.845 44.9669L280.068 44.6966C280.246 45.6287 280.423 46.5609 280.609 47.5863L283.676 64.4214C284.04 66.5467 284.338 68.2806 284.552 69.5577C284.645 70.117 284.711 70.5831 284.776 70.9559C284.797 71.12 284.797 71.286 284.776 71.45C284.72 71.2919 284.677 71.1299 284.645 70.9653C284.562 70.6017 284.468 70.1449 284.347 69.5856C284.086 68.3179 283.741 66.5934 283.322 64.4867C282.492 60.1148 281.364 54.1768 280.124 47.6143C279.938 46.6262 279.761 45.6474 279.584 44.7245L279.537 44.4449H279.817L287.097 44.6313L286.892 44.9017L283.834 35.2257C283.499 34.0884 283.219 33.1656 283.005 32.4292C282.905 32.1321 282.833 31.8262 282.79 31.5156Z" fill="#263238"/>
<path d="M250.59 101.763C250.534 101.642 255.251 99.3204 261.152 96.5612C267.053 93.802 271.853 91.6579 271.909 91.7698C271.965 91.8817 267.248 94.2121 261.348 96.9713C255.447 99.7306 250.646 101.875 250.59 101.763Z" fill="#263238"/>
<path d="M272.57 108.523C273.791 106.696 275.14 104.958 276.607 103.321C277.95 101.583 279.418 99.9448 280.997 98.418C279.77 100.24 278.421 101.978 276.961 103.62C275.608 105.35 274.141 106.988 272.57 108.523Z" fill="#263238"/>
<path d="M284.43 140.532C284.299 140.532 285.11 131.434 286.229 120.257C287.348 109.08 288.373 100.01 288.494 100.02C288.615 100.029 287.814 109.108 286.686 120.304C285.558 131.499 284.551 140.541 284.43 140.532Z" fill="#263238"/>
<path d="M268.258 60.2148C269.102 61.4083 269.821 62.686 270.402 64.0274C271.123 65.3015 271.707 66.6482 272.145 68.0451C271.296 66.8532 270.574 65.5753 269.992 64.2325C269.271 62.9594 268.69 61.6124 268.258 60.2148Z" fill="#263238"/>
<path d="M531.493 117.962C518.443 109.209 515.264 92.5978 515.506 77.5991C515.506 75.1008 515.227 72.4628 516.383 70.2535C517.538 68.0443 520.279 66.5248 522.535 67.457C524.399 68.296 525.257 70.44 526.329 72.2111C527.764 74.5665 529.831 76.472 532.295 77.7109C533.898 78.5033 535.884 78.9787 537.44 78.0838C539.575 76.8533 539.78 73.8704 539.715 71.3815L539.417 57.52C539.225 55.0353 539.436 52.5361 540.041 50.1186C540.768 47.7415 542.446 45.5229 544.795 44.8145C547.144 44.106 550.099 45.4204 550.649 47.8534C550.76 48.881 550.8 49.915 550.77 50.9482C550.766 51.4635 550.912 51.9689 551.193 52.4014C551.473 52.834 551.874 53.1747 552.346 53.3812C553.343 53.6515 554.331 52.9337 555.058 52.188C557.585 49.6338 559.263 46.3712 560.838 43.1179C562.413 39.8646 563.933 36.5927 566.217 33.7962C568.5 30.9997 571.679 28.7904 575.24 28.5294C578.801 28.2684 582.632 30.3937 583.63 33.8708C584.627 37.3478 582.614 40.9553 580.432 43.8357C577.204 48.0928 573.376 51.8605 569.069 55.0218C568.242 55.5148 567.59 56.2549 567.205 57.1378C566.692 58.8064 568.286 60.4284 569.936 60.9411C571.8 61.5284 573.814 61.2953 575.753 61.4911C577.692 61.6869 579.817 62.5072 580.581 64.2876C581.644 66.8138 579.565 69.5171 577.505 71.2976C573.374 74.8705 568.66 77.7082 563.569 79.6871C561.697 80.2419 559.94 81.1327 558.386 82.3159C556.932 83.6302 556.084 85.8861 557.007 87.6199C557.93 89.3538 560.223 89.8758 562.134 89.4843C564.045 89.0928 565.741 88.0301 567.559 87.303C570.952 85.9514 575.371 86.1098 577.617 89.0275C578.296 90.0353 578.734 91.1863 578.896 92.3908C579.057 93.5954 578.939 94.821 578.549 95.9722C577.754 98.2677 576.508 100.381 574.886 102.19C569.583 108.795 562.622 113.875 554.714 116.909C546.837 119.799 539.5 120.638 531.568 117.925" fill="#EBEBEB"/>
<path d="M535.195 108.493C537.529 100.289 540.33 92.225 543.585 84.3406L546.12 78.123C546.959 76.0816 547.789 74.0588 548.721 72.1292C550.519 68.4326 552.52 64.8382 554.715 61.3625C556.794 58.0254 558.882 54.9398 560.849 52.0408C562.816 49.1417 564.727 46.5316 566.563 44.2012C569.436 40.5052 572.596 37.0422 576.015 33.8447C577.227 32.7168 578.187 31.8685 578.812 31.2999L579.567 30.666L579.837 30.4609C579.837 30.4609 579.763 30.5542 579.604 30.7033L578.877 31.3745C578.234 31.9617 577.283 32.8287 576.081 33.9752C572.719 37.2131 569.603 40.6967 566.759 44.397C564.95 46.7367 563.077 49.3841 561.11 52.2552C559.143 55.1263 557.073 58.2304 555.013 61.5769C552.84 65.0504 550.854 68.6382 549.066 72.3249C548.134 74.1893 547.323 76.2401 546.484 78.2908L544.079 84.5178C540.818 92.3836 537.998 100.425 535.633 108.605" fill="#E0E0E0"/>
<path d="M548.878 72.112C548.755 71.7708 548.668 71.4178 548.617 71.0586C548.477 70.3688 548.3 69.3714 548.104 68.1409C547.703 65.6707 547.275 62.2403 546.818 58.4556C546.361 54.671 545.886 51.2499 545.448 48.7983C545.233 47.5678 545.056 46.5704 544.916 45.8899C544.826 45.5359 544.773 45.1735 544.758 44.8086C544.911 45.1386 545.024 45.4861 545.093 45.8433C545.28 46.5238 545.513 47.5026 545.765 48.7331C546.277 51.1847 546.809 54.6058 547.275 58.3997C547.741 62.1937 548.114 65.5122 548.421 68.0943C548.57 69.2595 548.692 70.2383 548.794 71.0307C548.86 71.3872 548.888 71.7496 548.878 72.112Z" fill="#E0E0E0"/>
<path d="M580.756 65.5632C580.337 65.6647 579.909 65.724 579.479 65.7403C578.658 65.8242 577.475 65.9454 576.011 66.1411C573.093 66.514 569.066 67.1572 564.666 68.0707C560.267 68.9843 556.277 69.991 553.48 70.802C552.063 71.1935 550.917 71.5477 550.125 71.7342C549.723 71.8834 549.308 71.9926 548.885 72.0604C549.263 71.8597 549.66 71.6943 550.069 71.5664C550.842 71.2774 551.98 70.8766 553.387 70.4384C556.184 69.5529 560.164 68.4902 564.573 67.5674C568.982 66.6445 573.037 66.0572 575.974 65.7683C577.447 65.6191 578.64 65.5445 579.469 65.5166C579.899 65.496 580.329 65.5116 580.756 65.5632Z" fill="#E0E0E0"/>
<path d="M535.574 107.903C535.574 107.903 535.481 107.781 535.35 107.52C535.22 107.259 535.005 106.831 534.781 106.374C534.287 105.376 533.626 103.913 532.824 102.095C531.211 98.4504 529.151 93.3607 526.951 87.7118C524.751 82.0628 522.738 76.9545 521.2 73.291L519.382 68.9471C519.186 68.481 519.018 68.0895 518.888 67.7632C518.821 67.6308 518.774 67.4895 518.748 67.3438C518.841 67.4598 518.916 67.5885 518.972 67.7259L519.54 68.8725C520.025 69.8699 520.696 71.3335 521.498 73.1605C523.111 76.796 525.171 81.8857 527.371 87.544C529.571 93.2023 531.584 98.2919 533.113 101.965C533.868 103.745 534.483 105.209 534.977 106.299L535.471 107.483C535.518 107.62 535.552 107.76 535.574 107.903Z" fill="#E0E0E0"/>
<path d="M577.829 93.4531C577.698 93.5344 577.557 93.5971 577.409 93.6396L576.188 94.0684L571.658 95.6251C567.836 96.9395 562.588 98.8131 556.743 100.901C550.898 102.989 545.659 104.807 541.828 106.047C539.899 106.662 538.342 107.147 537.251 107.464L536.002 107.809C535.86 107.866 535.708 107.898 535.555 107.902C535.687 107.827 535.828 107.767 535.974 107.725L537.195 107.287L541.726 105.73C545.548 104.415 550.805 102.542 556.641 100.463C562.476 98.3843 567.724 96.5479 571.555 95.3175C573.485 94.6929 575.042 94.2082 576.132 93.9006L577.381 93.5463C577.525 93.4944 577.676 93.463 577.829 93.4531Z" fill="#E0E0E0"/>
<path d="M674.042 180.513C673.931 181.778 673.566 183.009 672.969 184.13C672.372 185.251 671.554 186.24 670.565 187.038C668.57 188.624 666.239 189.734 663.75 190.282C658.987 191.475 653.403 190.608 648.705 189.172C650.569 184.073 656.163 180.988 659.052 179.608C663.639 177.418 673.259 176.243 674.042 180.541" fill="#EBEBEB"/>
<path d="M642.83 196.482C644.039 195.73 645.425 195.312 646.848 195.269C648.27 195.227 649.679 195.561 650.931 196.24C652.168 196.936 653.254 197.872 654.126 198.992C654.998 200.112 655.639 201.395 656.011 202.765C656.249 203.377 656.351 204.033 656.309 204.689C656.267 205.344 656.083 205.982 655.769 206.559C655.389 207.041 654.887 207.414 654.315 207.639C653.743 207.863 653.122 207.931 652.515 207.836C651.3 207.619 650.163 207.089 649.215 206.298C645.878 203.753 643.11 200.705 642.83 196.473" fill="#EBEBEB"/>
<path d="M630.555 195.885C631.594 195.578 632.662 195.378 633.743 195.289C634.922 195.143 636.115 195.143 637.294 195.289C638.734 195.415 640.163 195.636 641.573 195.951C644.164 196.531 646.572 197.741 648.583 199.474C649.175 200.013 649.712 200.61 650.186 201.255C650.368 201.486 650.512 201.744 650.615 202.019C650.54 202.084 649.851 201.031 648.331 199.773C646.309 198.175 643.956 197.051 641.442 196.482C640.055 196.173 638.652 195.943 637.238 195.792C636.093 195.634 634.933 195.596 633.78 195.68C632.711 195.825 631.633 195.893 630.555 195.885Z" fill="#E0E0E0"/>
<path d="M666.797 182.051C666.325 182.331 665.833 182.574 665.324 182.778C664.392 183.207 662.956 183.822 661.222 184.558C657.745 186.031 652.917 188.017 647.538 190.077C642.159 192.137 637.228 193.871 633.639 195.045C631.849 195.633 630.386 196.089 629.37 196.388C628.855 196.571 628.325 196.709 627.785 196.798C628.272 196.548 628.781 196.342 629.305 196.183L633.565 194.682C637.116 193.405 642.01 191.624 647.389 189.564L661.12 184.195L665.287 182.573C665.773 182.352 666.278 182.178 666.797 182.051Z" fill="#E0E0E0"/>
<path d="M638.899 191.338C641.265 189.493 643.158 187.112 644.421 184.39C645.684 181.668 646.28 178.685 646.161 175.687C646.086 174.168 645.611 172.387 644.175 171.884C642.74 171.38 641.239 172.471 640.251 173.636C638.235 176.101 636.994 179.106 636.684 182.275C636.374 185.443 637.008 188.632 638.508 191.441" fill="#EBEBEB"/>
<path d="M642.793 178.617C642.838 178.904 642.838 179.197 642.793 179.484C642.793 180.034 642.699 180.836 642.578 181.824C642.273 184.415 641.493 186.927 640.276 189.235C639.567 190.498 638.657 191.638 637.582 192.609C636.697 193.387 635.709 194.04 634.645 194.548C633.937 194.891 633.197 195.166 632.436 195.368C632.164 195.469 631.878 195.529 631.588 195.545C631.588 195.434 632.744 195.107 634.468 194.203C636.715 193.01 638.567 191.19 639.8 188.964C640.974 186.704 641.783 184.272 642.196 181.759C642.327 180.7 642.526 179.65 642.793 178.617Z" fill="#E0E0E0"/>
<path d="M661.373 113.205C658.977 97.5443 643.876 83.4684 628.104 84.9786C613.385 87.1133 598.945 94.4495 590.705 106.829C582.464 119.208 581.691 136.891 590.891 148.572C596.68 155.926 605.806 160.326 615.128 161.016C624.554 161.534 633.892 158.962 641.723 153.689C655.006 145.001 663.769 128.865 661.373 113.205Z" fill="#FF7400"/>
<g opacity="0.7">
<path d="M661.369 113.205C658.973 97.5443 643.872 83.4684 628.1 84.9786C613.381 87.1133 598.941 94.4495 590.701 106.829C582.461 119.208 581.687 136.891 590.887 148.572C596.676 155.926 605.802 160.326 615.124 161.016C624.55 161.534 633.888 158.962 641.719 153.689C655.002 145.001 663.765 128.865 661.369 113.205Z" fill="white"/>
</g>
<path d="M466.771 203.027C466.883 203.027 466.771 213.514 466.53 226.441C466.289 239.369 466 249.879 465.879 249.879C465.759 249.879 465.879 239.441 466.12 226.465C466.361 213.49 466.682 203.027 466.771 203.027Z" fill="#263238"/>
</svg>
