<svg width="197" height="340" viewBox="0 0 197 340" fill="none" xmlns="http://www.w3.org/2000/svg">
<path d="M56.6295 197.369C56.6295 197.369 26.2405 214.886 19.8429 271.932C13.4452 328.978 20.2998 343.678 20.2998 343.678H79.1736L85.1905 300.493L99.9661 343.678H171.711C171.711 343.678 180.851 251.749 119.235 201.101C57.5434 150.377 56.6295 197.369 56.6295 197.369Z" fill="#106840"/>
<path d="M121.521 202.93C120.759 202.245 119.997 201.635 119.236 201.026C57.5439 150.378 56.6299 197.37 56.6299 197.37C56.6299 197.37 53.3549 199.274 48.709 203.768C72.3956 213.669 99.738 215.649 121.521 202.93Z" fill="#106840"/>
<path d="M74.605 320.443C76.966 322.423 79.4032 324.403 81.9166 326.383L84.9631 302.24C68.2073 297.518 52.1369 290.358 37.7422 280.762C48.4811 295.309 60.8957 308.79 74.605 320.443Z" fill="#65655E"/>
<path d="M119.158 209.094C119.158 209.094 119.996 209.627 121.443 210.846" stroke="#106840" stroke-width="0.814789" stroke-linecap="round" stroke-linejoin="round"/>
<path d="M125.484 214.582C136.604 226.235 158.996 259.061 162.576 336.29" stroke="#106840" stroke-width="0.814789" stroke-linecap="round" stroke-linejoin="round" stroke-dasharray="5.52 5.52"/>
<path d="M162.721 339.102C162.721 340.016 162.797 341.006 162.797 341.92" stroke="#106840" stroke-width="0.814789" stroke-linecap="round" stroke-linejoin="round"/>
<path d="M114.132 16.0218L113.675 7.72007C113.675 7.72007 107.658 -1.49562 90.6737 2.69333C73.6132 6.80612 79.6301 29.8073 68.1295 37.195C56.6289 44.5828 46.9563 46.4107 48.3272 71.2398C49.6981 96.0688 50.1551 115.414 90.6737 114.957C131.192 114.5 133.02 132.932 140.332 110.844C147.643 88.7572 168.893 40.0131 114.132 16.0218Z" fill="#252028"/>
<path d="M93.9456 90.1246C93.9456 90.1246 91.6607 114.04 84.7299 112.212C77.7991 110.384 68.2026 93.3235 52.97 108.556C37.8137 123.712 82.445 159.661 102.628 158.747C122.887 157.833 161.045 153.264 158.303 140.316C155.561 127.444 132.103 126.073 119.155 123.789C106.284 121.504 124.639 70.8555 124.639 70.8555L93.9456 90.1246Z" fill="#965450"/>
<path d="M111.16 94.0855C116.11 88.3733 118.547 81.3663 119.461 74.0547L93.9469 90.0489C93.9469 90.0489 93.1853 98.1983 91.1289 104.672C98.7452 103.377 105.981 100.178 111.16 94.0855Z" fill="#76413B"/>
<path d="M71.3237 58.3715C71.3237 58.3715 59.3661 88.7604 84.1951 95.6151C109.024 102.546 131.568 70.786 133.396 53.7256C135.224 36.6651 128.37 16.482 103.007 20.5948C77.7975 24.7837 71.3237 58.3715 71.3237 58.3715Z" fill="#965450"/>
<path d="M127 64.8454C127 64.8454 133.473 54.2588 140.328 60.2757C147.259 66.2925 129.284 84.6477 121.44 77.7931C113.671 70.7861 127 64.8454 127 64.8454Z" fill="#965450"/>
<path d="M86.8631 56.615C91.5852 49.9889 101.486 29.7296 101.562 21.4278C99.2015 19.2953 90.5951 22.9511 86.8631 26.6831C72.6207 37.4982 71.2497 58.4429 71.2497 58.4429C71.2497 58.4429 69.8788 62.0226 68.9648 66.9732C75.8957 64.9168 82.4456 62.8604 86.8631 56.615Z" fill="#76413B"/>
<path d="M2.32542 126.91C2.32542 126.91 -2.24434 143.132 15.1969 144.427C40.9399 146.255 69.2725 130.108 69.2725 130.108L59.3713 105.355L2.32542 126.91Z" fill="#76413B"/>
<path d="M126.471 120.204C113.752 118.909 119.236 100.706 119.236 100.706L88.39 101.163C88.39 101.163 89.3801 104.895 85.6482 108.094C83.0586 110.303 82.2208 106.266 73.9953 102.686C54.9546 92.4045 34.543 111.826 34.543 111.826C36.8279 124.24 43.911 132.999 49.0139 137.95C48.2523 139.397 45.2819 144.5 44.6726 146.175C38.6558 162.703 49.2424 194.691 49.2424 194.691C83.7441 212.208 127.005 201.165 127.005 201.165L133.478 175.879C133.478 175.879 154.195 162.55 161.049 147.775C167.98 132.923 142.999 121.803 126.471 120.204Z" fill="#FF7400"/>
<path d="M147.566 126.594C146.042 132.763 143.91 138.627 140.254 143.959C132.942 154.545 121.899 161.4 110.627 167.112C98.6693 173.205 86.1024 179.679 72.4693 180.745C65.767 181.279 58.1507 180.898 51.9054 178.384C49.9251 177.547 46.4216 176.176 44.4414 175.186C45.7362 185.696 49.3158 194.455 49.3158 194.455C83.8175 211.972 127.078 200.929 127.078 200.929L133.552 175.643C133.552 175.643 154.268 162.314 161.123 147.539C165.312 138.627 157.772 131.316 147.566 126.594Z" fill="#FF7400"/>
<path d="M56.6263 127.282C54.1891 123.246 51.6757 120.504 50.7617 115.934C49.7716 111.364 49.7716 106.794 49.8478 102.148C40.9367 105.728 34.6152 111.745 34.6152 111.745C36.9001 124.159 43.9833 132.918 49.0862 137.869C48.4769 138.935 54.1129 129.796 56.6263 127.282Z" fill="#FF7400"/>
<path d="M162.039 165.152C162.039 165.152 165.695 223.569 163.41 235.984C161.125 248.398 129.822 362.033 136.296 310.09C136.296 310.09 127.537 348.705 132.64 308.719C132.64 308.719 122.053 350.609 128.07 308.719C128.07 308.719 118.702 351.675 126.09 294.934C126.09 294.934 109.563 314.584 126.395 289.45C126.395 289.45 134.087 230.881 136.524 220.751C136.524 220.751 120.302 160.049 127.004 147.102C133.63 134.154 162.191 143.065 162.039 165.152Z" fill="#965450"/>
<path d="M134.85 181.065C140.486 181.065 145.36 180.456 150.692 178.4C154.728 176.877 158.841 175.201 162.497 172.84C162.268 168.118 162.04 165.071 162.04 165.071C162.192 142.984 133.631 134.073 126.929 146.945C124.111 152.352 125.329 166.214 127.69 180.456C130.051 180.837 132.413 181.065 134.85 181.065Z" fill="#76413B"/>
<path d="M124.414 175.278C124.414 175.278 120.53 121.202 142.693 125.086C166.837 129.275 166.151 152.429 164.78 169.413C164.78 169.413 147.415 179.847 124.414 175.278Z" fill="#FF7400"/>
<path d="M87.7057 55.2422C87.4772 56.4608 87.0964 57.6032 86.5633 58.6695C86.3348 59.2026 86.0302 59.7358 85.6493 60.2689C85.497 60.4974 85.3447 60.8021 85.1162 61.0306C84.9639 61.259 84.7354 61.4875 84.5831 61.7922L83.9738 62.4776C83.7453 62.7061 83.5168 62.9346 83.2883 63.1631C83.0598 63.3916 82.8313 63.6201 82.6028 63.7724C82.3743 64.0009 82.1459 64.1532 81.8412 64.3056L81.0796 64.8387C80.8511 64.991 80.5464 65.1433 80.2418 65.2957C79.9371 65.448 79.7086 65.6003 79.404 65.6765L78.49 65.9811L78.7185 64.7625C79.0993 65.0672 79.4802 65.3718 79.9371 65.7526C80.3179 66.0573 80.6988 66.4381 81.0796 66.7428C81.8412 67.4282 82.6028 68.1137 83.2883 68.8753C82.3743 68.4945 81.4604 67.9614 80.5464 67.5044C80.0895 67.2759 79.6325 67.0474 79.2517 66.7428C78.7947 66.5143 78.3377 66.2096 77.9569 65.9811L76.8906 65.2957L78.1854 64.7625L78.947 64.4579C79.1755 64.3817 79.404 64.2294 79.7086 64.0771C79.9371 63.9247 80.1656 63.8486 80.3941 63.6962L81.0796 63.2393C81.3081 63.0869 81.5365 62.8585 81.765 62.7061C81.9935 62.5538 82.222 62.4015 82.3743 62.173C82.6028 61.9445 82.8313 61.7922 82.9836 61.6399L83.5929 61.0306C83.9738 60.6497 84.3546 60.1928 84.7354 59.7358C84.8877 59.5073 85.1162 59.2788 85.2685 59.0503L85.8017 58.3649C86.1825 57.9079 86.4871 57.4509 86.8679 56.9178C87.0203 56.2323 87.4011 55.7753 87.7057 55.2422Z" fill="#5E2626"/>
<path d="M76.5078 76.3365C76.5078 76.3365 92.8828 66.3591 101.108 78.8498L76.5078 76.3365Z" fill="white"/>
<path d="M96.3869 53.4922C96.3869 53.4922 96.3869 53.7968 96.3869 54.33C96.3869 54.8631 96.4631 55.6247 96.5392 56.5387C96.6154 57.4526 96.8439 58.4428 97.2247 59.3567C97.6817 60.2707 98.3671 60.9561 99.3573 61.0323H99.5096H99.5857C99.5857 61.0323 99.4334 61.0323 99.5096 61.0323H99.5857H100.043C100.347 61.0323 100.576 60.9561 100.804 60.9561C101.033 60.9561 101.261 60.8038 101.49 60.7277C101.718 60.6515 101.947 60.4992 102.175 60.423C102.632 60.1183 103.013 59.8899 103.394 59.509C103.775 59.2044 104.079 58.8236 104.308 58.4428C104.612 58.062 104.841 57.7573 104.993 57.4527C105.222 57.148 105.374 56.8433 105.526 56.6149C105.831 56.1579 105.907 55.8532 105.907 55.8532C105.907 55.8532 105.907 56.1579 105.831 56.691C105.755 56.9957 105.679 57.3003 105.603 57.6811C105.526 58.062 105.374 58.4428 105.146 58.8997C104.917 59.3567 104.689 59.8137 104.308 60.2707C104.156 60.4992 103.927 60.7276 103.699 60.9561C103.47 61.1846 103.242 61.3369 102.937 61.5654C102.404 61.9462 101.794 62.2509 101.033 62.4032C100.652 62.4794 100.271 62.5556 99.9665 62.5556H99.5096H99.4334H99.3573H99.2049H98.9003C98.1386 62.4794 97.377 62.0986 96.8439 61.5654C96.2346 61.0323 95.9299 60.3468 95.7014 59.7375C95.473 59.1282 95.3968 58.5189 95.3968 57.9096C95.3206 57.3765 95.3968 56.8434 95.4729 56.3102C95.5491 55.3201 95.7776 54.5585 95.9299 54.0253C96.3107 53.7968 96.3869 53.4922 96.3869 53.4922Z" fill="#252028"/>
<path d="M92.4258 43.5859C92.4258 43.5859 92.6543 43.8144 93.1874 44.1952C93.4159 44.3476 93.7206 44.5761 94.0252 44.8807C94.3299 45.1092 94.7107 45.4138 95.1676 45.6423C95.5485 45.8708 96.0054 46.1755 96.5386 46.4801C96.7671 46.6324 96.9955 46.7848 97.3002 46.9371C97.5287 47.0894 97.8333 47.1656 98.0618 47.3179C98.595 47.6226 99.2043 47.8511 99.7374 48.0795C100.347 48.308 100.956 48.5365 101.489 48.765C102.098 48.9173 102.708 49.1458 103.317 49.2981C103.926 49.4505 104.536 49.6028 105.145 49.7551C105.754 49.9074 106.364 49.9836 106.897 50.1359C107.43 50.2121 107.963 50.2883 108.496 50.4406C109.029 50.5167 109.486 50.5929 109.867 50.6691C110.248 50.7452 110.629 50.8214 110.933 50.8214C111.543 50.8976 111.847 51.0499 111.847 51.0499C111.847 51.0499 111.543 51.2022 110.933 51.3545C110.629 51.4307 110.248 51.5069 109.867 51.6592C109.639 51.7353 109.41 51.7354 109.182 51.8115C108.953 51.8115 108.725 51.8877 108.42 51.8877C107.887 51.9638 107.354 52.04 106.744 52.04C106.135 52.04 105.526 52.04 104.84 51.9638C104.155 51.8877 103.469 51.8115 102.784 51.6592C102.098 51.5069 101.413 51.2784 100.728 51.1261C100.042 50.8976 99.3566 50.5929 98.7473 50.2883C98.138 49.9074 97.5287 49.6028 96.9194 49.222C96.6147 48.9935 96.3862 48.8412 96.0816 48.6127C95.8531 48.3842 95.6246 48.1557 95.3961 48.0034C94.9391 47.6226 94.5583 47.1656 94.1775 46.7086C93.7967 46.3278 93.5682 45.8708 93.3397 45.49C93.1112 45.1092 92.9589 44.8045 92.8066 44.4999C92.5019 43.8906 92.4258 43.5859 92.4258 43.5859Z" fill="#252028"/>
<path d="M120.152 45.042C120.609 52.8867 127.997 51.0588 128.911 61.5693C129.825 72.0797 134.928 69.1094 137.213 71.4704C143.23 77.7919 136.299 84.1134 136.299 84.1134C143.23 67.5861 122.513 78.6297 123.884 66.139C125.255 53.7245 111.013 65.6821 111.47 53.7245C111.927 41.767 97.2273 53.7245 95.3994 36.2071C93.5715 18.6896 107.357 5.81814 107.357 5.81814C107.357 5.81814 117.03 -4.76848 132.643 2.61931C148.256 10.0071 140.031 25.1635 152.445 25.6205C164.86 26.0774 171.334 28.3623 167.602 43.1379C163.946 57.8373 177.731 44.5088 180.93 60.6553C184.129 76.7256 190.146 74.4408 194.716 67.1291C194.716 67.1291 191.974 80.0006 182.758 74.9739C182.758 74.9739 196.543 78.6297 185.957 95.6902L183.672 90.2065C183.672 90.2065 175.37 99.8791 182.758 107.724C182.758 107.724 173.999 107.267 173.085 99.8791C173.085 99.8791 173.999 107.267 179.559 108.638C179.559 108.638 169.887 111.38 165.774 103.154C165.774 103.154 168.516 109.628 162.118 116.94C162.118 116.94 162.118 111.913 158.462 106.353C158.462 106.353 163.032 112.37 156.177 116.94L152.521 108.181C152.521 108.181 145.134 113.665 149.323 119.681C149.323 119.681 138.584 123.337 140.869 113.208C140.869 113.208 135.385 118.082 140.869 123.642C140.869 123.642 128.911 124.175 131.424 111.913C134.319 97.4419 150.16 75.8879 136.299 69.6425C126.474 65.2251 133.024 65.7582 124.798 53.8007C116.496 41.8431 111.622 54.41 104.691 41.0053" fill="#352C38"/>
<path d="M109.564 8.26234C109.564 8.26234 109.945 7.88152 110.707 7.19606C111.469 6.51059 112.611 5.59664 114.287 4.68269C115.962 3.76873 118.095 2.85478 120.76 2.3978C123.426 1.94083 126.473 1.94083 129.671 2.70246C130.433 2.93094 131.271 3.15943 132.109 3.38792C132.87 3.69257 133.708 3.99722 134.546 4.37803C134.774 4.4542 134.927 4.53036 135.155 4.60652L135.764 4.91117C136.145 5.13966 136.526 5.29199 136.983 5.52048C137.821 5.97745 138.582 6.51059 139.344 7.04373C140.867 8.18617 142.314 9.63327 143.381 11.3088C144.523 12.9844 145.361 14.8885 146.046 16.8687C146.732 18.849 147.189 20.8292 147.95 22.6571C148.712 24.485 149.855 26.0083 151.682 26.6176C152.596 26.9222 153.51 27.0745 154.577 27.1507C155.643 27.2269 156.709 27.2269 157.852 27.303C160.06 27.4553 162.269 27.76 164.402 28.3693C165.468 28.6739 166.61 29.1309 167.6 29.8164C168.591 30.4257 169.505 31.3396 170.19 32.3298C170.875 33.3199 171.256 34.4623 171.485 35.6048C171.713 36.7472 171.789 37.8896 171.713 38.9559C171.637 41.1646 171.256 43.2972 170.723 45.3536C170.571 45.8867 170.495 46.3437 170.342 46.8768C170.266 47.3338 170.114 47.867 170.114 48.3239C169.961 49.3141 169.961 50.228 170.19 50.9896C170.342 51.3704 170.495 51.6751 170.723 51.9036C171.028 52.1321 171.332 52.3606 171.713 52.4367C172.551 52.7414 173.541 52.8175 174.455 52.9699C175.445 53.1222 176.435 53.3507 177.425 53.7315C178.416 54.1123 179.253 54.6454 180.015 55.3309C181.538 56.7018 182.452 58.4536 182.985 60.2053C183.138 60.6623 183.214 61.0431 183.366 61.5001C183.442 61.9571 183.518 62.3379 183.671 62.7949C183.823 63.6326 183.975 64.4704 184.204 65.2321C184.585 66.7553 184.966 68.2786 185.499 69.6495C186.032 71.0204 186.641 72.239 187.403 73.2291C188.164 74.2193 189.231 74.9047 190.297 74.8286C191.363 74.8286 192.277 74.2954 193.039 73.7623C194.562 72.6199 195.476 71.4774 196.085 70.6396C196.695 69.8018 196.999 69.3448 196.999 69.3448C196.999 69.3448 196.771 69.8018 196.161 70.6396C195.857 71.0966 195.552 71.5536 195.019 72.1629C194.562 72.7722 193.953 73.3815 193.191 73.9908C192.429 74.6001 191.439 75.2094 190.221 75.2094C189.611 75.2094 188.926 75.0571 188.393 74.7524C187.784 74.4478 187.327 73.9908 186.793 73.4576C184.966 71.3251 183.975 68.4309 183.138 65.3082C182.909 64.4704 182.757 63.7088 182.528 62.871C182.452 62.4902 182.3 62.0332 182.224 61.6524C182.148 61.2716 181.995 60.8908 181.843 60.4338C181.31 58.8344 180.396 57.3111 179.101 56.2449C177.806 55.1024 176.055 54.6454 174.227 54.417C173.313 54.2646 172.246 54.1885 171.18 53.8838C170.647 53.7315 170.114 53.4268 169.581 53.046C169.124 52.5891 168.743 52.0559 168.591 51.4466C168.21 50.228 168.286 49.1617 168.438 48.0954C168.514 47.5623 168.591 47.0292 168.667 46.496C168.743 45.9629 168.895 45.5059 168.971 44.9728C169.428 42.9925 169.809 40.9361 169.885 38.8798C169.962 36.8995 169.657 34.8431 168.591 33.2437C167.6 31.6443 165.773 30.6542 163.792 30.121C161.812 29.5117 159.756 29.2833 157.623 29.0548C156.557 28.9786 155.491 28.9024 154.424 28.9024C153.282 28.8263 152.139 28.6739 150.997 28.2931C149.855 27.9123 148.864 27.1507 148.027 26.3129C147.265 25.399 146.732 24.4088 146.275 23.3426C145.437 21.2862 144.98 19.3059 144.371 17.4019C143.762 15.4978 143 13.7461 142.01 12.1466C141.02 10.5472 139.801 9.17629 138.354 8.11001C137.668 7.57687 136.907 7.04373 136.221 6.58675C135.841 6.35827 135.46 6.12978 135.079 5.97745L134.47 5.6728C134.317 5.59664 134.089 5.52048 133.86 5.44431C133.099 5.13966 132.261 4.75885 131.499 4.4542C130.738 4.22571 129.9 3.99722 129.214 3.76873C126.168 3.00711 123.198 2.85478 120.608 3.15943C118.019 3.46408 115.886 4.30187 114.21 5.0635C112.535 5.90129 111.316 6.73908 110.478 7.34838C109.945 7.88152 109.564 8.26234 109.564 8.26234Z" fill="#352C38"/>
<path d="M137.593 86.484C137.593 86.484 137.745 86.1032 137.897 85.4939C138.126 84.8084 138.43 83.8183 138.659 82.5997C138.735 82.2951 138.735 81.9143 138.735 81.6096C138.735 81.2288 138.735 80.9241 138.735 80.5433C138.659 79.7817 138.354 79.0201 137.821 78.4108C137.288 77.8015 136.45 77.3445 135.536 77.116C134.622 76.8114 133.556 76.659 132.414 76.4305C131.271 76.202 130.129 76.0497 128.91 75.6689C127.692 75.2881 126.397 74.6788 125.483 73.4602C124.569 72.2416 124.34 70.6422 124.417 69.2712C124.417 68.8904 124.417 68.5858 124.493 68.205C124.493 67.9003 124.569 67.5195 124.569 67.2149C124.569 66.6055 124.493 65.9201 124.34 65.3869C124.188 64.8538 123.883 64.3207 123.503 64.016C123.122 63.7114 122.589 63.4829 121.979 63.3305C120.761 63.1021 119.237 63.1782 117.714 63.1021C116.953 63.0259 116.115 62.9497 115.277 62.7212C114.439 62.4166 113.601 61.8835 113.068 61.1218C112.535 60.3602 112.23 59.5224 112.078 58.6846C111.926 57.8468 111.926 57.0852 111.926 56.2474V55.1811C111.85 54.8765 111.85 54.5718 111.85 54.191C111.774 53.5056 111.545 52.9724 111.24 52.5154C110.631 51.6015 109.336 51.1445 107.965 50.8399C106.594 50.5352 105.071 50.3829 103.624 49.9259C102.177 49.5451 100.73 48.7835 99.5875 47.7172C98.445 46.6509 97.6834 45.28 97.2264 43.9852C96.6933 42.6143 96.4648 41.3195 96.3125 39.9486C96.2363 39.6439 96.2363 39.2631 96.2363 38.9585C96.1601 38.5777 96.2363 38.273 96.1601 37.9684C96.1601 37.3591 96.084 36.7498 96.084 36.1405C96.084 35.5311 96.1601 34.9218 96.1601 34.3125C96.2363 33.7032 96.2363 33.0939 96.3125 32.5608C96.6171 30.2759 97.0741 28.2195 97.6834 26.4678C97.988 25.5538 98.2165 24.7922 98.5212 24.0306C98.8258 23.2689 99.0543 22.5835 99.359 22.0503C99.6636 21.441 99.8921 20.9079 100.121 20.4509C100.349 19.9939 100.578 19.6131 100.73 19.3085C101.111 18.6992 101.263 18.3945 101.263 18.3945C101.263 18.3945 101.111 18.6992 100.806 19.3846C100.654 19.6893 100.501 20.0701 100.273 20.5271C100.121 20.9841 99.8921 21.5172 99.6636 22.1265C99.4351 22.7358 99.2067 23.4213 98.9782 24.1829C98.6735 24.9445 98.5212 25.7823 98.2927 26.6201C97.8357 28.3719 97.5311 30.3521 97.3787 32.5608C97.3026 33.0939 97.3787 33.7032 97.3026 34.2364C97.3026 34.8457 97.2264 35.3788 97.3026 35.9881C97.3787 36.5974 97.3788 37.2067 97.4549 37.816C97.4549 38.1207 97.5311 38.5015 97.5311 38.73C97.6072 39.0346 97.6072 39.3393 97.6834 39.6439C97.9119 40.8625 98.1404 42.1573 98.6735 43.2997C99.1305 44.4422 99.816 45.5846 100.73 46.4224C101.644 47.2602 102.786 47.8695 104.157 48.1742C105.452 48.555 106.899 48.7073 108.422 48.9358C109.184 49.0881 109.946 49.2404 110.707 49.6213C111.469 50.0021 112.23 50.5352 112.764 51.2968C113.297 52.0585 113.601 52.8963 113.754 53.734C113.83 54.1149 113.83 54.5718 113.906 55.0288V56.1712C113.906 56.8567 113.906 57.5422 114.058 58.2276C114.135 58.9131 114.363 59.4462 114.744 59.9032C115.353 60.8172 116.648 61.1218 118.019 61.198C119.39 61.2742 120.913 61.198 122.512 61.5026C123.274 61.655 124.188 61.9596 124.797 62.5689C125.483 63.1782 125.864 64.016 126.092 64.7776C126.168 65.1584 126.244 65.5393 126.244 65.9201C126.321 66.3009 126.244 66.6817 126.244 67.0625C126.244 67.4433 126.168 67.748 126.168 68.1288C126.168 68.4335 126.092 68.8143 126.092 69.1189C126.016 70.3375 126.168 71.5561 126.778 72.4701C127.387 73.384 128.453 73.9172 129.519 74.298C130.586 74.6788 131.728 74.9073 132.794 75.1358C133.861 75.3643 135.003 75.5928 135.993 75.9736C136.983 76.3544 137.897 76.8875 138.507 77.7253C139.116 78.4869 139.344 79.477 139.421 80.2387C139.421 80.6195 139.421 81.0765 139.344 81.3811C139.268 81.7619 139.268 82.0666 139.192 82.4474C139.04 83.0567 138.887 83.666 138.659 84.123C138.507 84.58 138.354 85.0369 138.202 85.3416C137.745 86.1032 137.593 86.484 137.593 86.484Z" fill="#352C38"/>
<path d="M60.9705 47.6313C60.9705 47.6313 60.8943 37.654 63.2553 33.8459C65.6164 29.9616 70.2623 25.1633 70.4908 21.736C70.7193 18.3087 74.4513 19.8319 73.5373 25.6965C72.6234 31.561 64.3216 41.6906 64.3216 41.6906C64.3216 41.6906 74.9082 25.468 79.021 19.0703C83.4385 12.1395 86.5611 6.35115 88.0844 8.33138C89.6077 10.3116 77.8024 31.0279 77.8024 31.0279C77.8024 31.0279 82.3722 23.8686 85.114 19.9843C85.114 19.9843 99.8135 -4.08315 92.6542 14.5006C88.9984 24.0209 82.6768 33.9221 82.6768 33.9221C82.6768 33.9221 95.0152 12.5203 96.31 12.4442C98.2902 12.2918 94.3297 26.3819 86.485 36.8162C86.485 36.8162 92.7303 28.8192 95.7007 24.7064C98.5948 20.5936 99.9658 25.468 95.853 31.104C91.7402 36.7401 89.6077 42.6046 89.6077 42.6046C89.6077 42.6046 83.1338 52.7342 77.5739 59.5127C74.2989 63.4732 44.9763 106.353 39.2641 118.234C29.8961 137.58 16.1106 150.832 2.85831 140.474C-14.2021 127.145 50.2315 57.6848 60.9705 47.6313Z" fill="#965450"/>
</svg>
