<svg width="22" height="21" viewBox="0 0 22 21" fill="none" xmlns="http://www.w3.org/2000/svg">
<g clip-path="url(#clip0_507_2011)">
<path d="M19.9816 16.0713V20.5713H17.4102V16.4999V16.0713H19.9816Z" fill="#808080"/>
<path d="M12.2639 18H9.26392V20.5714H4.12109V16.5H5.40681H7.97824H9.47823H12.0497H13.5496H16.1211H17.4068V20.5714H12.2639V18ZM16.1211 19.2857V17.7857H14.4068V19.2857H16.1211ZM7.1211 19.2857V17.7857H5.40681V19.2857H7.1211Z" fill="#A67C52"/>
<path d="M17.4068 16.0712V16.4997H16.1211V13.9283H13.5496V16.4997H12.0497V13.9283H9.47823V16.4997H7.97824V13.9283H5.40681V16.4997H4.12109V16.0712V12.6426H17.4068V16.0712Z" fill="#8C6239"/>
<path d="M17.4068 11.3574V12.6431H4.12109V11.3574H5.40681H7.97824H9.47823H12.0497H13.5496H16.1211H17.4068Z" fill="#C69C6D"/>
<path d="M17.4068 7.28613V11.3575H16.1211V8.78612H13.5496V11.3575H12.0497V8.78612H9.47823V11.3575H7.97824V8.78612H5.40681V11.3575H4.12109V7.28613H5.40681H7.97824H9.47823H12.0497H13.5496H16.1211H17.4068Z" fill="#A67C52"/>
<path d="M17.4068 3.42871V7.28586H16.1211V4.71443H13.5496V7.28586H12.0497V4.71443H9.47823V7.28586H7.97824V4.71443H5.40681V7.28586H4.12109V3.42871H10.5496H17.4068Z" fill="#8C6239"/>
<path d="M17.4079 0.428711H10.5508V3.42872H17.4079V0.428711Z" fill="#C69C6D"/>
<path d="M16.1244 17.7852H14.4102V19.2851H16.1244V17.7852Z" fill="#F2F2F2"/>
<path d="M16.1261 13.9277H13.5547V16.4992H16.1261V13.9277Z" fill="#F2F2F2"/>
<path d="M16.1261 8.78516H13.5547V11.3566H16.1261V8.78516Z" fill="#F2F2F2"/>
<path d="M16.1261 4.71387H13.5547V7.2853H16.1261V4.71387Z" fill="#F2F2F2"/>
<path d="M12.2656 18H9.26562V20.5714H12.2656V18Z" fill="#F2F2F2"/>
<path d="M12.0519 13.9277H9.48047V16.4992H12.0519V13.9277Z" fill="#F2F2F2"/>
<path d="M12.0519 8.78516H9.48047V11.3566H12.0519V8.78516Z" fill="#F2F2F2"/>
<path d="M12.0519 4.71387H9.48047V7.2853H12.0519V4.71387Z" fill="#F2F2F2"/>
<path d="M7.98159 13.9277H5.41016V16.4992H7.98159V13.9277Z" fill="#F2F2F2"/>
<path d="M7.98159 8.78516H5.41016V11.3566H7.98159V8.78516Z" fill="#F2F2F2"/>
<path d="M7.98159 4.71387H5.41016V7.2853H7.98159V4.71387Z" fill="#F2F2F2"/>
<path d="M7.12445 17.7852H5.41016V19.2851H7.12445V17.7852Z" fill="#F2F2F2"/>
<path d="M4.12221 16.4999V20.5713H1.55078V16.0713H4.12221V16.4999Z" fill="#808080"/>
<path d="M20.3013 20.2503V15.7503H17.7299V3.75031V3.42887V0.107422H10.2299V3.10743H3.80134V15.7503H1.2299V20.2503H0.265625V20.8931H21.2656V20.2503H20.3013ZM17.087 7.60742V11.036H16.4442V8.46456H13.2299V11.036H12.3728V8.46456H9.15851V11.036H8.30137V8.46456H5.08709V11.036H4.44426V7.60742H17.087ZM5.72989 6.96458V5.03602H7.65845V6.96458H5.72989ZM9.80135 6.96458V5.03602H11.7299V6.96458H9.80135ZM13.8728 6.96458V5.03602H15.8013V6.96458H13.8728ZM15.8013 9.10744V11.036H13.8728V9.10744H15.8013ZM11.7299 9.10744V11.036H9.80135V9.10744H11.7299ZM7.65849 9.10744V11.036H5.72993V9.10744H7.65849ZM17.087 11.6789V12.3217H4.44421V11.6789H17.087ZM10.8728 0.750301H17.087V3.10743H10.8728V0.750301ZM17.087 3.75031V6.96458H16.4442V4.39314H13.2299V6.96458H12.3728V4.39314H9.15851V6.96458H8.30137V4.39314H5.08709V6.96458H4.44426V3.75031H17.087ZM4.44421 12.9646H17.0871V16.1789H16.4442V13.6074H13.23V16.1789H12.3728V13.6074H9.15855V16.1789H8.30141V13.6074H5.08713V16.1789H4.4443V12.9646H4.44421ZM15.8013 14.2503V16.1789H13.8728V14.2503H15.8013ZM11.7299 14.2503V16.1789H9.80135V14.2503H11.7299ZM7.65849 14.2503V16.1789H5.72993V14.2503H7.65849ZM3.80134 20.2503H1.87278V16.3931H3.80134V20.2503ZM9.58704 20.2503V18.3217H10.4442V19.286H11.087V18.3217H11.9442V20.2503H9.58704ZM12.587 20.2503V18.3217H13.3371V17.6788H8.19419V18.3217H8.9442V20.2502H4.44421V16.8217H17.0871V20.2502H12.587V20.2503ZM19.6585 20.2503H17.7299V16.3931H19.6585V20.2503Z" fill="black"/>
<path d="M12.4782 1.60742H11.6211V2.25026H12.4782V1.60742Z" fill="black"/>
<path d="M13.7673 1.60742H12.9102V2.25026H13.7673V1.60742Z" fill="black"/>
<path d="M15.0525 1.60742H14.1953V2.25026H15.0525V1.60742Z" fill="black"/>
<path d="M16.3376 1.60742H15.4805V2.25026H16.3376V1.60742Z" fill="black"/>
<path d="M5.08594 19.6067H7.44306V17.4639H5.08594V19.6067ZM5.72878 18.1067H6.80019V18.9639H5.72878V18.1067Z" fill="black"/>
<path d="M14.0859 19.6067H16.4431V17.4639H14.0859V19.6067ZM14.7288 18.1067H15.8002V18.9639H14.7288V18.1067Z" fill="black"/>
</g>
<defs>
<clipPath id="clip0_507_2011">
<rect width="21" height="21" fill="white" transform="translate(0.265625)"/>
</clipPath>
</defs>
</svg>
