<svg width="393" height="598" viewBox="0 0 393 598" fill="none" xmlns="http://www.w3.org/2000/svg">
<path opacity="0.11" d="M572.801 356C640.873 490.212 530.175 645.637 381.084 625.18L364.509 622.906C327.536 617.832 289.89 623.966 256.44 640.514L236.434 650.411C103.066 716.389 -50.0777 607.316 -31.3239 459.707L-28.5107 437.565C-23.8071 400.542 -30.3167 362.961 -47.198 329.677L-54.766 314.756C-122.838 180.544 -12.1397 25.1189 136.951 45.5763L153.526 47.8507C190.5 52.924 228.145 46.7902 261.595 30.2422L281.601 20.345C414.97 -45.6326 568.113 63.4401 549.359 211.049L546.546 233.192C541.842 270.214 548.352 307.796 565.233 341.079L572.801 356Z" fill="#FF7400"/>
</svg>
