<svg width="213" height="162" viewBox="0 0 213 162" fill="none" xmlns="http://www.w3.org/2000/svg">
<g clip-path="url(#clip0_5727_23920)">
<path d="M74.341 152.329L73.9034 154.329C73.4659 154.204 63.2773 151.641 52.3387 144.641C37.7121 135.265 28.8362 122.388 26.6484 107.387L28.5236 107.074C33.5867 141.89 73.9659 152.266 74.341 152.329Z" fill="#93E5AB"/>
<path d="M28.0239 109.324C28.0239 109.324 17.3977 103.699 21.8357 90.6973C21.8357 90.7598 31.2117 98.3856 28.0239 109.324Z" fill="#93E5AB"/>
<path d="M31.4611 119.95C31.4611 119.95 17.0221 124.763 11.084 108.449C11.084 108.449 18.7723 105.636 31.4611 119.95Z" fill="#93E5AB"/>
<path d="M30.9614 120.012C30.9614 120.012 44.4003 112.511 37.7121 96.5723C37.7121 96.5723 30.3364 100.385 30.9614 120.012Z" fill="#93E5AB"/>
<path d="M38.9612 132.077C38.9612 132.077 25.0223 138.453 17.584 122.888C17.584 122.888 24.9598 119.263 38.9612 132.077Z" fill="#93E5AB"/>
<path d="M38.4614 132.202C38.4614 132.202 51.0877 123.326 42.8994 108.137C42.8994 108.137 35.9611 112.762 38.4614 132.202Z" fill="#93E5AB"/>
<path d="M50.9633 142.64C50.9633 142.64 38.212 151.453 28.3984 137.452C28.3984 137.452 35.0866 132.514 50.9633 142.64Z" fill="#93E5AB"/>
<path d="M50.5264 142.89C50.5264 142.89 61.5276 131.827 51.0264 118.388C50.9639 118.388 44.9008 124.138 50.5264 142.89Z" fill="#93E5AB"/>
<path d="M63.3403 149.266C63.3403 149.266 53.2143 161.267 40.2129 150.453C40.2129 150.516 45.4634 143.89 63.3403 149.266Z" fill="#93E5AB"/>
<path d="M62.9017 149.641C62.9017 149.641 70.84 135.952 57.3386 125.951C57.3386 125.888 52.9006 133.139 62.9017 149.641Z" fill="#93E5AB"/>
<path d="M135.033 151.891L134.596 149.266C175.788 142.515 193.664 110.262 193.852 109.887L196.165 111.137C195.977 111.512 177.6 144.953 135.033 151.891Z" fill="#93E5AB"/>
<path d="M193.664 112.137C193.664 112.137 199.04 98.1981 206.04 102.636C209.103 104.574 207.478 111.324 193.664 112.137Z" fill="#93E5AB"/>
<path d="M190.539 116.7C190.539 116.7 204.291 108.762 205.666 116.763C206.353 120.201 200.29 124.701 190.539 116.7Z" fill="#93E5AB"/>
<path d="M190.602 118.2C190.602 118.2 198.977 105.386 190.351 104.136C186.664 103.636 181.913 109.262 190.602 118.2Z" fill="#93E5AB"/>
<path d="M181.476 127.451C181.476 127.451 190.54 114.95 181.976 113.325C178.289 112.637 173.288 118.075 181.476 127.451Z" fill="#93E5AB"/>
<path d="M173.474 134.577C173.474 134.577 182.475 122.076 173.912 120.451C170.224 119.763 165.224 125.201 173.474 134.577Z" fill="#93E5AB"/>
<path d="M162.223 141.515C162.223 141.515 173.287 130.451 165.348 127.451C162.035 126.138 156.16 130.764 162.223 141.515Z" fill="#93E5AB"/>
<path d="M152.534 145.953C152.534 145.953 163.285 134.64 155.222 131.827C151.847 130.639 146.096 135.39 152.534 145.953Z" fill="#93E5AB"/>
<path d="M139.284 149.766C139.284 149.766 152.722 141.328 146.034 136.452C143.221 134.389 136.408 137.577 139.284 149.766Z" fill="#93E5AB"/>
<path d="M183.852 125.076C183.852 125.076 197.603 117.138 199.041 125.139C199.603 128.576 193.603 133.077 183.852 125.076Z" fill="#93E5AB"/>
<path d="M175.662 132.514C175.662 132.514 189.414 124.576 190.851 132.639C191.414 136.014 185.413 140.452 175.662 132.514Z" fill="#93E5AB"/>
<path d="M166.662 138.515C166.662 138.515 181.664 133.514 181.039 141.827C180.726 145.39 173.913 148.578 166.662 138.515Z" fill="#93E5AB"/>
<path d="M156.035 144.141C156.035 144.141 171.349 140.578 169.787 148.891C169.099 152.392 162.036 154.954 156.035 144.141Z" fill="#93E5AB"/>
<path d="M144.723 148.078C144.723 148.078 160.162 146.516 157.349 154.704C156.161 158.204 148.911 159.767 144.723 148.078Z" fill="#93E5AB"/>
<path d="M199.166 158.205C199.166 161.455 156.974 164.143 104.969 164.143C52.9634 164.143 10.7715 161.518 10.7715 158.205C10.7715 154.954 52.9634 152.267 104.969 152.267C156.974 152.267 199.166 154.954 199.166 158.205Z" fill="#DADADA"/>
<path d="M176.225 89.01C176.225 125.451 146.659 155.017 110.218 155.017C73.7766 155.017 44.2109 125.451 44.2109 89.01C44.2109 52.5686 73.7766 23.003 110.218 23.003C146.659 22.9405 176.225 52.5061 176.225 89.01Z" fill="#106840"/>
<path d="M113.327 116.648C115.06 119.115 113.327 122.815 109.469 124.887C105.611 126.959 101.083 126.663 99.4053 124.196L79.6687 95.8762C77.9355 93.4092 79.6687 89.7089 83.5266 87.6367C87.3844 85.5644 91.9132 85.8605 93.5906 88.3274L113.327 116.648Z" fill="#F6F5F7"/>
<path d="M113.738 120.425C111.113 124.738 105.488 126.051 101.175 123.425C96.8616 120.8 95.4864 115.174 98.1742 110.861L128.552 61.3562C131.178 57.0432 136.803 55.6681 141.116 58.3559C145.429 60.9811 146.804 66.6067 144.117 70.9197L113.738 120.425Z" fill="#F6F5F7"/>
</g>
<defs>
<clipPath id="clip0_5727_23920">
<rect width="212.085" height="161.642" fill="white" transform="translate(0.457031)"/>
</clipPath>
</defs>
</svg>
