<svg width="8" height="8" viewBox="0 0 16 16" fill="none" xmlns="http://www.w3.org/2000/svg">
<path d="M13 3.66602L12.5869 10.3494C12.4813 12.0569 12.4285 12.9107 12.0005 13.5246C11.7889 13.8281 11.5165 14.0842 11.2005 14.2767C10.5614 14.666 9.706 14.666 7.99513 14.666C6.28208 14.666 5.42553 14.666 4.78603 14.2759C4.46987 14.0831 4.19733 13.8265 3.98579 13.5225C3.55792 12.9077 3.5063 12.0527 3.40307 10.3428L3 3.66602" stroke="#65655E" stroke-width="1.5" stroke-linecap="round"/>
<path d="M2 3.66732H14M10.7038 3.66732L10.2487 2.72847C9.9464 2.10482 9.7952 1.793 9.53447 1.59852C9.47667 1.55538 9.4154 1.51701 9.35133 1.48378C9.0626 1.33398 8.71607 1.33398 8.023 1.33398C7.31253 1.33398 6.95733 1.33398 6.66379 1.49006C6.59873 1.52466 6.53665 1.56458 6.47819 1.60943C6.21443 1.81178 6.06709 2.13502 5.77241 2.78149L5.36861 3.66732" stroke="#65655E" stroke-width="1.5" stroke-linecap="round"/>
<path d="M6.33301 11V7" stroke="#65655E" stroke-width="1.5" stroke-linecap="round"/>
<path d="M9.66699 11V7" stroke="#65655E" stroke-width="1.5" stroke-linecap="round"/>
</svg>
