<svg width="20" height="21" viewBox="0 0 20 21" fill="none" xmlns="http://www.w3.org/2000/svg">
<path d="M4.25 11C4.05109 11 3.86032 11.079 3.71967 11.2197C3.57902 11.3603 3.5 11.5511 3.5 11.75C3.5 11.9489 3.57902 12.1397 3.71967 12.2803C3.86032 12.421 4.05109 12.5 4.25 12.5H4.75C4.94891 12.5 5.13968 12.421 5.28033 12.2803C5.42098 12.1397 5.5 11.9489 5.5 11.75C5.5 11.5511 5.42098 11.3603 5.28033 11.2197C5.13968 11.079 4.94891 11 4.75 11H4.25ZM3.5 8.25C3.5 8.05109 3.57902 7.86032 3.71967 7.71967C3.86032 7.57902 4.05109 7.5 4.25 7.5H4.75C4.94891 7.5 5.13968 7.57902 5.28033 7.71967C5.42098 7.86032 5.5 8.05109 5.5 8.25C5.5 8.44891 5.42098 8.63968 5.28033 8.78033C5.13968 8.92098 4.94891 9 4.75 9H4.25C4.05109 9 3.86032 8.92098 3.71967 8.78033C3.57902 8.63968 3.5 8.44891 3.5 8.25ZM4.25 4C4.05109 4 3.86032 4.07902 3.71967 4.21967C3.57902 4.36032 3.5 4.55109 3.5 4.75C3.5 4.94891 3.57902 5.13968 3.71967 5.28033C3.86032 5.42098 4.05109 5.5 4.25 5.5H4.75C4.94891 5.5 5.13968 5.42098 5.28033 5.28033C5.42098 5.13968 5.5 4.94891 5.5 4.75C5.5 4.55109 5.42098 4.36032 5.28033 4.21967C5.13968 4.07902 4.94891 4 4.75 4H4.25ZM7 11.75C7 11.5511 7.07902 11.3603 7.21967 11.2197C7.36032 11.079 7.55109 11 7.75 11H8.25C8.44891 11 8.63968 11.079 8.78033 11.2197C8.92098 11.3603 9 11.5511 9 11.75C9 11.9489 8.92098 12.1397 8.78033 12.2803C8.63968 12.421 8.44891 12.5 8.25 12.5H7.75C7.55109 12.5 7.36032 12.421 7.21967 12.2803C7.07902 12.1397 7 11.9489 7 11.75ZM7.75 7.5C7.55109 7.5 7.36032 7.57902 7.21967 7.71967C7.07902 7.86032 7 8.05109 7 8.25C7 8.44891 7.07902 8.63968 7.21967 8.78033C7.36032 8.92098 7.55109 9 7.75 9H8.25C8.44891 9 8.63968 8.92098 8.78033 8.78033C8.92098 8.63968 9 8.44891 9 8.25C9 8.05109 8.92098 7.86032 8.78033 7.71967C8.63968 7.57902 8.44891 7.5 8.25 7.5H7.75ZM7 4.75C7 4.55109 7.07902 4.36032 7.21967 4.21967C7.36032 4.07902 7.55109 4 7.75 4H8.25C8.44891 4 8.63968 4.07902 8.78033 4.21967C8.92098 4.36032 9 4.55109 9 4.75C9 4.94891 8.92098 5.13968 8.78033 5.28033C8.63968 5.42098 8.44891 5.5 8.25 5.5H7.75C7.55109 5.5 7.36032 5.42098 7.21967 5.28033C7.07902 5.13968 7 4.94891 7 4.75ZM11.25 11C11.0511 11 10.8603 11.079 10.7197 11.2197C10.579 11.3603 10.5 11.5511 10.5 11.75C10.5 11.9489 10.579 12.1397 10.7197 12.2803C10.8603 12.421 11.0511 12.5 11.25 12.5H11.75C11.9489 12.5 12.1397 12.421 12.2803 12.2803C12.421 12.1397 12.5 11.9489 12.5 11.75C12.5 11.5511 12.421 11.3603 12.2803 11.2197C12.1397 11.079 11.9489 11 11.75 11H11.25ZM10.5 8.25C10.5 8.05109 10.579 7.86032 10.7197 7.71967C10.8603 7.57902 11.0511 7.5 11.25 7.5H11.75C11.9489 7.5 12.1397 7.57902 12.2803 7.71967C12.421 7.86032 12.5 8.05109 12.5 8.25C12.5 8.44891 12.421 8.63968 12.2803 8.78033C12.1397 8.92098 11.9489 9 11.75 9H11.25C11.0511 9 10.8603 8.92098 10.7197 8.78033C10.579 8.63968 10.5 8.44891 10.5 8.25ZM11.25 4C11.0511 4 10.8603 4.07902 10.7197 4.21967C10.579 4.36032 10.5 4.55109 10.5 4.75C10.5 4.94891 10.579 5.13968 10.7197 5.28033C10.8603 5.42098 11.0511 5.5 11.25 5.5H11.75C11.9489 5.5 12.1397 5.42098 12.2803 5.28033C12.421 5.13968 12.5 4.94891 12.5 4.75C12.5 4.55109 12.421 4.36032 12.2803 4.21967C12.1397 4.07902 11.9489 4 11.75 4H11.25Z" fill="#106840"/>
<path d="M4.25 11C4.05109 11 3.86032 11.079 3.71967 11.2197C3.57902 11.3603 3.5 11.5511 3.5 11.75C3.5 11.9489 3.57902 12.1397 3.71967 12.2803C3.86032 12.421 4.05109 12.5 4.25 12.5H4.75C4.94891 12.5 5.13968 12.421 5.28033 12.2803C5.42098 12.1397 5.5 11.9489 5.5 11.75C5.5 11.5511 5.42098 11.3603 5.28033 11.2197C5.13968 11.079 4.94891 11 4.75 11H4.25ZM3.5 8.25C3.5 8.05109 3.57902 7.86032 3.71967 7.71967C3.86032 7.57902 4.05109 7.5 4.25 7.5H4.75C4.94891 7.5 5.13968 7.57902 5.28033 7.71967C5.42098 7.86032 5.5 8.05109 5.5 8.25C5.5 8.44891 5.42098 8.63968 5.28033 8.78033C5.13968 8.92098 4.94891 9 4.75 9H4.25C4.05109 9 3.86032 8.92098 3.71967 8.78033C3.57902 8.63968 3.5 8.44891 3.5 8.25ZM4.25 4C4.05109 4 3.86032 4.07902 3.71967 4.21967C3.57902 4.36032 3.5 4.55109 3.5 4.75C3.5 4.94891 3.57902 5.13968 3.71967 5.28033C3.86032 5.42098 4.05109 5.5 4.25 5.5H4.75C4.94891 5.5 5.13968 5.42098 5.28033 5.28033C5.42098 5.13968 5.5 4.94891 5.5 4.75C5.5 4.55109 5.42098 4.36032 5.28033 4.21967C5.13968 4.07902 4.94891 4 4.75 4H4.25ZM7 11.75C7 11.5511 7.07902 11.3603 7.21967 11.2197C7.36032 11.079 7.55109 11 7.75 11H8.25C8.44891 11 8.63968 11.079 8.78033 11.2197C8.92098 11.3603 9 11.5511 9 11.75C9 11.9489 8.92098 12.1397 8.78033 12.2803C8.63968 12.421 8.44891 12.5 8.25 12.5H7.75C7.55109 12.5 7.36032 12.421 7.21967 12.2803C7.07902 12.1397 7 11.9489 7 11.75ZM7.75 7.5C7.55109 7.5 7.36032 7.57902 7.21967 7.71967C7.07902 7.86032 7 8.05109 7 8.25C7 8.44891 7.07902 8.63968 7.21967 8.78033C7.36032 8.92098 7.55109 9 7.75 9H8.25C8.44891 9 8.63968 8.92098 8.78033 8.78033C8.92098 8.63968 9 8.44891 9 8.25C9 8.05109 8.92098 7.86032 8.78033 7.71967C8.63968 7.57902 8.44891 7.5 8.25 7.5H7.75ZM7 4.75C7 4.55109 7.07902 4.36032 7.21967 4.21967C7.36032 4.07902 7.55109 4 7.75 4H8.25C8.44891 4 8.63968 4.07902 8.78033 4.21967C8.92098 4.36032 9 4.55109 9 4.75C9 4.94891 8.92098 5.13968 8.78033 5.28033C8.63968 5.42098 8.44891 5.5 8.25 5.5H7.75C7.55109 5.5 7.36032 5.42098 7.21967 5.28033C7.07902 5.13968 7 4.94891 7 4.75ZM11.25 11C11.0511 11 10.8603 11.079 10.7197 11.2197C10.579 11.3603 10.5 11.5511 10.5 11.75C10.5 11.9489 10.579 12.1397 10.7197 12.2803C10.8603 12.421 11.0511 12.5 11.25 12.5H11.75C11.9489 12.5 12.1397 12.421 12.2803 12.2803C12.421 12.1397 12.5 11.9489 12.5 11.75C12.5 11.5511 12.421 11.3603 12.2803 11.2197C12.1397 11.079 11.9489 11 11.75 11H11.25ZM10.5 8.25C10.5 8.05109 10.579 7.86032 10.7197 7.71967C10.8603 7.57902 11.0511 7.5 11.25 7.5H11.75C11.9489 7.5 12.1397 7.57902 12.2803 7.71967C12.421 7.86032 12.5 8.05109 12.5 8.25C12.5 8.44891 12.421 8.63968 12.2803 8.78033C12.1397 8.92098 11.9489 9 11.75 9H11.25C11.0511 9 10.8603 8.92098 10.7197 8.78033C10.579 8.63968 10.5 8.44891 10.5 8.25ZM11.25 4C11.0511 4 10.8603 4.07902 10.7197 4.21967C10.579 4.36032 10.5 4.55109 10.5 4.75C10.5 4.94891 10.579 5.13968 10.7197 5.28033C10.8603 5.42098 11.0511 5.5 11.25 5.5H11.75C11.9489 5.5 12.1397 5.42098 12.2803 5.28033C12.421 5.13968 12.5 4.94891 12.5 4.75C12.5 4.55109 12.421 4.36032 12.2803 4.21967C12.1397 4.07902 11.9489 4 11.75 4H11.25Z" fill="black" fillOpacity="0.2"/>
<path d="M4.25 11C4.05109 11 3.86032 11.079 3.71967 11.2197C3.57902 11.3603 3.5 11.5511 3.5 11.75C3.5 11.9489 3.57902 12.1397 3.71967 12.2803C3.86032 12.421 4.05109 12.5 4.25 12.5H4.75C4.94891 12.5 5.13968 12.421 5.28033 12.2803C5.42098 12.1397 5.5 11.9489 5.5 11.75C5.5 11.5511 5.42098 11.3603 5.28033 11.2197C5.13968 11.079 4.94891 11 4.75 11H4.25ZM3.5 8.25C3.5 8.05109 3.57902 7.86032 3.71967 7.71967C3.86032 7.57902 4.05109 7.5 4.25 7.5H4.75C4.94891 7.5 5.13968 7.57902 5.28033 7.71967C5.42098 7.86032 5.5 8.05109 5.5 8.25C5.5 8.44891 5.42098 8.63968 5.28033 8.78033C5.13968 8.92098 4.94891 9 4.75 9H4.25C4.05109 9 3.86032 8.92098 3.71967 8.78033C3.57902 8.63968 3.5 8.44891 3.5 8.25ZM4.25 4C4.05109 4 3.86032 4.07902 3.71967 4.21967C3.57902 4.36032 3.5 4.55109 3.5 4.75C3.5 4.94891 3.57902 5.13968 3.71967 5.28033C3.86032 5.42098 4.05109 5.5 4.25 5.5H4.75C4.94891 5.5 5.13968 5.42098 5.28033 5.28033C5.42098 5.13968 5.5 4.94891 5.5 4.75C5.5 4.55109 5.42098 4.36032 5.28033 4.21967C5.13968 4.07902 4.94891 4 4.75 4H4.25ZM7 11.75C7 11.5511 7.07902 11.3603 7.21967 11.2197C7.36032 11.079 7.55109 11 7.75 11H8.25C8.44891 11 8.63968 11.079 8.78033 11.2197C8.92098 11.3603 9 11.5511 9 11.75C9 11.9489 8.92098 12.1397 8.78033 12.2803C8.63968 12.421 8.44891 12.5 8.25 12.5H7.75C7.55109 12.5 7.36032 12.421 7.21967 12.2803C7.07902 12.1397 7 11.9489 7 11.75ZM7.75 7.5C7.55109 7.5 7.36032 7.57902 7.21967 7.71967C7.07902 7.86032 7 8.05109 7 8.25C7 8.44891 7.07902 8.63968 7.21967 8.78033C7.36032 8.92098 7.55109 9 7.75 9H8.25C8.44891 9 8.63968 8.92098 8.78033 8.78033C8.92098 8.63968 9 8.44891 9 8.25C9 8.05109 8.92098 7.86032 8.78033 7.71967C8.63968 7.57902 8.44891 7.5 8.25 7.5H7.75ZM7 4.75C7 4.55109 7.07902 4.36032 7.21967 4.21967C7.36032 4.07902 7.55109 4 7.75 4H8.25C8.44891 4 8.63968 4.07902 8.78033 4.21967C8.92098 4.36032 9 4.55109 9 4.75C9 4.94891 8.92098 5.13968 8.78033 5.28033C8.63968 5.42098 8.44891 5.5 8.25 5.5H7.75C7.55109 5.5 7.36032 5.42098 7.21967 5.28033C7.07902 5.13968 7 4.94891 7 4.75ZM11.25 11C11.0511 11 10.8603 11.079 10.7197 11.2197C10.579 11.3603 10.5 11.5511 10.5 11.75C10.5 11.9489 10.579 12.1397 10.7197 12.2803C10.8603 12.421 11.0511 12.5 11.25 12.5H11.75C11.9489 12.5 12.1397 12.421 12.2803 12.2803C12.421 12.1397 12.5 11.9489 12.5 11.75C12.5 11.5511 12.421 11.3603 12.2803 11.2197C12.1397 11.079 11.9489 11 11.75 11H11.25ZM10.5 8.25C10.5 8.05109 10.579 7.86032 10.7197 7.71967C10.8603 7.57902 11.0511 7.5 11.25 7.5H11.75C11.9489 7.5 12.1397 7.57902 12.2803 7.71967C12.421 7.86032 12.5 8.05109 12.5 8.25C12.5 8.44891 12.421 8.63968 12.2803 8.78033C12.1397 8.92098 11.9489 9 11.75 9H11.25C11.0511 9 10.8603 8.92098 10.7197 8.78033C10.579 8.63968 10.5 8.44891 10.5 8.25ZM11.25 4C11.0511 4 10.8603 4.07902 10.7197 4.21967C10.579 4.36032 10.5 4.55109 10.5 4.75C10.5 4.94891 10.579 5.13968 10.7197 5.28033C10.8603 5.42098 11.0511 5.5 11.25 5.5H11.75C11.9489 5.5 12.1397 5.42098 12.2803 5.28033C12.421 5.13968 12.5 4.94891 12.5 4.75C12.5 4.55109 12.421 4.36032 12.2803 4.21967C12.1397 4.07902 11.9489 4 11.75 4H11.25Z" fill="black" fillOpacity="0.2"/>
<path d="M4.25 11C4.05109 11 3.86032 11.079 3.71967 11.2197C3.57902 11.3603 3.5 11.5511 3.5 11.75C3.5 11.9489 3.57902 12.1397 3.71967 12.2803C3.86032 12.421 4.05109 12.5 4.25 12.5H4.75C4.94891 12.5 5.13968 12.421 5.28033 12.2803C5.42098 12.1397 5.5 11.9489 5.5 11.75C5.5 11.5511 5.42098 11.3603 5.28033 11.2197C5.13968 11.079 4.94891 11 4.75 11H4.25ZM3.5 8.25C3.5 8.05109 3.57902 7.86032 3.71967 7.71967C3.86032 7.57902 4.05109 7.5 4.25 7.5H4.75C4.94891 7.5 5.13968 7.57902 5.28033 7.71967C5.42098 7.86032 5.5 8.05109 5.5 8.25C5.5 8.44891 5.42098 8.63968 5.28033 8.78033C5.13968 8.92098 4.94891 9 4.75 9H4.25C4.05109 9 3.86032 8.92098 3.71967 8.78033C3.57902 8.63968 3.5 8.44891 3.5 8.25ZM4.25 4C4.05109 4 3.86032 4.07902 3.71967 4.21967C3.57902 4.36032 3.5 4.55109 3.5 4.75C3.5 4.94891 3.57902 5.13968 3.71967 5.28033C3.86032 5.42098 4.05109 5.5 4.25 5.5H4.75C4.94891 5.5 5.13968 5.42098 5.28033 5.28033C5.42098 5.13968 5.5 4.94891 5.5 4.75C5.5 4.55109 5.42098 4.36032 5.28033 4.21967C5.13968 4.07902 4.94891 4 4.75 4H4.25ZM7 11.75C7 11.5511 7.07902 11.3603 7.21967 11.2197C7.36032 11.079 7.55109 11 7.75 11H8.25C8.44891 11 8.63968 11.079 8.78033 11.2197C8.92098 11.3603 9 11.5511 9 11.75C9 11.9489 8.92098 12.1397 8.78033 12.2803C8.63968 12.421 8.44891 12.5 8.25 12.5H7.75C7.55109 12.5 7.36032 12.421 7.21967 12.2803C7.07902 12.1397 7 11.9489 7 11.75ZM7.75 7.5C7.55109 7.5 7.36032 7.57902 7.21967 7.71967C7.07902 7.86032 7 8.05109 7 8.25C7 8.44891 7.07902 8.63968 7.21967 8.78033C7.36032 8.92098 7.55109 9 7.75 9H8.25C8.44891 9 8.63968 8.92098 8.78033 8.78033C8.92098 8.63968 9 8.44891 9 8.25C9 8.05109 8.92098 7.86032 8.78033 7.71967C8.63968 7.57902 8.44891 7.5 8.25 7.5H7.75ZM7 4.75C7 4.55109 7.07902 4.36032 7.21967 4.21967C7.36032 4.07902 7.55109 4 7.75 4H8.25C8.44891 4 8.63968 4.07902 8.78033 4.21967C8.92098 4.36032 9 4.55109 9 4.75C9 4.94891 8.92098 5.13968 8.78033 5.28033C8.63968 5.42098 8.44891 5.5 8.25 5.5H7.75C7.55109 5.5 7.36032 5.42098 7.21967 5.28033C7.07902 5.13968 7 4.94891 7 4.75ZM11.25 11C11.0511 11 10.8603 11.079 10.7197 11.2197C10.579 11.3603 10.5 11.5511 10.5 11.75C10.5 11.9489 10.579 12.1397 10.7197 12.2803C10.8603 12.421 11.0511 12.5 11.25 12.5H11.75C11.9489 12.5 12.1397 12.421 12.2803 12.2803C12.421 12.1397 12.5 11.9489 12.5 11.75C12.5 11.5511 12.421 11.3603 12.2803 11.2197C12.1397 11.079 11.9489 11 11.75 11H11.25ZM10.5 8.25C10.5 8.05109 10.579 7.86032 10.7197 7.71967C10.8603 7.57902 11.0511 7.5 11.25 7.5H11.75C11.9489 7.5 12.1397 7.57902 12.2803 7.71967C12.421 7.86032 12.5 8.05109 12.5 8.25C12.5 8.44891 12.421 8.63968 12.2803 8.78033C12.1397 8.92098 11.9489 9 11.75 9H11.25C11.0511 9 10.8603 8.92098 10.7197 8.78033C10.579 8.63968 10.5 8.44891 10.5 8.25ZM11.25 4C11.0511 4 10.8603 4.07902 10.7197 4.21967C10.579 4.36032 10.5 4.55109 10.5 4.75C10.5 4.94891 10.579 5.13968 10.7197 5.28033C10.8603 5.42098 11.0511 5.5 11.25 5.5H11.75C11.9489 5.5 12.1397 5.42098 12.2803 5.28033C12.421 5.13968 12.5 4.94891 12.5 4.75C12.5 4.55109 12.421 4.36032 12.2803 4.21967C12.1397 4.07902 11.9489 4 11.75 4H11.25Z" fill="black" fillOpacity="0.2"/>
<path d="M4.25 11C4.05109 11 3.86032 11.079 3.71967 11.2197C3.57902 11.3603 3.5 11.5511 3.5 11.75C3.5 11.9489 3.57902 12.1397 3.71967 12.2803C3.86032 12.421 4.05109 12.5 4.25 12.5H4.75C4.94891 12.5 5.13968 12.421 5.28033 12.2803C5.42098 12.1397 5.5 11.9489 5.5 11.75C5.5 11.5511 5.42098 11.3603 5.28033 11.2197C5.13968 11.079 4.94891 11 4.75 11H4.25ZM3.5 8.25C3.5 8.05109 3.57902 7.86032 3.71967 7.71967C3.86032 7.57902 4.05109 7.5 4.25 7.5H4.75C4.94891 7.5 5.13968 7.57902 5.28033 7.71967C5.42098 7.86032 5.5 8.05109 5.5 8.25C5.5 8.44891 5.42098 8.63968 5.28033 8.78033C5.13968 8.92098 4.94891 9 4.75 9H4.25C4.05109 9 3.86032 8.92098 3.71967 8.78033C3.57902 8.63968 3.5 8.44891 3.5 8.25ZM4.25 4C4.05109 4 3.86032 4.07902 3.71967 4.21967C3.57902 4.36032 3.5 4.55109 3.5 4.75C3.5 4.94891 3.57902 5.13968 3.71967 5.28033C3.86032 5.42098 4.05109 5.5 4.25 5.5H4.75C4.94891 5.5 5.13968 5.42098 5.28033 5.28033C5.42098 5.13968 5.5 4.94891 5.5 4.75C5.5 4.55109 5.42098 4.36032 5.28033 4.21967C5.13968 4.07902 4.94891 4 4.75 4H4.25ZM7 11.75C7 11.5511 7.07902 11.3603 7.21967 11.2197C7.36032 11.079 7.55109 11 7.75 11H8.25C8.44891 11 8.63968 11.079 8.78033 11.2197C8.92098 11.3603 9 11.5511 9 11.75C9 11.9489 8.92098 12.1397 8.78033 12.2803C8.63968 12.421 8.44891 12.5 8.25 12.5H7.75C7.55109 12.5 7.36032 12.421 7.21967 12.2803C7.07902 12.1397 7 11.9489 7 11.75ZM7.75 7.5C7.55109 7.5 7.36032 7.57902 7.21967 7.71967C7.07902 7.86032 7 8.05109 7 8.25C7 8.44891 7.07902 8.63968 7.21967 8.78033C7.36032 8.92098 7.55109 9 7.75 9H8.25C8.44891 9 8.63968 8.92098 8.78033 8.78033C8.92098 8.63968 9 8.44891 9 8.25C9 8.05109 8.92098 7.86032 8.78033 7.71967C8.63968 7.57902 8.44891 7.5 8.25 7.5H7.75ZM7 4.75C7 4.55109 7.07902 4.36032 7.21967 4.21967C7.36032 4.07902 7.55109 4 7.75 4H8.25C8.44891 4 8.63968 4.07902 8.78033 4.21967C8.92098 4.36032 9 4.55109 9 4.75C9 4.94891 8.92098 5.13968 8.78033 5.28033C8.63968 5.42098 8.44891 5.5 8.25 5.5H7.75C7.55109 5.5 7.36032 5.42098 7.21967 5.28033C7.07902 5.13968 7 4.94891 7 4.75ZM11.25 11C11.0511 11 10.8603 11.079 10.7197 11.2197C10.579 11.3603 10.5 11.5511 10.5 11.75C10.5 11.9489 10.579 12.1397 10.7197 12.2803C10.8603 12.421 11.0511 12.5 11.25 12.5H11.75C11.9489 12.5 12.1397 12.421 12.2803 12.2803C12.421 12.1397 12.5 11.9489 12.5 11.75C12.5 11.5511 12.421 11.3603 12.2803 11.2197C12.1397 11.079 11.9489 11 11.75 11H11.25ZM10.5 8.25C10.5 8.05109 10.579 7.86032 10.7197 7.71967C10.8603 7.57902 11.0511 7.5 11.25 7.5H11.75C11.9489 7.5 12.1397 7.57902 12.2803 7.71967C12.421 7.86032 12.5 8.05109 12.5 8.25C12.5 8.44891 12.421 8.63968 12.2803 8.78033C12.1397 8.92098 11.9489 9 11.75 9H11.25C11.0511 9 10.8603 8.92098 10.7197 8.78033C10.579 8.63968 10.5 8.44891 10.5 8.25ZM11.25 4C11.0511 4 10.8603 4.07902 10.7197 4.21967C10.579 4.36032 10.5 4.55109 10.5 4.75C10.5 4.94891 10.579 5.13968 10.7197 5.28033C10.8603 5.42098 11.0511 5.5 11.25 5.5H11.75C11.9489 5.5 12.1397 5.42098 12.2803 5.28033C12.421 5.13968 12.5 4.94891 12.5 4.75C12.5 4.55109 12.421 4.36032 12.2803 4.21967C12.1397 4.07902 11.9489 4 11.75 4H11.25Z" fill="black" fillOpacity="0.2"/>
<path fillRule="evenodd" clipRule="evenodd" d="M0 19C0 19.5304 0.210714 20.0391 0.585786 20.4142C0.960859 20.7893 1.46957 21 2 21H5.75C5.94891 21 6.13968 20.921 6.28033 20.7803C6.42098 20.6397 6.5 20.4489 6.5 20.25V18H9.5V20.25C9.5 20.664 9.836 21 10.25 21H14C14.092 21 14.183 20.994 14.272 20.982C14.3265 20.9941 14.3822 21.0002 14.438 21H18C18.5304 21 19.0391 20.7893 19.4142 20.4142C19.7893 20.0391 20 19.5304 20 19V11C20 10.6895 19.9277 10.3833 19.7889 10.1056C19.65 9.82786 19.4484 9.58629 19.2 9.4L18.7 9.025C18.5409 8.90565 18.3408 8.85441 18.1439 8.88254C17.947 8.91067 17.7693 9.01587 17.65 9.175C17.5307 9.33413 17.4794 9.53415 17.5075 9.73107C17.5357 9.92798 17.6409 10.1057 17.8 10.225L18.3 10.6C18.3621 10.6466 18.4125 10.707 18.4472 10.7764C18.4819 10.8458 18.5 10.9224 18.5 11V19C18.5 19.1326 18.4473 19.2598 18.3536 19.3536C18.2598 19.4473 18.1326 19.5 18 19.5H15.937C15.978 19.34 16 19.173 16 19V2C16 1.46957 15.7893 0.960859 15.4142 0.585786C15.0391 0.210714 14.5304 0 14 0H2C1.46957 0 0.960859 0.210714 0.585786 0.585786C0.210714 0.960859 0 1.46957 0 2V19ZM2 19.5C1.86739 19.5 1.74021 19.4473 1.64645 19.3536C1.55268 19.2598 1.5 19.1326 1.5 19V2C1.5 1.86739 1.55268 1.74021 1.64645 1.64645C1.74021 1.55268 1.86739 1.5 2 1.5H14C14.1326 1.5 14.2598 1.55268 14.3536 1.64645C14.4473 1.74021 14.5 1.86739 14.5 2V19C14.5 19.1326 14.4473 19.2598 14.3536 19.3536C14.2598 19.4473 14.1326 19.5 14 19.5H11V17.25C11 17.0511 10.921 16.8603 10.7803 16.7197C10.6397 16.579 10.4489 16.5 10.25 16.5H5.75C5.55109 16.5 5.36032 16.579 5.21967 16.7197C5.07902 16.8603 5 17.0511 5 17.25V19.5H2Z" fill="#106840"/>
<path fillRule="evenodd" clipRule="evenodd" d="M0 19C0 19.5304 0.210714 20.0391 0.585786 20.4142C0.960859 20.7893 1.46957 21 2 21H5.75C5.94891 21 6.13968 20.921 6.28033 20.7803C6.42098 20.6397 6.5 20.4489 6.5 20.25V18H9.5V20.25C9.5 20.664 9.836 21 10.25 21H14C14.092 21 14.183 20.994 14.272 20.982C14.3265 20.9941 14.3822 21.0002 14.438 21H18C18.5304 21 19.0391 20.7893 19.4142 20.4142C19.7893 20.0391 20 19.5304 20 19V11C20 10.6895 19.9277 10.3833 19.7889 10.1056C19.65 9.82786 19.4484 9.58629 19.2 9.4L18.7 9.025C18.5409 8.90565 18.3408 8.85441 18.1439 8.88254C17.947 8.91067 17.7693 9.01587 17.65 9.175C17.5307 9.33413 17.4794 9.53415 17.5075 9.73107C17.5357 9.92798 17.6409 10.1057 17.8 10.225L18.3 10.6C18.3621 10.6466 18.4125 10.707 18.4472 10.7764C18.4819 10.8458 18.5 10.9224 18.5 11V19C18.5 19.1326 18.4473 19.2598 18.3536 19.3536C18.2598 19.4473 18.1326 19.5 18 19.5H15.937C15.978 19.34 16 19.173 16 19V2C16 1.46957 15.7893 0.960859 15.4142 0.585786C15.0391 0.210714 14.5304 0 14 0H2C1.46957 0 0.960859 0.210714 0.585786 0.585786C0.210714 0.960859 0 1.46957 0 2V19ZM2 19.5C1.86739 19.5 1.74021 19.4473 1.64645 19.3536C1.55268 19.2598 1.5 19.1326 1.5 19V2C1.5 1.86739 1.55268 1.74021 1.64645 1.64645C1.74021 1.55268 1.86739 1.5 2 1.5H14C14.1326 1.5 14.2598 1.55268 14.3536 1.64645C14.4473 1.74021 14.5 1.86739 14.5 2V19C14.5 19.1326 14.4473 19.2598 14.3536 19.3536C14.2598 19.4473 14.1326 19.5 14 19.5H11V17.25C11 17.0511 10.921 16.8603 10.7803 16.7197C10.6397 16.579 10.4489 16.5 10.25 16.5H5.75C5.55109 16.5 5.36032 16.579 5.21967 16.7197C5.07902 16.8603 5 17.0511 5 17.25V19.5H2Z" fill="black" fillOpacity="0.2"/>
<path fillRule="evenodd" clipRule="evenodd" d="M0 19C0 19.5304 0.210714 20.0391 0.585786 20.4142C0.960859 20.7893 1.46957 21 2 21H5.75C5.94891 21 6.13968 20.921 6.28033 20.7803C6.42098 20.6397 6.5 20.4489 6.5 20.25V18H9.5V20.25C9.5 20.664 9.836 21 10.25 21H14C14.092 21 14.183 20.994 14.272 20.982C14.3265 20.9941 14.3822 21.0002 14.438 21H18C18.5304 21 19.0391 20.7893 19.4142 20.4142C19.7893 20.0391 20 19.5304 20 19V11C20 10.6895 19.9277 10.3833 19.7889 10.1056C19.65 9.82786 19.4484 9.58629 19.2 9.4L18.7 9.025C18.5409 8.90565 18.3408 8.85441 18.1439 8.88254C17.947 8.91067 17.7693 9.01587 17.65 9.175C17.5307 9.33413 17.4794 9.53415 17.5075 9.73107C17.5357 9.92798 17.6409 10.1057 17.8 10.225L18.3 10.6C18.3621 10.6466 18.4125 10.707 18.4472 10.7764C18.4819 10.8458 18.5 10.9224 18.5 11V19C18.5 19.1326 18.4473 19.2598 18.3536 19.3536C18.2598 19.4473 18.1326 19.5 18 19.5H15.937C15.978 19.34 16 19.173 16 19V2C16 1.46957 15.7893 0.960859 15.4142 0.585786C15.0391 0.210714 14.5304 0 14 0H2C1.46957 0 0.960859 0.210714 0.585786 0.585786C0.210714 0.960859 0 1.46957 0 2V19ZM2 19.5C1.86739 19.5 1.74021 19.4473 1.64645 19.3536C1.55268 19.2598 1.5 19.1326 1.5 19V2C1.5 1.86739 1.55268 1.74021 1.64645 1.64645C1.74021 1.55268 1.86739 1.5 2 1.5H14C14.1326 1.5 14.2598 1.55268 14.3536 1.64645C14.4473 1.74021 14.5 1.86739 14.5 2V19C14.5 19.1326 14.4473 19.2598 14.3536 19.3536C14.2598 19.4473 14.1326 19.5 14 19.5H11V17.25C11 17.0511 10.921 16.8603 10.7803 16.7197C10.6397 16.579 10.4489 16.5 10.25 16.5H5.75C5.55109 16.5 5.36032 16.579 5.21967 16.7197C5.07902 16.8603 5 17.0511 5 17.25V19.5H2Z" fill="black" fillOpacity="0.2"/>
<path fillRule="evenodd" clipRule="evenodd" d="M0 19C0 19.5304 0.210714 20.0391 0.585786 20.4142C0.960859 20.7893 1.46957 21 2 21H5.75C5.94891 21 6.13968 20.921 6.28033 20.7803C6.42098 20.6397 6.5 20.4489 6.5 20.25V18H9.5V20.25C9.5 20.664 9.836 21 10.25 21H14C14.092 21 14.183 20.994 14.272 20.982C14.3265 20.9941 14.3822 21.0002 14.438 21H18C18.5304 21 19.0391 20.7893 19.4142 20.4142C19.7893 20.0391 20 19.5304 20 19V11C20 10.6895 19.9277 10.3833 19.7889 10.1056C19.65 9.82786 19.4484 9.58629 19.2 9.4L18.7 9.025C18.5409 8.90565 18.3408 8.85441 18.1439 8.88254C17.947 8.91067 17.7693 9.01587 17.65 9.175C17.5307 9.33413 17.4794 9.53415 17.5075 9.73107C17.5357 9.92798 17.6409 10.1057 17.8 10.225L18.3 10.6C18.3621 10.6466 18.4125 10.707 18.4472 10.7764C18.4819 10.8458 18.5 10.9224 18.5 11V19C18.5 19.1326 18.4473 19.2598 18.3536 19.3536C18.2598 19.4473 18.1326 19.5 18 19.5H15.937C15.978 19.34 16 19.173 16 19V2C16 1.46957 15.7893 0.960859 15.4142 0.585786C15.0391 0.210714 14.5304 0 14 0H2C1.46957 0 0.960859 0.210714 0.585786 0.585786C0.210714 0.960859 0 1.46957 0 2V19ZM2 19.5C1.86739 19.5 1.74021 19.4473 1.64645 19.3536C1.55268 19.2598 1.5 19.1326 1.5 19V2C1.5 1.86739 1.55268 1.74021 1.64645 1.64645C1.74021 1.55268 1.86739 1.5 2 1.5H14C14.1326 1.5 14.2598 1.55268 14.3536 1.64645C14.4473 1.74021 14.5 1.86739 14.5 2V19C14.5 19.1326 14.4473 19.2598 14.3536 19.3536C14.2598 19.4473 14.1326 19.5 14 19.5H11V17.25C11 17.0511 10.921 16.8603 10.7803 16.7197C10.6397 16.579 10.4489 16.5 10.25 16.5H5.75C5.55109 16.5 5.36032 16.579 5.21967 16.7197C5.07902 16.8603 5 17.0511 5 17.25V19.5H2Z" fill="black" fillOpacity="0.2"/>
<path fillRule="evenodd" clipRule="evenodd" d="M0 19C0 19.5304 0.210714 20.0391 0.585786 20.4142C0.960859 20.7893 1.46957 21 2 21H5.75C5.94891 21 6.13968 20.921 6.28033 20.7803C6.42098 20.6397 6.5 20.4489 6.5 20.25V18H9.5V20.25C9.5 20.664 9.836 21 10.25 21H14C14.092 21 14.183 20.994 14.272 20.982C14.3265 20.9941 14.3822 21.0002 14.438 21H18C18.5304 21 19.0391 20.7893 19.4142 20.4142C19.7893 20.0391 20 19.5304 20 19V11C20 10.6895 19.9277 10.3833 19.7889 10.1056C19.65 9.82786 19.4484 9.58629 19.2 9.4L18.7 9.025C18.5409 8.90565 18.3408 8.85441 18.1439 8.88254C17.947 8.91067 17.7693 9.01587 17.65 9.175C17.5307 9.33413 17.4794 9.53415 17.5075 9.73107C17.5357 9.92798 17.6409 10.1057 17.8 10.225L18.3 10.6C18.3621 10.6466 18.4125 10.707 18.4472 10.7764C18.4819 10.8458 18.5 10.9224 18.5 11V19C18.5 19.1326 18.4473 19.2598 18.3536 19.3536C18.2598 19.4473 18.1326 19.5 18 19.5H15.937C15.978 19.34 16 19.173 16 19V2C16 1.46957 15.7893 0.960859 15.4142 0.585786C15.0391 0.210714 14.5304 0 14 0H2C1.46957 0 0.960859 0.210714 0.585786 0.585786C0.210714 0.960859 0 1.46957 0 2V19ZM2 19.5C1.86739 19.5 1.74021 19.4473 1.64645 19.3536C1.55268 19.2598 1.5 19.1326 1.5 19V2C1.5 1.86739 1.55268 1.74021 1.64645 1.64645C1.74021 1.55268 1.86739 1.5 2 1.5H14C14.1326 1.5 14.2598 1.55268 14.3536 1.64645C14.4473 1.74021 14.5 1.86739 14.5 2V19C14.5 19.1326 14.4473 19.2598 14.3536 19.3536C14.2598 19.4473 14.1326 19.5 14 19.5H11V17.25C11 17.0511 10.921 16.8603 10.7803 16.7197C10.6397 16.579 10.4489 16.5 10.25 16.5H5.75C5.55109 16.5 5.36032 16.579 5.21967 16.7197C5.07902 16.8603 5 17.0511 5 17.25V19.5H2Z" fill="black" fillOpacity="0.2"/>
</svg>
