<svg width="16" height="16" viewBox="0 0 16 16" fill="none" xmlns="http://www.w3.org/2000/svg">
<path d="M7.16667 0C5.26595 0 3.44308 0.755057 2.09907 2.09907C0.755057 3.44308 0 5.26595 0 7.16667C0 9.06738 0.755057 10.8903 2.09907 12.2343C3.44308 13.5783 5.26595 14.3333 7.16667 14.3333C9.06738 14.3333 10.8903 13.5783 12.2343 12.2343C13.5783 10.8903 14.3333 9.06738 14.3333 7.16667C14.3333 5.26595 13.5783 3.44308 12.2343 2.09907C10.8903 0.755057 9.06738 0 7.16667 0V0ZM0.883889 7.70815H2.88259C2.91444 8.43278 3.01557 9.15263 3.18519 9.85815H1.46519C1.14444 9.182 0.947559 8.4538 0.883889 7.70815ZM7.70815 3.40815V0.947593C8.47552 1.23922 9.10609 1.80729 9.47593 2.54019C9.63917 2.8165 9.7833 3.10396 9.90593 3.40019L7.70815 3.40815ZM10.2722 4.48315C10.457 5.18628 10.5669 5.90693 10.5987 6.63315H7.70815V4.48315H10.2722ZM6.62519 0.947593V3.40815H4.42741C4.55025 3.11168 4.69394 2.8243 4.85741 2.54815C5.22567 1.81225 5.85643 1.24116 6.62519 0.947593ZM6.62519 4.48315V6.63315H3.74259C3.77444 5.90693 3.88433 5.18628 4.06907 4.48315H6.62519ZM2.88259 6.62519H0.883889C0.947559 5.87953 1.14444 5.15134 1.46519 4.47518H3.18519C3.01525 5.18042 2.91391 5.90044 2.88259 6.62519ZM3.74259 7.70815H6.62519V9.85815H4.06907C3.88436 9.15508 3.77492 8.43436 3.74259 7.70815ZM6.63315 10.8933V13.3539C5.86577 13.0623 5.23521 12.4942 4.86537 11.7613C4.7019 11.4851 4.55821 11.1978 4.43537 10.9013L6.63315 10.8933ZM7.70815 13.3539V10.9331H9.90593C9.78309 11.2296 9.63939 11.517 9.47593 11.7931C9.10609 12.526 8.47552 13.0941 7.70815 13.3857V13.3539ZM7.70815 9.81833V7.66833H10.5907C10.5584 8.39454 10.449 9.11526 10.2643 9.81833H7.70815ZM11.4587 7.66833H13.4574C13.3937 8.41399 13.1969 9.14218 12.8761 9.81833H11.1481C11.3154 9.12556 11.4165 8.41924 11.4507 7.70815L11.4587 7.66833ZM11.4587 6.59333C11.4222 5.88169 11.3183 5.17512 11.1481 4.48315H12.8681C13.1891 5.16 13.3857 5.88781 13.4494 6.63315L11.4587 6.59333ZM12.255 3.40815H10.8296C10.5717 2.68376 10.1979 2.00605 9.72278 1.40148C10.7137 1.84628 11.5744 2.53704 12.2231 3.40815H12.255ZM4.61056 1.40148C4.13542 2.00605 3.76161 2.68376 3.5037 3.40815H2.11019C2.75894 2.53704 3.61966 1.84628 4.61056 1.40148ZM2.10222 10.957H3.5037C3.76161 11.6814 4.13542 12.3591 4.61056 12.9637C3.61692 12.5122 2.75594 11.813 2.11019 10.9331L2.10222 10.957ZM9.71482 12.9637C10.1899 12.3591 10.5638 11.6814 10.8217 10.957H12.2231C11.5704 11.8165 10.7101 12.496 9.72278 12.9319L9.71482 12.9637Z" fill="#65655E"/>
</svg>
