<svg width="20" height="21" viewBox="0 0 20 21" fill="none" xmlns="http://www.w3.org/2000/svg">
<path d="M14.4083 8.24169C14.3312 8.16444 14.2396 8.10315 14.1388 8.06133C14.038 8.01951 13.9299 7.99799 13.8208 7.99799C13.7116 7.99799 13.6036 8.01951 13.5028 8.06133C13.4019 8.10315 13.3104 8.16444 13.2333 8.24169L9.99994 11.475L6.76661 8.24169C6.68946 8.16454 6.59786 8.10334 6.49706 8.06158C6.39626 8.01983 6.28822 7.99834 6.17911 7.99834C6.07 7.99834 5.96196 8.01983 5.86115 8.06158C5.76035 8.10334 5.66876 8.16454 5.59161 8.24169C5.51445 8.31884 5.45326 8.41043 5.4115 8.51124C5.36975 8.61204 5.34826 8.72008 5.34826 8.82919C5.34826 8.9383 5.36975 9.04634 5.4115 9.14714C5.45326 9.24795 5.51445 9.33954 5.59161 9.41669L9.41661 13.2417C9.4937 13.3189 9.58528 13.3802 9.68609 13.4221C9.7869 13.4639 9.89497 13.4854 10.0041 13.4854C10.1132 13.4854 10.2213 13.4639 10.3221 13.4221C10.4229 13.3802 10.5145 13.3189 10.5916 13.2417L14.4166 9.41669C14.7333 9.10002 14.7333 8.56669 14.4083 8.24169Z" fill="black"/>
</svg>
