<svg width="32" height="32" viewBox="0 0 32 32" fill="none" xmlns="http://www.w3.org/2000/svg">
<g clip-path="url(#clip0_3168_18536)">
<path d="M13.334 16.0006C13.334 16.7079 13.6149 17.3862 14.115 17.8863C14.6151 18.3864 15.2934 18.6673 16.0007 18.6673C16.7079 18.6673 17.3862 18.3864 17.8863 17.8863C18.3864 17.3862 18.6673 16.7079 18.6673 16.0006C18.6673 15.2934 18.3864 14.6151 17.8863 14.115C17.3862 13.6149 16.7079 13.334 16.0007 13.334C15.2934 13.334 14.6151 13.6149 14.115 14.115C13.6149 14.6151 13.334 15.2934 13.334 16.0006ZM13.334 8.00065C13.334 8.70789 13.6149 9.38617 14.115 9.88627C14.6151 10.3864 15.2934 10.6673 16.0007 10.6673C16.7079 10.6673 17.3862 10.3864 17.8863 9.88627C18.3864 9.38617 18.6673 8.70789 18.6673 8.00065C18.6673 7.29341 18.3864 6.61513 17.8863 6.11503C17.3862 5.61494 16.7079 5.33398 16.0007 5.33398C15.2934 5.33398 14.6151 5.61494 14.115 6.11503C13.6149 6.61513 13.334 7.29341 13.334 8.00065ZM13.334 24.0006C13.334 24.7079 13.6149 25.3862 14.115 25.8863C14.6151 26.3864 15.2934 26.6673 16.0007 26.6673C16.7079 26.6673 17.3862 26.3864 17.8863 25.8863C18.3864 25.3862 18.6673 24.7079 18.6673 24.0006C18.6673 23.2934 18.3864 22.6151 17.8863 22.115C17.3862 21.6149 16.7079 21.334 16.0007 21.334C15.2934 21.334 14.6151 21.6149 14.115 22.115C13.6149 22.6151 13.334 23.2934 13.334 24.0006Z" fill="white"/>
</g>
<defs>
<clipPath id="clip0_3168_18536">
<rect width="32" height="32" fill="currentColor"/>
</clipPath>
</defs>
</svg>
