<svg width="616" height="469" viewBox="0 0 616 469" fill="none" xmlns="http://www.w3.org/2000/svg">
<g clip-path="url(#clip0_2303_12391)">
<path d="M63.7749 123.356C63.7749 123.356 62.6469 137.989 68.1375 147.312C73.6281 156.636 70.0072 174.323 60.3222 182.357C50.6373 190.39 67.614 195.532 70.6803 194.908C73.7466 194.285 65.8191 200.972 65.8191 200.972C65.8191 200.972 64.5726 206.002 67.8321 207.086C71.0916 208.171 67.2089 210.202 67.2089 210.202C67.2089 210.202 66.0061 214.422 70.4684 214.565C74.9307 214.708 77.3239 223.371 76.2519 227.952C75.18 232.533 80.3964 236.621 85.0768 236.135C85.0768 236.135 94.8428 236.982 100.034 234.571C105.226 232.159 116.911 232.882 117.516 233.243C118.12 233.605 125.113 245.907 124.147 253.866C123.181 261.824 129.818 268.331 129.818 268.331L181.665 255.312L173.723 244.909C173.374 244.666 154.178 226.733 148.95 222.161C147.436 216.097 136.78 222.243 138.226 188.159C138.226 188.159 139.516 179.957 147.711 164.688C147.711 164.688 153.86 147.061 143.415 142.075C143.415 142.075 134.824 137.166 127.102 148.422C127.102 148.422 125.492 153.529 122.675 162.211C122.675 162.211 118.133 168.546 103.263 159.702C103.263 159.702 77.8599 144.271 75.448 112.437C75.448 112.437 75.61 104.073 76.5324 100.595C77.4548 97.1177 66.3725 103.639 63.7749 123.356Z" fill="#DA7559"/>
<path d="M81.2129 208.968L67.6328 199.763C67.1149 199.864 66.643 200.128 66.2872 200.518C65.9314 200.907 65.7105 201.401 65.6572 201.926C65.4203 203.796 65.6572 206.513 67.8322 207.08C70.0073 207.647 69.2407 208.283 68.0317 209.286C66.8226 210.29 65.6821 213.537 69.5087 214.447C73.3353 215.356 81.2129 208.968 81.2129 208.968Z" fill="#C81101" stroke="url(#paint0_linear_2303_12391)" stroke-width="0.366606" stroke-miterlimit="10"/>
<path d="M124.141 253.866C124.141 253.866 129.126 258.696 172.565 245.141L226.101 281.425L230.332 474.825H59.2688C59.2688 474.825 62.9458 376.087 120.688 283.563C120.688 283.563 125.35 287.825 121.411 257.68C121.411 257.68 120.707 254.346 124.141 253.866Z" fill="#D2DBEA"/>
<path d="M194.939 260.135L226.724 281.811L200.349 474.806H103.967C103.967 474.806 176.941 267.458 194.939 260.135Z" fill="#C7006D"/>
<path d="M67.9317 474.675L59.2502 474.806C59.2502 474.806 55.3924 390.558 120.021 284.597C120.021 284.597 121.978 281.313 122.084 283.083C122.19 284.853 119.66 313.789 117.011 322.471C114.362 331.152 99.4047 364.121 98.8002 367.773C98.1957 371.425 77.598 432.744 67.9317 474.675Z" fill="#C7006D"/>
<path d="M115.864 444.093L190.782 361.46L161.198 336.057H205.254L202.318 266.187" stroke="#414042" stroke-width="0.733213" strokeLinejoin="round"/>
<path d="M75.5039 445.284L86.4291 358.256L105.126 349.17C105.199 349.131 105.257 349.07 105.291 348.995C105.325 348.92 105.334 348.836 105.315 348.755C105.297 348.675 105.252 348.603 105.189 348.551C105.125 348.498 105.046 348.468 104.964 348.465H94.637L119.498 288.467" stroke="#414042" stroke-width="0.733213" strokeLinejoin="round"/>
<path d="M79.2871 165.648C79.2871 177.333 75.9903 186.806 71.9206 186.806C69.3778 186.806 67.1342 183.111 65.813 177.458C64.9494 173.571 64.5312 169.598 64.5665 165.617C64.5665 157.459 66.1744 150.379 68.524 146.851C69.5461 145.318 70.7053 144.458 71.9331 144.458C75.9903 144.489 79.2871 153.962 79.2871 165.648Z" stroke="#FFD8B7" stroke-width="1.46643" stroke-miterlimit="10"/>
<path d="M63.6754 126.653C63.6754 126.653 61.6997 107.6 76.3955 88.7914C91.0912 69.9824 127.276 56.957 158.144 65.1586C189.013 73.3603 204.886 83.8892 217.75 108.488C230.613 133.087 235.323 282.73 235.323 282.73C235.323 282.73 228.6 297.037 148.933 226.836C148.933 226.836 123.592 209.866 144.165 171.674C144.165 171.674 153.003 151.108 142.152 145.368C131.302 139.628 125.294 159.079 124.116 163.816C122.938 168.552 71.1416 161.217 75.6663 100.165C75.6663 100.178 65.9938 110.149 63.6754 126.653Z" fill="black"/>
<path d="M139.603 172.771C121.816 179.284 122.358 195.463 122.358 195.463C122.358 208.295 133.096 218.691 146.34 218.691C159.584 218.691 170.328 208.295 170.328 195.463C170.328 195.463 171.612 174.323 146.128 173.65" stroke="#EEB869" stroke-width="1.46643" stroke-miterlimit="10" strokeLinecap="round"/>
<path d="M182.68 98.3081C182.68 98.3081 170.783 105.862 167.723 115.833C164.663 125.805 167.723 135.926 169.811 141.554C171.899 147.182 178.174 159.883 171.263 168.402C171.263 168.402 171.101 171.718 162.357 180.4C162.357 180.4 156.81 191.132 173.631 192.16C173.631 192.16 175.439 192.821 173.332 194.572C171.226 196.323 169.655 197.825 169.655 197.825C169.702 199.781 169.921 201.729 170.309 203.646C170.333 203.751 170.378 203.851 170.44 203.939L171.687 205.603C171.687 205.603 170.303 208.8 170.303 209.523C170.303 210.246 170.484 213.318 174.46 213.262C178.436 213.206 180.431 221.283 179.888 226.107C179.346 230.931 181.758 236.957 196.647 234.209C211.536 231.461 212.446 229.329 219.8 231.716C227.154 234.103 228.481 254.501 228.481 254.501L233.187 264.872L267.19 261.133L269.857 254.464L225.845 89.7574C225.845 89.7574 184.369 94.9177 182.68 98.3081Z" fill="#833930"/>
<path d="M225.608 256.034L317.347 243.452C317.347 243.452 336.381 268.692 338.631 274.644C340.881 280.596 342.813 474.806 342.813 474.806H160.014C160.014 474.806 227.858 282.036 227.858 275.928C227.858 270.319 223.845 261.394 224.468 257.187C224.508 256.898 224.641 256.629 224.846 256.421C225.052 256.213 225.319 256.078 225.608 256.034Z" fill="#D5302E"/>
<path d="M154.224 474.806H176.411L225.826 283.407C225.826 283.407 201.489 318.619 186.781 360.581C172.073 402.543 154.224 474.806 154.224 474.806Z" fill="#F0C40E"/>
<path d="M314.512 238.104L271.665 307.033L225.833 413.144L199.564 474.8H297.716L337.278 271.958L314.512 238.104Z" fill="#F0C40E"/>
<path d="M218.616 440.878L291.926 360.575L262.746 333.321H308.809L304.951 259.045" stroke="#414042" stroke-width="0.733213" stroke-miterlimit="10" strokeLinecap="round"/>
<path d="M289.757 345.86L299.642 368.29V374.803L298.439 344.171" stroke="#414042" stroke-width="0.733213" stroke-miterlimit="10" strokeLinecap="round"/>
<path d="M177.377 442.168L190.028 357.409L206.438 346.814C206.593 346.755 206.718 346.638 206.785 346.487C206.853 346.336 206.858 346.164 206.8 346.01C206.741 345.855 206.623 345.73 206.472 345.663C206.322 345.595 206.15 345.59 205.996 345.648L196.51 346.976L221.053 290.73" stroke="#414042" stroke-width="0.733213" stroke-miterlimit="10" strokeLinecap="round"/>
<path d="M226.699 217.644C240.97 217.644 252.538 206.505 252.538 192.764C252.538 179.024 240.97 167.885 226.699 167.885C212.429 167.885 200.86 179.024 200.86 192.764C200.86 206.505 212.429 217.644 226.699 217.644Z" stroke="#F0C40E" stroke-width="1.46643" stroke-miterlimit="10"/>
<path d="M172.148 107.033C172.148 107.033 172.634 98.5947 177.62 95.8151C177.62 95.8151 192.976 75.8719 215.244 70.8175C237.512 65.7631 259.375 65.0651 271.011 69.1036C282.646 73.1421 284.098 72.2634 296.937 88.6979C309.775 105.132 342.819 235.929 342.819 235.929C342.819 235.929 322.321 254.258 305.917 255.704C289.514 257.15 274.133 261.008 257.486 244.848C257.486 244.848 250.089 236.291 247.315 229.497C244.542 222.704 238.877 215.163 226.176 211.729C213.474 208.295 199.327 195.893 200.168 166.957C202.942 137.665 211.623 132.392 203.746 109.401C203.739 109.37 187.423 84.2106 172.148 107.033Z" fill="black"/>
<path d="M184.694 206.394C184.694 206.394 175.407 197.401 171.344 196.99C169.213 196.772 166.121 199.283 171.705 205.572C171.705 205.572 168.253 210.701 172.148 212.184C176.043 213.668 184.694 206.394 184.694 206.394Z" fill="#BC1B10" stroke="url(#paint1_linear_2303_12391)" stroke-width="0.733213" stroke-miterlimit="10"/>
<path d="M308.08 86.6226C308.08 86.6226 290.48 92.6492 282.528 118.214C282.528 118.214 279.512 137.023 286.024 145.343C286.024 145.343 291.21 154.748 289.639 161.26C288.068 167.773 282.042 177.296 279.393 178.262C276.744 179.228 275.292 191.767 283.251 191.886C291.21 192.004 288.679 195.139 288.679 195.139C288.679 195.139 284.815 197.676 284.815 198.398C284.815 199.121 282.528 205.03 288.436 205.877C288.436 205.877 286.747 207.809 287.109 210.096C287.47 212.384 287.589 213.356 290.225 214.322C292.861 215.288 294.444 215.886 295.049 222.156C295.653 228.426 296.856 234.097 302.764 235.418C308.672 236.739 324.079 232.04 324.079 232.04C324.079 232.04 331.557 229.747 335.552 231.554C335.552 231.554 340.494 233.125 342.059 245.888C343.623 258.652 348.091 270.363 347.125 278.078C346.159 285.794 344.471 296.152 336.032 315.939L330.728 370.927L430.569 270.587L374.161 86.6226C374.161 86.6226 320.919 77.4923 308.08 86.6226Z" fill="#B8624B"/>
<path d="M300.689 207.279C300.689 207.279 285.787 193.101 284.485 202.562C284.485 202.562 283.818 204.787 288.442 205.871C288.442 205.871 285.008 209.236 287.308 212.359C289.608 215.481 298.277 209.367 300.689 207.279Z" fill="#92483A" stroke="url(#paint2_linear_2303_12391)" stroke-width="0.733213" stroke-miterlimit="10"/>
<path d="M345.854 265.233L329.544 266.766C329.544 266.766 334.611 284.809 335.577 290.742C336.543 296.675 307.357 395.058 307.357 395.058L336.78 399.882L420.442 276.638L396.136 258.085L348.627 263.868C348.627 263.868 348.309 284.049 349.194 290.399C350.079 296.75 349.674 309.289 333.315 351.775C333.315 351.775 336.649 321.417 335.889 318.046C335.128 314.674 347.188 288.442 346.864 285.575C346.832 285.575 348.453 275.485 345.854 265.233Z" fill="#EEEEED"/>
<path d="M283.163 474.806H449.403L437.823 289.433C437.823 289.433 425.608 265.963 417.88 272.394C410.152 278.826 321.747 376.268 321.747 376.268L335.577 290.761C335.577 290.761 294.419 386.239 283.163 474.806Z" fill="#983CE7"/>
<path d="M405.029 347.306L413.069 365.635" stroke="url(#paint3_linear_2303_12391)" stroke-width="0.733213" stroke-miterlimit="10"/>
<path d="M422.068 95.541C419.501 94.9177 403.097 63.3887 374.803 66.2804C374.803 66.2804 333.969 59.5309 300.688 87.1835C300.688 87.1835 286.354 114.194 303.742 135.415C321.13 156.636 340.076 165.642 350.042 165.953C360.007 166.265 361.715 164.027 362.469 161.454C363.223 158.88 363.092 144.626 368.976 143.286C374.859 141.946 381.758 141.959 382.724 151.12C383.69 160.282 377.632 167.449 372.279 170.684C366.925 173.918 364.27 175.121 364.395 182.593C364.519 190.066 365.641 238.846 378.985 250.469C378.985 250.469 389.579 270.936 415.319 274.638C415.319 274.638 422.872 276.888 431.716 282.995C440.559 289.103 487.507 230.582 487.507 230.582L422.068 95.541Z" fill="#180228"/>
<path d="M367.717 179.826C370.873 179.826 373.432 177.268 373.432 174.111C373.432 170.955 370.873 168.396 367.717 168.396C364.56 168.396 362.002 170.955 362.002 174.111C362.002 177.268 364.56 179.826 367.717 179.826Z" fill="#0DB897"/>
<path d="M365.673 183.142H369.761C370.611 183.142 371.425 183.479 372.026 184.08C372.627 184.681 372.964 185.496 372.964 186.345V213.468H362.469V186.345C362.469 185.496 362.807 184.681 363.407 184.08C364.008 183.479 364.823 183.142 365.673 183.142Z" fill="#0FB49C"/>
<path d="M391.63 102.777C389.594 105.875 387.866 109.164 386.47 112.599C384.774 116.756 383.354 121.748 383.572 126.571C384.058 137.989 387.591 144.097 387.591 144.097C387.591 144.097 395.631 158.082 388.719 167.567C381.808 177.053 379.371 176.916 379.234 181.235C379.097 185.554 378.567 190.29 390.116 192.035C390.116 192.035 388.127 195.469 386.65 196.498C385.173 197.526 384.899 202.917 387.897 205.086C390.895 207.254 386.713 211.318 391.636 212.864C396.56 214.409 397.326 217.569 396.84 226.855C396.84 226.855 400.1 235.537 407.435 234.091C414.77 232.645 412.863 235.412 426.487 230.351C426.487 230.351 435.412 228.301 438.547 231.193C441.681 234.084 445.539 246.269 446.262 261.108C446.985 275.947 521.747 259.3 521.747 259.3L508.722 219.27L426.979 74.962C426.979 74.962 410.626 80.7518 391.63 102.777Z" fill="#A23530"/>
<path d="M474.457 214.116C483.182 214.116 490.256 207.043 490.256 198.317C490.256 189.592 483.182 182.519 474.457 182.519C465.731 182.519 458.658 189.592 458.658 198.317C458.658 207.043 465.731 214.116 474.457 214.116Z" fill="#F23F16"/>
<path d="M385.927 112.424C385.927 112.424 382.606 101.973 405.597 79.6112C405.597 79.6112 419.75 67.0719 442.897 62.7342C442.897 62.7342 457.368 60.4034 470.792 53.0057C470.792 53.0057 504.796 40.9462 518.158 45.77C531.52 50.5938 541.473 56.3025 548.546 62.4102C555.62 68.5178 564.619 73.6657 571.693 80.4152C578.767 87.1648 595.488 104.534 600.636 109.676C605.783 114.817 619.283 144.084 614.141 168.521C608.999 192.958 596.429 206.8 565.891 213.873C535.352 220.947 533.09 219.339 511.869 213.873C511.869 213.873 510.623 219.445 509.619 218.591C473.765 187.903 413.823 116.924 413.823 116.924C413.823 116.924 404.674 111.296 385.927 112.424Z" fill="#E36D0B"/>
<path d="M419.75 98.1959C419.75 98.1959 445.302 105.432 483.893 180.188" stroke="url(#paint4_linear_2303_12391)" stroke-width="0.54991" stroke-miterlimit="10"/>
<path d="M417.095 108.08C417.095 108.08 408.65 100.365 390.203 98.1959" stroke="url(#paint5_linear_2303_12391)" stroke-width="0.54991" stroke-miterlimit="10"/>
<path d="M494.506 187.43C494.506 187.43 507.307 208.993 512.841 214.129" stroke="url(#paint6_linear_2303_12391)" stroke-width="0.54991" stroke-miterlimit="10"/>
<path d="M453.834 60.0544C453.834 60.0544 472.076 76.2583 479.312 87.5823C486.547 98.9064 492.094 138.226 496.195 178.262" stroke="url(#paint7_linear_2303_12391)" stroke-width="0.54991" stroke-miterlimit="10"/>
<path d="M517.416 214.122C517.416 214.122 564.682 203.821 560.581 143.293" stroke="url(#paint8_linear_2303_12391)" stroke-width="0.54991" stroke-miterlimit="10"/>
<path d="M567.816 163.068C567.816 163.068 565.454 191.936 536.711 204.556" stroke="url(#paint9_linear_2303_12391)" stroke-width="0.54991" stroke-miterlimit="10"/>
<path d="M590.726 131.663C590.726 131.663 614.689 182.145 584.382 207.797" stroke="url(#paint10_linear_2303_12391)" stroke-width="0.54991" stroke-miterlimit="10"/>
<path d="M500.514 151.282C500.514 151.282 496.089 104.771 477.074 84.3727" stroke="url(#paint11_linear_2303_12391)" stroke-width="0.54991" stroke-miterlimit="10"/>
<path d="M514.786 44.642C514.786 44.642 553.376 65.3954 550.478 90.7172" stroke="url(#paint12_linear_2303_12391)" stroke-width="0.54991" stroke-miterlimit="10"/>
<path d="M552.267 108.08C552.267 108.08 549.406 174.641 532.685 198.76" stroke="url(#paint13_linear_2303_12391)" stroke-width="0.54991" stroke-miterlimit="10"/>
<path d="M425.534 255.031C425.534 255.031 431.323 250.263 443.863 250.475C456.402 250.687 462.03 242.33 516.531 236.54L526.821 234.608C526.821 234.608 537.415 273.036 544.988 277.698C552.56 282.36 599.719 322.234 599.719 322.234C599.719 322.234 606.083 326.409 609.616 330.591C613.15 334.773 611.068 355.832 605.597 364.676C605.597 364.676 621.514 415.481 615.73 474.806H372.964C372.964 474.806 403.11 379.147 408.17 362.264C413.231 345.38 427.702 327.537 429.634 284.61C429.634 284.61 430.357 269.82 425.534 255.031Z" fill="#1564C1"/>
<path d="M577.825 328.865C577.825 328.865 589.28 332.604 592.415 339.235C595.55 345.867 604.256 366.483 604.256 366.483C604.256 366.483 613.542 355.738 610.526 332.293C610.526 332.293 609.111 328.846 600.953 322.944C592.795 317.042 577.825 328.865 577.825 328.865Z" fill="#6F072B"/>
<path d="M584.382 328.503C584.382 328.503 569.106 333.645 549.649 346.022C530.192 358.4 491.614 434.452 480.677 473.354L385.504 474.806C385.504 474.806 409.616 406.806 423.446 384.93C423.446 384.93 452.706 330.591 462.354 322.234C462.354 322.234 474.233 306.154 494.98 294.581C515.727 283.008 545.623 278.109 545.623 278.109L602.275 324.035C602.275 324.035 585.996 327.918 584.382 328.503Z" fill="#C44705"/>
<path d="M529.556 401.969V474.8" stroke="url(#paint14_linear_2303_12391)" stroke-width="1.46643" stroke-miterlimit="10"/>
<path d="M523.929 405.509C523.929 405.509 523.767 416.927 529.538 422.231" stroke="url(#paint15_linear_2303_12391)" stroke-width="1.46643" stroke-miterlimit="10"/>
<path d="M397.731 474.619C397.731 474.619 445.951 352.778 470.711 328.659C495.472 304.54 498.757 297.915 552.728 283.868L560.332 290.032C560.332 290.032 509.133 296.426 479.031 332.118C448.93 367.81 406.064 474.837 406.064 474.837L397.731 474.619Z" fill="#C1741B"/>
<path d="M404.942 474.507C404.942 474.507 450.737 356.237 457.486 351.893C464.236 347.549 482.21 299.542 558.169 288.592" stroke="#F0B269" stroke-width="0.733213" stroke-miterlimit="10"/>
<path d="M418.84 474.806H430.681C430.681 474.806 480.54 354.062 506.092 338.631C506.092 338.631 530.622 308.093 576.897 303.456L567.698 294.375C567.698 294.375 521.018 302.334 498.482 330.915C498.482 330.915 470.992 350.528 418.84 474.806Z" fill="#700926"/>
<path d="M435.985 474.806C435.985 474.806 481.325 371.83 503.35 342.813C503.35 342.813 521.966 310.885 576.891 303.456" stroke="#F0B269" stroke-width="0.733213" stroke-miterlimit="10"/>
<path d="M441.931 474.507C441.931 474.507 495.466 350.447 521.517 331.638C521.517 331.638 543.953 312.686 581.814 307.451" stroke="#F0B269" stroke-width="0.733213" stroke-miterlimit="10"/>
<path d="M467.016 474.806H453.672C453.672 474.806 496.438 351.17 532.448 332.523C532.448 332.523 558.443 312.58 585.959 310.81C613.474 309.04 587.429 310.81 587.429 310.81L594.466 317.684C594.466 317.684 554.635 326.715 544.346 341.186C544.346 341.205 514.786 355.589 467.016 474.806Z" fill="#C1741B"/>
<path d="M459.78 474.806C459.78 474.806 508.978 353.102 534.698 338.942C534.698 338.942 569.125 314.58 590.165 314.219" stroke="#F0B269" stroke-width="0.733213" stroke-miterlimit="10"/>
<path d="M402.985 205.815C402.985 205.815 388.62 197.451 388.458 196.105C388.296 194.759 382.007 199.483 388.458 203.584C388.458 203.584 386.326 210.757 389.654 211.686C392.982 212.614 398.161 208.221 402.985 205.815Z" fill="#680B04" stroke="url(#paint16_linear_2303_12391)" stroke-width="0.733213" stroke-miterlimit="10"/>
<path d="M124.702 163.467L79.2871 163.305" stroke="#FFD8B7" stroke-width="0.733213" stroke-miterlimit="10"/>
</g>
<defs>
<linearGradient id="paint0_linear_2303_12391" x1="65.4266" y1="207.142" x2="81.4747" y2="207.142" gradientUnits="userSpaceOnUse">
<stop stop-color="#DE765B" stop-opacity="0"/>
<stop offset="1" stop-color="#603913"/>
</linearGradient>
<linearGradient id="paint1_linear_2303_12391" x1="168.234" y1="204.681" x2="185.155" y2="204.681" gradientUnits="userSpaceOnUse">
<stop stop-color="#833930" stop-opacity="0"/>
<stop offset="1" stop-color="#603913"/>
</linearGradient>
<linearGradient id="paint2_linear_2303_12391" x1="284.129" y1="206.27" x2="301.15" y2="206.27" gradientUnits="userSpaceOnUse">
<stop stop-color="#92483A" stop-opacity="0.1"/>
<stop offset="1" stop-color="#884838"/>
</linearGradient>
<linearGradient id="paint3_linear_2303_12391" x1="404.743" y1="356.474" x2="413.356" y2="356.474" gradientUnits="userSpaceOnUse">
<stop stop-color="#92483A" stop-opacity="0.1"/>
<stop offset="1" stop-color="#3C2415"/>
</linearGradient>
<linearGradient id="paint4_linear_2303_12391" x1="419.681" y1="139.136" x2="484.104" y2="139.136" gradientUnits="userSpaceOnUse">
<stop stop-color="#92483A" stop-opacity="0.1"/>
<stop offset="1" stop-color="#3C2415"/>
</linearGradient>
<linearGradient id="paint5_linear_2303_12391" x1="390.172" y1="103.107" x2="417.251" y2="103.107" gradientUnits="userSpaceOnUse">
<stop stop-color="#92483A" stop-opacity="0.1"/>
<stop offset="1" stop-color="#3C2415"/>
</linearGradient>
<linearGradient id="paint6_linear_2303_12391" x1="494.306" y1="200.798" x2="513.003" y2="200.798" gradientUnits="userSpaceOnUse">
<stop stop-color="#92483A" stop-opacity="0.1"/>
<stop offset="1" stop-color="#3C2415"/>
</linearGradient>
<linearGradient id="paint7_linear_2303_12391" x1="453.678" y1="119.08" x2="496.426" y2="119.08" gradientUnits="userSpaceOnUse">
<stop stop-color="#92483A" stop-opacity="0.1"/>
<stop offset="1" stop-color="#3C2415"/>
</linearGradient>
<linearGradient id="paint8_linear_2303_12391" x1="517.366" y1="178.81" x2="561.067" y2="178.81" gradientUnits="userSpaceOnUse">
<stop stop-color="#92483A" stop-opacity="0.1"/>
<stop offset="1" stop-color="#3C2415"/>
</linearGradient>
<linearGradient id="paint9_linear_2303_12391" x1="536.617" y1="183.908" x2="568.053" y2="183.908" gradientUnits="userSpaceOnUse">
<stop stop-color="#92483A" stop-opacity="0.1"/>
<stop offset="1" stop-color="#3C2415"/>
</linearGradient>
<linearGradient id="paint10_linear_2303_12391" x1="584.232" y1="169.767" x2="599.956" y2="169.767" gradientUnits="userSpaceOnUse">
<stop stop-color="#92483A" stop-opacity="0.1"/>
<stop offset="1" stop-color="#3C2415"/>
</linearGradient>
<linearGradient id="paint11_linear_2303_12391" x1="476.906" y1="117.74" x2="500.745" y2="117.74" gradientUnits="userSpaceOnUse">
<stop stop-color="#92483A" stop-opacity="0.1"/>
<stop offset="1" stop-color="#3C2415"/>
</linearGradient>
<linearGradient id="paint12_linear_2303_12391" x1="514.655" y1="67.5892" x2="550.846" y2="67.5892" gradientUnits="userSpaceOnUse">
<stop stop-color="#92483A" stop-opacity="0.1"/>
<stop offset="1" stop-color="#3C2415"/>
</linearGradient>
<linearGradient id="paint13_linear_2303_12391" x1="532.492" y1="153.482" x2="552.497" y2="153.482" gradientUnits="userSpaceOnUse">
<stop stop-color="#92483A" stop-opacity="0.1"/>
<stop offset="1" stop-color="#3C2415"/>
</linearGradient>
<linearGradient id="paint14_linear_2303_12391" x1="529.556" y1="400.782" x2="529.556" y2="465.014" gradientUnits="userSpaceOnUse">
<stop stop-color="#92483A" stop-opacity="0.1"/>
<stop offset="1" stop-color="#3C2415"/>
</linearGradient>
<linearGradient id="paint15_linear_2303_12391" x1="523.305" y1="414.097" x2="529.974" y2="414.097" gradientUnits="userSpaceOnUse">
<stop stop-color="#92483A" stop-opacity="0.1"/>
<stop offset="1" stop-color="#3C2415"/>
</linearGradient>
<linearGradient id="paint16_linear_2303_12391" x1="385.242" y1="203.846" x2="403.639" y2="203.846" gradientUnits="userSpaceOnUse">
<stop stop-color="#92483A" stop-opacity="0.1"/>
<stop offset="1" stop-color="#3C2415"/>
</linearGradient>
<clipPath id="clip0_2303_12391">
<rect width="674.104" height="468.813" fill="white" transform="translate(0 0.187134)"/>
</clipPath>
</defs>
</svg>
